<svg xmlns="http://www.w3.org/2000/svg" viewBox="0 0 1416.68 886.32"><path fill="#015249" d="M1.2 655.05V0H0v886.32h1416.74V0H1.2z"/><path opacity=".75" fill="#000103" d="M1.2 0v194.95l742.76 691.37h75.25l597.85-635.86V0zm1415.86 0v250.46M819.21 886.32h-75.25"/><path fill="#201600" d="M1.2 415.26V1.9M2.98 0h385.97M1.2 415.26L388.95 0H2.98L1.2 1.9z"/><path fill="#00FFF0" d="M381.21 0H1.2v406.98zM1.2 0h380.01"/><path opacity=".3" fill="#000103" d="M851.8 886.32h-79.6M1417.06 0v285.16M1.2 0v168.58l771 717.74h79.6l565.26-601.16V0z"/><path fill="#00D6CA" d="M1.2 0v169.06l770.48 717.26h76.37l569.01-605.16V0zm1415.86 0v281.16M848.05 886.32h-76.37"/><path opacity=".5" fill="#201600" d="M1.2 0v172.35l766.95 713.97h51.06l597.85-635.9V0zm1415.86 0v250.42m-597.85 635.9h-51.06"/><path fill="#00D6CA" d="M1.2 0v169.42l770.1 716.9h47.05l598.71-636.83V0zm1415.86 0v249.49M818.35 886.32H771.3"/><path fill="#000204" d="M115.96 0H1401m0 0H115.96l686.5 641.01z"/><path fill="#007869" d="M117.52 0h1286.97m0 0H117.52l687.53 641.97z"/><path fill="#201600" d="M175.09 0h895.68m0 0H175.09l478.5 446.79z"/><path fill="#00D6CA" d="M177.9 0h892.98m0 0H177.9l477.05 445.44z"/><path opacity=".2" fill="#010305" d="M755.42 0l-435.8 466.73L771.3 886.32h16.22l629.54-669.69V0zm661.64 0v216.63M787.52 886.32H771.3"/><path fill="#00B29C" d="M755.42 0l-435.8 466.73L771.3 886.32h8.78l636.98-677.62V0zm661.64 0v208.7M780.08 886.32h-8.78"/></svg>