<?xml version="1.0" encoding="UTF-8"?>
<svg enable-background="new 0 0 612.4 252.3" version="1.1" viewBox="0 0 612.4 252.3" xml:space="preserve" xmlns="http://www.w3.org/2000/svg">
<style type="text/css">
	.st0{fill:#F9F9F9;}
	.st1{fill:#DCDCDC;}
	.st2{fill:#F8F8F8;}
	.st3{fill:#949494;}
	.st4{fill:#010101;}
	.st5{fill:#020202;}
	.st6{fill:#959595;}
	.st7{fill:#030303;}
	.st8{fill:#FAFAFA;}
</style>
		<path class="st0" d="m0.2 58.2v-58h612.2v252.1h-612.2v-4.4c0.3-0.3 0.6-0.6 1-0.9 0.8-0.8 1.6-1.6 2.4-2.3v3.3c0.9 0.4 1.7 0.3 2.6 0.1 0.1-0.4 0.2-0.8 0.2-1.2v-4c0-0.8 0.2-1.4 0.8-1.9 0.7-0.6 1.3-1.3 1.9-1.9l0.9-0.6c1.3 1.9 2.7 3.9 4 5.8 0.8 1.2 1.6 2.5 2.5 3.8 0.9 0.3 1.9 0.3 2.8 0 0.1-0.4 0.2-0.8 0.2-1.2v-17.5c0-0.4-0.1-0.8-0.2-1.2h-2.6c-0.1 0.4-0.2 0.8-0.2 1.3v6.5 5.5c0 0.5 0.1 1-0.5 1.2-1-1.4-2-2.7-2.9-4.1-1.3-1.9-2.4-3.8-3.7-5.7-1-1.5-2.1-3-3.1-4.5h-2.7v2.5c-0.3-0.3-0.6-0.6-1-0.9-0.8-0.8-1.6-1.6-2.4-2.3v-37.2h478.4 131.5 1.2c0.6 0 0.8-0.2 0.8-0.8v-1.4c-0.5-0.1-1-0.2-1.4-0.2h-610.6v-30l4.2-4.2h1.1c0.1-0.3 0.2-0.5 0.3-0.8s0.2-0.7 0.4-0.9c1.4-1.5 2.9-2.9 4.4-4.3 1.2 1.8 2.3 3.5 3.5 5.3 0.3 0.5 0.7 0.7 1.2 0.7h1.4c0.1-0.4 0.3-0.8 0.3-1.2v-15c0-0.4-0.1-0.8-0.2-1.2-0.7 0.1-1.5 0.1-2.2 0.2-0.4 0.5-0.4 1-0.4 1.6v8.9c0 0.5-0.1 1-0.2 1.6-0.5-0.7-1.1-1.4-1.6-2.1-2.1-3.2-4.2-6.4-6.3-9.6-0.3-0.4-0.6-0.7-1.2-0.6h-1.5c-0.1 0.5-0.1 1-0.2 1.4 0 0.3 0.1 0.7-0.3 0.9-0.9-0.9-1.8-1.7-2.7-2.6v-17.6c0.4-0.3 0.7-0.7 1.1-1 0.8-0.8 1.7-1.6 2.5-2.4 0 1.1 0.1 2.3 0.1 3.5 0.9 0.1 1.6 0.1 2.4 0.1 0.1-0.4 0.3-0.8 0.3-1.2v-4.3c0-0.5 0-1.1 0.4-1.5 0.3-0.3 0.2-0.6 0-0.9h4.5c0.6-0.1 1.1-0.1 1.7-0.2 2.5-0.5 4.3-1.8 5-4.4 0.3-0.9 0.3-1.9 0-2.8-0.1-0.2-0.2-0.4-0.2-0.6-0.5-1.5-1.4-2.7-2.9-3.3-0.8-0.4-1.7-0.5-2.5-0.8-0.3-0.1-0.6-0.2-1-0.2h-6.8c-0.3 0-0.7 0.2-1 0.2v3.8c-0.4-0.3-0.7-0.7-1.1-1-0.8-0.8-1.7-1.6-2.5-2.4v-39h608.5 2.2 0.6c0.4 0 0.7-0.2 0.7-0.7v-0.8c0-0.4-0.3-0.7-0.7-0.7h-1.5-608.3c-0.4 0.2-0.9 0.2-1.4 0.2zm63.6 170.8v0c0.1-0.2 0.3-0.3 0.3-0.5 0-0.5-0.2-1-0.3-1.4-0.2 0-0.5 0-0.7-0.1-1.3-0.3-2.6-0.1-3.8 0.5-1.4 0.7-2 1.9-2.1 3.4-0.1 0.4-0.2 0.8-0.2 1.2-0.1 1.1-0.1 1.2-1.2 1.2-0.3 0-0.7 0.2-1 0.3v1.8c0.4 0.1 0.9 0.2 1.3 0.3 0.7 0.1 0.8 0.2 0.8 0.9v0.8 9.4c0 0.5 0.1 0.9 0.2 1.4 0.9 0.3 1.8 0.4 2.6-0.1 0-0.1-0.1-0.2-0.1-0.3v-11.8-0.2h2.5c0.5 0 1-0.1 1.2-0.6 0.2-0.6 0.1-1-0.5-1.5-0.4-0.1-0.7-0.2-1.1-0.2h-2.1c0-0.6-0.1-1.2-0.1-1.9 0-1.1 0.6-1.9 1.7-2.3 0.5-0.2 1-0.1 1.6-0.1 0.5 0.2 0.8 0.2 1-0.2zm171.5-91.2c-0.7-0.3-1.5-0.3-2.2 0-0.1 0.4-0.3 0.7-0.4 1.1-0.1 0.6 0 1.3 0 1.9h-2c-0.3 0.7-0.4 1.3 0.1 2h1.9v7.1c0 0.4-0.1 0.9 0.4 1.2 0.2 2 0.9 2.7 2.2 2.9 0.9 0.1 1.9 0.3 2.6-0.5 0.5-0.6 0.5-0.6 0-1.2v-0.2c-0.6-0.1-1.2-0.1-1.9-0.2l-0.6-0.6v-8.4h1.2c1.1 0 1.3-0.2 1.2-1.3 0-0.2-0.1-0.4-0.2-0.6-0.7 0-1.5-0.1-2.2-0.1 0-1.1-0.1-2.1-0.1-3.1zm-22.6 8h-1.5c-0.7 0-1.4 0.1-2.1 0.2-0.4 0.1-0.9 0.1-1.3 0.3-1.6 0.5-2.9 1.4-3.2 3.2-0.2 0.5-0.2 0.9 0 1.4 0.5 2.2 2.3 3 4.1 3.2 1.3 0.1 2.4-0.4 3.5-1h0.7c0.1 0.3 0.1 0.7 0.4 0.7 0.7 0.1 1.4 0.2 2.1-0.2-0.5-1.2-0.4-2.5-0.4-3.8v-4.8c-0.1-2.2-1.1-3.6-3-4.1-1.8-0.5-3.5-0.4-5.1 0.5-1.2 0.6-1.8 1.7-2 3 0.7 0.6 1.3 0.6 2.2 0.1 0.4-1.2 1.2-1.8 2.4-1.8h0.9c1.2 0.1 1.9 0.6 2.3 1.8v1.3zm-116.3 93.3h-1.9c-0.7 0-1.4 0.1-2.1 0.2-0.9 0.2-1.7 0.4-2.6 0.7-0.8 0.3-1.5 0.9-2 1.6-0.5 0.8-0.8 1.7-0.7 2.5 0 1.1 0.4 2.2 1.3 3 0.3 0.2 0.5 0.4 0.8 0.6 0.5 0.2 1 0.4 1.4 0.6 0.4 0.6 1 0.1 1.5 0.2 1.7 0.2 3-0.9 4.3-1.6 0.2 0.5 0.4 0.9 0.6 1.3 0.9 0.2 1.7 0.3 2.6-0.1-0.1-0.8-0.3-1.5-0.4-2.3v-7.8c0-0.4-0.1-0.7-0.2-1.1-0.1-0.2-0.2-0.5-0.3-0.7-0.5-1.2-1.3-2.1-2.6-2.6-1.6-0.6-3.3-0.6-5-0.1-1.4 0.4-2.5 1.1-3.2 2.3-0.3 0.5-0.8 1.1-0.3 1.8 0.8 0.8 1.7 0.8 2.4-0.1 0.1-0.9 0.6-1.6 1.5-1.8 0.8-0.2 1.5-0.6 2.4-0.4 0.2 0.4 0.6 0.3 0.9 0.2 0.7 0.4 1.4 0.9 1.7 1.8-0.1 0.6-0.1 1.2-0.1 1.8zm51.4-124.9c-0.7-0.5-1.6-0.6-2.4 0 0 0.1-0.1 0.2-0.1 0.2-0.1 1.4 0.6 2.5 1.7 3.3 1 0.8 2.2 1.2 3.4 1.3 0.8 0.5 1.2 0.5 2 0 1.3-0.1 2.5-0.6 3.5-1.5 1.7-1.5 1.8-4.6-0.3-5.9-0.9-0.6-1.9-0.9-3-1.2-1-0.3-2-0.5-2.9-0.8-0.5-0.1-0.9-0.3-1-0.9v-1.5c0.2-0.8 0.9-1 1.6-1.2h2.1c1.3 0.2 1.9 1.2 2.3 2.3h2.4c0-1.5-0.6-2.5-1.7-3.4-0.8-0.7-1.8-0.8-2.7-1.1-0.8-0.3-1.6-0.2-2.4 0l-1.2 0.3c-1.6 0.5-2.9 1.4-3.3 3.2-0.3 0.5-0.3 1.1 0 1.6 0.2 0.8 0.6 1.5 1.3 2 1.3 0.9 2.8 1.1 4.2 1.6 1.1 0.4 2.4 0.5 3.1 1.6v1.6c-1.1 1.6-3.7 1.7-5.1 0.9-0.5-0.3-0.9-0.6-1.1-1.2-0.1-0.5-0.3-0.8-0.4-1.2zm-3 133.9c0.8 0.3 1.6 0.3 2.4 0 0.1-0.4 0.2-0.8 0.2-1.2v-8.7c0-0.4-0.1-0.8-0.2-1.2-0.1-0.3-0.2-0.6-0.2-0.9-0.4-1.5-1.3-2.5-2.8-2.9-1.9-0.5-3.7-0.2-5.4 1-0.3-0.2-0.5-0.4-0.8-0.6v-0.2c-0.9-0.3-1.7-0.4-2.6 0v14.5c0.8 0.4 1.7 0.3 2.6 0.1 0.1-0.4 0.2-0.8 0.2-1.2v-9.5c0.1-0.2 0.2-0.4 0.4-0.6 0.5-0.1 0.8-0.4 0.8-0.9 1.4-1.3 5.1-1 5.2 1.6v9.4c0.1 0.6 0.2 0.9 0.2 1.3zm-43.6-12.6c0.5 0.1 1.1 0.1 1.6 0.2 0.8 0.1 0.9 0.2 0.9 1v0.7 6.9c0 0.4 0.1 0.8 0.2 1.3 0.1 1.1 0.5 2 1.5 2.6 0.6 0.4 1.3 0.4 2 0.4 0.5-0.1 1-0.1 1.5-0.2 0.1-0.1 0.2-0.1 0.4-0.2 0.1-0.2 0.2-0.3 0.2-0.5 0.2-1.2-0.1-1.6-1.3-1.6-0.3 0-0.6 0.1-0.9 0.1-0.5 0.1-0.4-0.4-0.6-0.6 0.1-1.2 0.2-2.3 0.2-3.5v-4.9c0-1.2 0.2-1.4 1.4-1.5 0.3 0 0.7-0.2 1-0.3v-1.8c-0.4-0.1-0.8-0.3-1.2-0.3-1.1-0.1-1.2-0.1-1.2-1.2v-1.4c0-0.7-0.2-0.9-1-1h-1.3c-0.7 0-0.9 0.2-0.9 0.9v2.7h-1.3c-1.5 0-1.7 0.3-1.5 1.7 0.2 0.2 0.3 0.3 0.3 0.5zm-32.6 12.6c0-0.4 0.2-0.7 0.2-1.1v-12.3c0-0.4-0.1-0.8-0.2-1.2-0.9-0.3-1.8-0.4-2.6 0.1 0 0.3 0.1 0.5 0.1 0.8v12.8c0 0.3-0.1 0.5-0.1 0.8 0.9 0.5 1.7 0.4 2.6 0.1zm-16.8 0c0.1-0.4 0.2-0.8 0.2-1.2v-12.3c0-0.4-0.1-0.8-0.2-1.2-0.7-0.1-1.4-0.1-2.2-0.2-0.4 0-0.6 0.3-0.6 0.6v0.6 12.4c0 0.4 0.1 0.8 0.2 1.2 0.9 0.4 1.7 0.4 2.6 0.1zm63.4 0c0-0.4 0.2-0.7 0.2-1.1v-12.3c0-0.4-0.1-0.8-0.2-1.2-0.9-0.3-1.8-0.4-2.6 0.1 0 0.3 0.1 0.5 0.1 0.8v12.8c0 0.3-0.1 0.5-0.1 0.8 0.9 0.5 1.8 0.4 2.6 0.1zm135.7-100.1c0.3-0.9 0.3-1.7 0-2.6-0.1-0.3-0.2-0.6-0.3-1-0.9-3.2-4.2-4.7-7.3-3.4-2.2 1-3.2 2.7-3.5 4.9-0.3 0.9-0.3 1.9 0 2.8 0.5 3.5 2.5 4.7 5.1 5.2 2.4 0.4 5.2-1 5.6-2.6-0.3-0.3-0.7-0.6-1.1-0.9-0.4 0.3-0.8 0.6-1.1 0.8-0.4 0.2-0.8 0.4-1.3 0.6h-2.1c-1.6-0.3-2.6-1.5-2.8-3.2 0.4-0.1 0.8-0.2 1.3-0.2h6.1c0.6 0 1 0.1 1.4-0.4zm-204.9 87.5c0.1-0.2 0.2-0.3 0.2-0.5 0.2-1.4 0-1.7-1.4-1.7-1 0-1.1-0.1-1.1-1.2v-1.6c0-0.4-0.2-0.7-0.5-0.7-0.8-0.1-1.7-0.3-2.4 0.2 0 1.1 0 2.2-0.1 3.3h-1.8c-0.3 0-0.7 0.2-1 0.3v1.8c0.3 0.1 0.7 0.3 1 0.3h1.8v0.3 9.2c0 0.9 0.2 1.7 0.8 2.3 0.7 0.8 1.6 1 2.6 1 0.5-0.1 1-0.1 1.5-0.2h0.1 0.1c0.6-0.6 0.6-1.3 0.1-2.2h-1.9c-0.5 0.1-0.4-0.4-0.6-0.6 0.1-1 0.2-2.1 0.2-3.1v-5.5c0-1 0.2-1.2 1.2-1.3 0.4 0 0.8-0.1 1.2-0.1zm20.8-4.6c0.6 0.5 0.7 0.5 1.2-0.1 0.7-0.3 1-0.9 0.8-1.7-0.1-0.4-0.5-0.7-0.8-1.1h-1.2c-0.3 0.2-0.7 0.5-0.9 0.7v1c0.1 0.6 0.3 1.1 0.9 1.2zm47.8-2.9h-1.2c-0.3 0.2-0.7 0.5-0.9 0.7v1c0.1 0.6 0.3 1.1 0.9 1.2 0.6 0.5 0.7 0.5 1.2-0.1 0.7-0.3 1-0.9 0.8-1.7-0.1-0.4-0.5-0.7-0.8-1.1zm-63.4 2.8c0.7-0.3 1-0.9 0.8-1.7-0.1-0.4-0.5-0.7-0.8-1.1h-1.2c-0.4 0.1-0.8 0.2-1 0.7-0.4 1-0.2 1.6 1 2.2 0.6 0.5 0.7 0.5 1.2-0.1zm81.4-90h-2.2c-0.1 0.4-0.2 0.7-0.2 1.1v10.8c0 0.4 0.2 0.8 0.3 1.1 0.7-0.1 1.4-0.1 2.1-0.2 0.1-0.4 0.2-0.7 0.2-1.1v-10.6c0-0.3-0.1-0.7-0.2-1.1zm-34 12.8c0.7 0.2 1.5 0.2 2.2 0 0.1-0.4 0.2-0.7 0.2-1.1v-10.6c0-0.4-0.1-0.8-0.2-1.2-0.7 0.1-1.5 0.1-2.2 0.2-0.4 0.2-0.4 0.6-0.4 1v10.6c0.1 0.4 0.3 0.8 0.4 1.1zm8.9-34.8h2.2c0.1-0.4 0.3-0.8 0.3-1.2v-12.4c0-0.4-0.1-0.8-0.2-1.2h-2.4c-0.1 0.4-0.2 0.7-0.2 1.1v12.6c0 0.4 0.2 0.8 0.3 1.1zm-33.1 24c0.3-0.7 0.3-1.3 0-2-1.2-0.4-2.4-0.2-3.3 0.7-0.2-0.2-0.4-0.3-0.6-0.5-0.7-0.1-1.5-0.1-2.2-0.2-0.1 0.4-0.2 0.7-0.2 1.1v10.8c0 0.4 0.2 0.8 0.3 1.1h2c0.1-0.4 0.3-0.7 0.3-1.1v-8.3c0.4-1 1.2-1.5 2.2-1.6h1.5zm122.6 10.6c0.3 0.1 0.6 0.3 0.9 0.3 0.4 0.1 0.9 0 1.3 0.1 0.1-0.4 0.3-0.7 0.3-1.1v-8.3c0.4-1 1.2-1.4 2.2-1.6h1.2c0.4 0 0.5-0.2 0.6-0.6v-0.7c0-0.7-0.2-0.9-0.9-0.9-0.9 0-1.8 0.3-2.5 0.8-0.2-0.1-0.5-0.3-0.7-0.4-0.7-0.3-1.5-0.3-2.2 0-0.1 0.4-0.4 0.8-0.4 1.2v10.1c-0.1 0.4 0.1 0.8 0.2 1.1zm-123.7-34.6c0.6-0.2 0.5-0.7 0.5-1.2v-12.5c0-0.4-0.1-0.8-0.2-1.1h-2.4v14.7c0.7 0 1.4 0.1 2.1 0.1zm-29.9-12.6c0.3-0.8 0.3-1.6 0-2.4h-0.2c-0.6-0.2-1.2-0.2-1.8 0-1 0.2-1.7 0.9-2.6 1.4-0.1-0.4-0.2-0.8-0.3-1.1h-2.3v14.7c0.9-0.1 1.7-0.1 2.4-0.2 0.1-0.3 0.2-0.7 0.2-1v-9.6c0.3-0.7 0.9-1.2 1.6-1.5 1.1-0.4 2-0.4 3-0.3zm109.4 35.8c-0.1-0.4-0.3-0.8-0.4-1.2h-2c-0.1 0.4-0.2 0.7-0.2 1.1v10.8c0 0.4 0.2 0.8 0.3 1.1 0.4 0 0.9 0 1.3-0.1 0.6 0 0.7-0.2 0.8-0.8v-0.8-6.6c0-1.4 0.7-2.4 2-2.9 1.2-0.4 2.5-0.1 3.3 0.8 0.5 0.6 0.6 1.4 0.6 2.2v4.3 2.5c0 1.2 0 1.2 1.2 1.3h0.9c0.1-0.4 0.3-0.8 0.3-1.2v-7.4c0-0.4-0.1-0.8-0.2-1.2s-0.3-0.8-0.4-1.2c-0.3-0.8-0.8-1.4-1.6-1.7-1.1-0.5-2.2-0.6-3.3-0.4-1 0.3-1.8 0.9-2.6 1.4zm67.8-1.2c-0.7 0.1-1.4 0.1-2.2 0.2-0.1 0.4-0.4 0.8-0.4 1.2v10.1c0 0.4 0.2 0.7 0.4 1.1 0.3 0.5 0.8 0.3 1.2 0.4 1.1 0 1.2-0.1 1.2-1.2 0-2.4 0.1-4.8 0-7.2 0-1.5 1.1-2.4 2.1-2.7 1.7-0.5 3.1 0.2 3.6 1.7v8.1c0 0.4 0.2 0.9 0.3 1.3h0.8c1.3 0 1.3 0 1.3-1.4v-6c0-0.9-0.1-1.8-0.2-2.7-0.2-1.5-1-2.5-2.5-2.9-1.9-0.5-3.6-0.2-5.1 1.2-0.2-0.4-0.3-0.8-0.5-1.2zm-101.6 9c-0.5-0.1-1.1-0.2-1.6-0.2-0.7 0-0.7 0.2-0.6 1 0.4 0.8 0.7 1.6 1.5 2.2 2 1.5 5.2 1.5 7.4 0.1 1.7-1.1 2.3-4.5-0.3-5.7-0.9-0.4-1.9-0.7-2.8-1l-2.1-0.6c-0.5-0.2-1-0.6-1-1.2 0-0.7 0.3-1.1 0.9-1.5 1.2-0.7 3.1-0.4 4 0.7 0.2 0.3 0.4 0.7 0.5 1 0.7 0.2 1.5 0.3 2.2-0.1 0-1.3-0.6-2.4-1.7-3.1-2.1-1.2-4.3-1.3-6.5-0.1-1.7 1-2.3 3.8-0.6 5.2 0.4 0.3 0.9 0.6 1.4 0.8 0.9 0.3 1.8 0.5 2.7 0.7 0.6 0.2 1.2 0.4 1.8 0.7 0.9 0.4 1.1 1.7 0.2 2.4-1.2 1-3.4 1-4.5 0-0.6-0.2-0.9-0.6-0.9-1.3zm52.7-5.1c0.7 0.2 1.5 0.3 2.2-0.1 0-1.3-0.6-2.4-1.7-3.1-2.1-1.2-4.3-1.3-6.5-0.1-1.7 1-2.3 3.8-0.6 5.2 0.4 0.3 0.9 0.6 1.4 0.8 0.9 0.3 1.8 0.5 2.7 0.7 0.6 0.2 1.2 0.4 1.8 0.7 0.9 0.4 1.1 1.7 0.2 2.4-1.2 1-3.4 1-4.5 0-0.4-0.4-0.8-0.8-0.7-1.5-0.6-0.1-1.2-0.2-1.8-0.1-0.5 0-0.6 0.3-0.4 0.7 0.2 1.2 0.8 2.1 1.9 2.7 2.3 1.2 4.5 1.2 6.8-0.1 0.9-0.5 1.3-1.4 1.8-2.2 0.2-0.5 0.2-0.9 0-1.4-0.6-1.6-1.9-2.5-3.5-2.9-0.3-0.1-0.6-0.2-0.9-0.2-0.8-0.2-1.6-0.4-2.4-0.7-0.5-0.2-1-0.6-1-1.2 0-0.7 0.3-1.1 0.9-1.5 1.2-0.7 3.1-0.3 4 0.7 0 0.5 0.1 0.8 0.3 1.2zm-59.6 0c0.7 0.2 1.5 0.3 2.2-0.1-0.1-1.7-1-2.9-2.6-3.5-1-0.4-2.1-0.5-3.1-0.4-2.1 0.2-3.7 1.1-4.1 3-0.2 0.5-0.2 1 0 1.6 0.3 1 0.8 1.6 1.8 2l1.8 0.6c0.9 0.3 1.7 0.5 2.6 0.7 0.8 0.3 1.4 0.7 1.5 1.6 0.1 0.7-0.5 1.3-1.6 1.6h-2.2c-1-0.2-1.8-0.7-2-1.8-0.4-0.6-1.1-0.4-1.6-0.4-0.7 0-0.7 0.2-0.6 1 0.2 1 0.7 1.9 1.6 2.4 2 1.2 4.1 1.3 6.3 0.4 0.7-0.3 1.4-0.7 1.8-1.4 1-1.5 0.8-3.9-1.1-4.8-0.9-0.4-1.9-0.7-2.9-1l-2.1-0.6c-0.5-0.2-1-0.6-1-1.3s0.4-1.1 0.9-1.4c1.5-0.8 3.6-0.1 4.3 1.4-0.1 0.2 0 0.3 0.1 0.4zm-91.9 3.9c0.1 0.5 0.1 0.9 0.3 1.4 0.7 1.9 2 3.3 4.1 3.8 2.5 0.7 6-0.6 7-3.6 0.2-0.5 0.3-0.9 0.5-1.4 0.3-1 0.3-2 0-3-0.1-0.3-0.2-0.6-0.2-0.9-1.3-4.9-6.6-5.1-9.1-3.4-1.5 1-2.2 2.5-2.5 4.2-0.4 1.1-0.4 2-0.1 2.9zm127.3 0.2c0.3-1 0.3-2 0-3-0.1-0.3-0.2-0.6-0.2-0.9-0.4-1.2-1-2.3-2-3.1-3.1-2.4-8.8-1.4-9.6 4-0.3 0.9-0.3 1.8 0 2.8 0.1 0.5 0.1 1.1 0.3 1.5 0.8 1.9 2.1 3.1 4.1 3.7 2.3 0.6 5.6-0.5 6.7-3 0.2-0.6 0.4-1.3 0.7-2zm-93.1 0c0.7 3.2 2.1 4.6 5 5.1 2 0.4 4.8-0.5 5.9-2.5-0.4-0.3-0.8-0.6-1.1-0.9-0.9 0.5-1.7 0.9-2.5 1.2h-2.1c-1.6-0.3-2.6-1.5-2.8-3.2 0.5-0.1 0.9-0.2 1.4-0.2h6.4c0.5 0 1.1 0 1.3-0.6 0.2-0.5 0.3-1.1-0.2-1.6-0.2-0.8-0.4-1.7-0.7-2.5-1.2-3.2-4.7-3.6-6.9-2.7-2.3 0.9-3.1 2.8-3.6 5-0.4 1.1-0.4 2-0.1 2.9zm20.4 90.2c0-0.9 0.2-1.8 1-2.4 0.5-0.1 0.8-0.3 0.8-0.8 0.8-0.5 1.6-0.8 2.5-0.6 1.6 0.3 2.9 1.1 3.2 2.9 0 0.1 0.2 0.2 0.3 0.3 0.6 0.3 1.2 0.3 1.8 0h0.1 0.1c0.3-0.4 0.3-0.8 0.1-1.2-0.1-0.2-0.2-0.4-0.2-0.5-0.4-1-1-1.9-1.9-2.5-2.1-1.4-4.3-1.5-6.5-0.6-0.8 0.3-1.5 0.6-2.1 1.3-0.9 1.2-1.6 2.4-1.7 4-0.3 1.3-0.3 2.5 0 3.8 0.2 1.3 0.7 2.4 1.4 3.5 0.1 0.7 0.4 1.1 1.1 1.1 0.8 0.5 1.5 0.9 2.5 1 0.4 0.1 0.9 0.1 1.3 0.2h0.4c0.4-0.1 0.9-0.1 1.3-0.2s0.8-0.3 1.2-0.4c1.5-0.7 2.5-1.9 3.2-3.4 0.3-1.2 0.2-1.4-1-1.4h-0.5c-0.5 0-0.9 0.2-0.9 0.8-0.4 1.2-1.2 1.9-2.4 2.2-0.7-0.2-1.4-0.1-2.1 0-1.7-0.3-2.9-1.8-2.9-3.7-0.1-1.1-0.1-2.2-0.1-3.4zm64.5-131.3c-0.1 0.6-0.2 1.3-0.2 1.9v8.1c0 0.4 0 0.7 0.4 1 0.8 0.2 1.7 0.2 2.6 0v-1.1-6.1c0-1.3 0-2.5-0.2-3.8-0.2-1.8-1-3.2-2.9-3.7-0.2 0-0.3-0.1-0.5-0.2-0.8-0.3-1.6-0.3-2.4 0-1.2 0.3-2.2 0.7-3 1.6-0.1-0.5-0.3-0.9-0.4-1.4h-2.4c-0.1 0.4-0.2 0.7-0.2 1.1v12.6c0 0.4 0.2 0.7 0.3 1.1h2.2c0.5-0.2 0.5-0.7 0.5-1.1v-9.8c0.5-1 1.2-1.7 2.4-1.9h2.1c0.8 0.3 1.4 0.8 1.7 1.7zm-96.1 50.9c0.1-0.4 0.2-0.8 0.2-1.2v-3.3c0-0.4-0.1-0.8 0.3-1.1 0.7 0.3 1.4 0.6 2.1 0.8 1.6 0.4 3.1 0 4.3-1.1 1.1-1 1.5-2.4 1.9-3.7 0.1-0.5 0.1-1 0.2-1.4v-0.5c-0.1-0.5-0.1-1.1-0.2-1.6-0.1-0.3-0.2-0.6-0.2-0.9-1-3.9-4.6-4.6-7.1-3.5-0.5 0.2-1 0.5-1.6 0.8-0.1-0.4-0.2-0.7-0.3-1-0.7-0.1-1.3-0.2-1.9 0.1-0.1 0.4-0.4 0.8-0.4 1.2v15.1c0 0.4 0.2 0.7 0.4 1.1 0.8 0.7 1.6 0.4 2.3 0.2zm218.7-23.2c-0.1 0.4-0.2 0.8-0.2 1.3v5.2c-0.3-0.2-0.6-0.3-0.8-0.5-1.7-1.1-4.3-1-5.8 0.4-1.2 1.1-1.9 2.6-2 4.3-0.2 0.8-0.4 1.6 0 2.4 0.1 1.3 0.5 2.4 1.2 3.5 0.9 1.6 3.5 2.4 5.1 1.9 0.8-0.3 1.6-0.7 2.4-1.1 0.4 1 0.4 1 1.5 1h0.8c0.1-0.4 0.3-0.8 0.3-1.2v-16c0-0.4-0.1-0.8-0.2-1.2h-2.3zm-102.1 109.5c-0.4 0.1-0.7 0.4-0.8 0.8-0.4 0.2-0.7 0.3-1.1 0.5-0.8-0.2-1.6-0.2-2.4 0-1-0.2-1.9-0.6-2.1-1.7-0.2-0.8-0.2-0.8-0.9-0.9h-1.3c-0.7 0.1-0.7 0.2-0.6 1 0.3 1.1 0.8 2.1 1.8 2.8 0.8 0.5 1.6 0.8 2.6 1 0.5 0.5 1 0.1 1.5 0.2h0.4c0.3 0 0.7 0.1 1 0.1 0.2 0 0.5-0.1 0.7-0.2 0.7-0.3 1.3-0.6 2-0.8 0.8-0.2 1.4-0.5 1.4-1.4 0.1-0.4 0.3-0.8 0.4-1.2 0.3-0.6 0.3-1.2 0-1.8-0.5-1.3-1.4-2.2-2.7-2.7-0.5-0.2-1.1-0.3-1.6-0.5-1.2-0.4-2.3-0.7-3.5-1.1-0.7-0.3-1.1-1.1-1-1.7 0.1-0.8 0.8-1.5 1.6-1.6 0.2 0 0.3 0 0.5-0.1 0.9-0.3 2.4 0.1 3.2 0.7 0.6 0.4 0.7 1.1 0.9 1.6 0.9 0.2 1.8 0.4 2.6-0.1-0.1-0.2-0.2-0.4-0.2-0.6-0.1-1.2-0.7-2.1-1.6-2.7-2.2-1.5-4.6-1.6-7-0.6-1.7 0.7-2.7 2-2.6 4 0.1 1.1 0.5 1.9 1.3 2.5 1 0.8 2.2 1 3.4 1.4 0.7 0.3 1.5 0.3 2.2 0.5 2 0.5 2.1 1.1 1.9 2.6zm-77.6-138.9h2c1.1 0.4 2.1 1 2.2 2.3h1.2 1.2c0-2-1.1-3.5-2.9-4.1-0.5-0.2-1-0.3-1.5-0.5-0.8-0.2-1.6-0.2-2.4 0-0.5 0.1-1 0.3-1.4 0.4-1.8 0.6-2.9 2-2.9 3.9 0 1.3 0.6 2.2 1.6 2.9s2.1 0.8 3.2 1.2c1 0.3 2.1 0.6 3 1 1.5 0.7 1.3 2.1 0.5 2.8-2 1.8-6.2 1-6.3-1.8-0.8-0.6-1.5-0.6-2.4-0.1-0.1 0.1-0.2 0.2-0.2 0.3 0.2 0.8 0.4 1.6 0.9 2.3 1.2 1.4 2.7 2.1 4.5 2.2 0.8 0.5 1 0.5 1.8 0 2.3-0.3 4.1-1.2 4.8-3.6 0.2-0.5 0.2-1.1 0-1.6-0.4-1.3-1.3-2.2-2.5-2.7-0.9-0.4-1.9-0.6-2.9-0.9-0.8-0.3-1.6-0.5-2.4-0.8-0.3-0.1-0.8-0.2-0.8-0.8v-1.5c0.3-0.3 0.8-0.9 1.7-0.9zm17-2.2c-0.8-0.3-1.6-0.2-2.4 0-0.4 0.1-0.8 0.2-1.3 0.3-1.6 0.5-2.7 1.5-3.2 3.2-0.3 0.5-0.3 1.1 0 1.6 0.2 0.8 0.6 1.5 1.3 2 1 0.7 2.1 1.1 3.3 1.3 0.8 0.2 1.7 0.4 2.5 0.7 0.7 0.3 1.5 0.7 1.6 1.6s-0.3 1.6-1.1 2c-1.3 0.7-2.5 0.6-3.8 0.2-1.1-0.4-1.7-1.2-1.8-2.4-0.7-0.6-1.6-0.6-2.4-0.1 0 0.1-0.1 0.2-0.1 0.2-0.1 1.4 0.6 2.5 1.7 3.3 1 0.8 2.2 1.2 3.5 1.3 0.8 0.5 1.2 0.5 2 0 1.3-0.2 2.5-0.6 3.5-1.5 1.7-1.5 1.8-4.7-0.4-5.9-0.9-0.5-2-0.9-3-1.2s-2-0.5-3-0.9c-0.7-0.2-1.2-0.7-1.3-1.5-0.1-0.7 0.3-1.4 0.9-1.7 0.3-0.2 0.7-0.2 1-0.3h2.1c1.1 0.4 1.9 1 2.1 2.3 0.9 0 1.7 0.1 2.7-0.1-0.1-1.6-0.8-2.8-2.1-3.5-0.7-0.4-1.5-0.6-2.3-0.9zm19.8 0c-1 0.2-2.1 0.5-2.9 1.1-1.6 1.2-2.4 2.8-2.7 4.8-0.3 1.2-0.3 2.4 0 3.6v0.6c1 2.9 2.4 4.8 5.8 5.2 0.8 0.5 1 0.5 1.8 0 0.2-0.1 0.4-0.1 0.7-0.2 2-0.3 3.3-1.5 4.2-3.1 0.4-0.7 0.6-1.7 0.9-2.5 0.3-1.2 0.3-2.4 0-3.6-0.1-0.3-0.2-0.6-0.2-0.8-0.6-2.1-1.7-3.7-3.8-4.5-0.5-0.2-1.1-0.3-1.6-0.5-0.7-0.3-1.4-0.3-2.2-0.1zm13.2 135.7c-0.1-0.1-0.2-0.3-0.2-0.4-0.3-2.8-2.3-5.5-5.5-5.9-4.5-0.5-7.5 2.1-7.9 6.3-0.3 0.9-0.3 1.7 0 2.6 0.1 1.3 0.6 2.4 1.2 3.4 0.9 1.5 2.2 2.5 4 2.8 0.4 0.1 0.9 0.1 1.3 0.2h0.4c0.5-0.1 1-0.1 1.5-0.2 1.1-0.3 2.2-0.7 3-1.6 1-1.1 1.8-2.4 2-4 0-0.2 0.1-0.4 0.2-0.6 0.3-0.9 0.3-1.8 0-2.6zm-101 8.8c0.2-0.1 0.4-0.1 0.7-0.2 1.6-0.6 2.9-1.5 3.7-3.1 0.4-0.8 0.6-1.7 0.9-2.5 0.3-1.2 0.3-2.4 0-3.6-0.1-0.1-0.2-0.2-0.2-0.3-0.7-3-2.4-4.8-5.5-5.3-4.4-0.7-7.5 2.4-7.9 6.3-0.3 0.9-0.3 1.7 0 2.6 0.1 0.4 0.1 0.8 0.2 1.1 0.3 0.8 0.7 1.6 1.1 2.4 0.9 1.5 2.2 2.4 3.9 2.7 0.5 0.1 1 0.1 1.5 0.2h0.4c0.3-0.2 0.8-0.3 1.2-0.3zm-10.6-138.5c-0.3 1.1-0.3 2.3 0 3.4 0.2 1.8 1 3.4 2.4 4.5 1 0.8 2.1 1.2 3.4 1.3 0.8 0.5 1.1 0.5 1.8 0 2.1-0.1 3.6-1.2 4.8-2.8-0.5-0.4-1.1-0.8-1.5-1.2-0.7 0.5-1.3 1-1.9 1.4-0.6 0.3-1.4 0.6-2.1 0.6s-1.5-0.2-2.2-0.6c-1.5-0.8-2.5-2.8-2.2-4.2h0.4 9.2c0.1 0 0.3 0 0.4 0.1 0.5-0.8 0.4-1.6 0.1-2.4-0.1-0.3-0.2-0.6-0.2-1-0.3-1.6-0.9-3-2.3-4-0.8-0.6-1.7-0.8-2.5-1.1-0.7-0.2-1.5-0.2-2.2 0-1.1 0.2-2.1 0.6-2.9 1.3-1.4 1.2-2.4 2.8-2.5 4.7zm170.5 43c0.1 0.5 0.1 1.1 0.2 1.6-0.4 1.5-1.5 2.3-3 2.4-1.2 0.1-2.3-0.2-3.2-1-0.6-0.5-0.7-0.5-1.3 0.1-0.2 0.2-0.4 0.4-0.6 0.7 0.3 0.3 0.6 0.7 1 0.9 1.6 1.1 3.4 1.5 5.3 1.2s3.4-1.3 4-3.3c0.2-0.5 0.2-1.1 0.4-1.7 0.1-0.4 0.4-0.7 0.4-1.1v-10.7c0-0.4 0-0.7-0.4-1-0.7-0.4-1.3-0.2-2-0.1-0.1 0.3-0.3 0.6-0.4 0.9-0.3-0.2-0.6-0.4-0.8-0.5-2.3-1.3-6-0.9-7.2 2.2-0.3 0.7-0.4 1.4-0.6 2.1-0.3 1.1-0.3 2.2 0 3.4 0.2 0.7 0.3 1.4 0.6 2 0.9 1.9 2.6 3.1 4.7 3 0.9 0.1 1.9-0.4 2.9-1.1zm-114.5-11.8c-0.4 0.2-0.4 0.6-0.4 1v10.6c0 0.4 0.2 0.7 0.4 1.1 0.7 0.1 1.4 0.1 2.1 0.2 0.1-0.4 0.3-0.7 0.3-1.1v-8.5c0.5-1.3 1.6-1.6 2.8-1.6s2.1 0.5 2.6 1.6v2.4 5.6c0 0.4 0.1 0.8 0.2 1.3 0.3 0.1 0.6 0.3 0.9 0.3 1.4 0.1 1.5 0 1.5-1.4v-7.1c0-1.5 1.1-2.6 2.6-2.6 0.5 0 0.9 0.1 1.4 0.2 0.9 0.1 1.5 0.7 1.7 1.6v8.3c0 0.4 0.2 0.7 0.3 1.1 0.4 0 0.9 0 1.3-0.1 0.3 0 0.6-0.2 0.9-0.3 0.1-0.4 0.4-0.7 0.4-1.1v-6.2c0-0.4-0.2-0.7-0.4-1.1-0.1-0.6-0.2-1.3-0.4-1.9-0.3-1-0.9-1.7-1.9-2.1-1.5-0.6-3-0.7-4.4 0.1-0.7 0.3-1.3 0.8-1.9 1.2-2-1.9-4.1-2.5-7.5-0.5-0.1-0.3-0.2-0.6-0.4-0.9-0.8-0.2-1.5-0.4-2.1-0.1zm-19.8-35.6c-0.5-0.4-1-0.9-1.6-1.2-0.3-0.2-0.8-0.3-1.2-0.4-0.7-0.3-1.5-0.2-2.2 0-0.9 0.2-1.9 0.5-2.7 1-0.2-0.1-0.5-0.1-0.7-0.2-0.1-0.2-0.1-0.4-0.2-0.6h-2.2c-0.1 0.4-0.2 0.7-0.2 1.1v12.6c0 0.4 0.2 0.7 0.3 1.1h2.2c0.1-0.4 0.3-0.8 0.3-1.2v-9.8c0.3-1.2 1.2-1.6 2.3-1.8h2.1c0.9 0.4 1.7 0.9 2 1.9v2.8 6.9c0 0.5-0.1 1 0.5 1.2 0.7-0.1 1.4-0.1 2.2-0.2v-1.2-8.5c0-1.6 0.9-2.7 2.6-3h2c1.1 0.2 1.6 0.9 1.9 1.9v3 6.8c0 0.5-0.1 1 0.5 1.2h2c0.6-0.2 0.5-0.7 0.5-1.2v-8.4c0-0.4-0.1-0.7-0.2-1.1l-0.3-1.2c-0.4-1.4-1.2-2.5-2.6-3-0.3-0.1-0.6-0.2-0.9-0.3-0.8-0.3-1.6-0.3-2.4 0-1.2 0.2-2.3 0.7-3.2 1.6-0.3 0.2-0.5 0.2-0.8 0.2zm-42.2-86.1c-0.1 0-0.1 0-0.2 0.1l-0.3-0.3c-0.9-1.3-1.8-2.6-2.7-4-1.8-2.6-3.5-5.3-5.3-7.9-0.4-0.6-0.8-0.9-1.5-0.8h-0.7c-0.4 0-0.6 0.2-0.7 0.6v0.6 14.8c0 0.4 0.1 0.7 0.1 1.1 0.8 0.1 1.4 0.2 2.2-0.1 0-0.4 0.1-0.8 0.1-1.2v-10.4c0-0.3-0.1-0.7 0.2-1.1 0.2 0.3 0.3 0.4 0.4 0.6 1.1 1.7 2.2 3.3 3.4 5 1.5 2.2 3 4.4 4.5 6.6 0.2 0.3 0.5 0.6 0.8 0.7 0.6 0.1 1.2 0 1.9 0 0-0.5 0.1-0.9 0.1-1.2v-14.7-0.7c0-0.4-0.2-0.5-0.6-0.6-1.3-0.2-1.7 0-1.7 1.4v10.4 1.1zm35 4.2h1.9c0-0.5 0.1-0.9 0.1-1.2v-15.6-0.8c0-0.1-0.1-0.4-0.2-0.4-0.6 0-1.2-0.1-1.8 0-0.5 0.1-0.3 0.7-0.3 1v4.3c0 0.3-0.1 0.5-0.1 0.9-0.3-0.2-0.5-0.3-0.6-0.4-2.8-1.7-6.1-0.7-7.3 2.3-1 2.3-1 4.8 0 7.1 1.3 3.2 4.8 4.1 7.6 2.1 0.1-0.1 0.3-0.2 0.5-0.3 0 0.4 0.1 0.7 0.2 1zm96.9 0c0-0.5 0.1-1 0.1-1.4v-15.3-0.9c0-0.2-0.1-0.4-0.2-0.4-0.5-0.1-1.1-0.1-1.7-0.1-0.4 0.1-0.3 0.5-0.3 0.8v4.7c0 0.2-0.1 0.5-0.1 0.8-0.3-0.2-0.4-0.3-0.6-0.4-2.2-1.5-6-1.3-7.5 2-1.1 2.5-1.1 5.1 0.1 7.7s4.4 3.6 7.2 2c0.3-0.1 0.5-0.3 0.8-0.5 0.1 0.4 0.3 0.7 0.4 1h1.8zm-62.2-7.7h-2.2c-1.2 0-2.5 0.2-3.6 0.8-1.6 0.8-2.3 2.1-2.1 4 0.1 1.4 1.2 2.6 2.7 3 1.6 0.5 3.1 0.3 4.5-0.6 0.3-0.2 0.5-0.3 0.8-0.5 0.3 0.5 0.2 1.1 0.9 1.1h1.8c-0.1-1.3-0.2-2.5-0.2-3.7v-4.5c0-0.4 0-0.8-0.1-1.2-0.2-2.2-2.2-3.5-3.7-3.6-0.8-0.1-1.6-0.1-2.4 0-1.4 0.2-2.7 0.8-3.5 2.1-0.3 0.4-0.6 0.9-0.3 1.6h1.4c0.2 0 0.5-0.2 0.6-0.4 0.6-1.2 1.6-1.5 2.7-1.5 2.1-0.1 3.1 1.2 2.7 3.4zm-18.8 7.7c-0.7-1.9-0.5-3.7-0.5-5.5v-2.8c0-0.5-0.1-1-0.1-1.5-0.3-1.3-1-2.3-2.3-2.8-1.9-0.7-3.8-0.7-5.6 0.4-0.6 0.3-1 0.8-1.5 1.3-0.3 0.4-0.6 0.9-0.3 1.6h1.5c0.2 0 0.4-0.2 0.5-0.4 0.9-1.3 2.2-1.8 3.7-1.4s2.2 1.7 1.6 3.3h-2.2c-1.1 0-2.2 0.2-3.2 0.6-1.4 0.6-2.3 1.6-2.5 3.1-0.3 1.8 1.1 3.4 2.4 3.9 1.7 0.6 3.3 0.5 4.9-0.5 0.2-0.2 0.5-0.3 0.8-0.5 0.1 1.2 0.9 1.3 1.8 1.2 0.3 0.1 0.5 0.1 1 0zm67.9-5.6c0.1-1.6 0.1-3.2-0.6-4.6s-1.8-2.3-3.3-2.6c-3.2-0.6-5.5 0.9-6.6 3.6-0.5 1.2-0.6 2.5-0.5 3.8 0.1 2.4 1.1 4.4 3.5 5.3 2.4 1 4.8 0.6 6.8-1.2 0.2-0.2 0.4-0.5 0.6-0.9-0.5-0.3-1-0.6-1.4-0.9-1.7 1.6-3.6 2-5.5 0.9-1.2-0.6-1.7-1.8-1.7-3.3 0.5 0 0.9-0.1 1.3-0.1h6.3c0.3 0.1 0.7 0 1.1 0zm-101.4-1c-0.1-0.4-0.1-1.2-0.3-1.9-0.5-2.2-1.8-3.8-4.1-4.3-0.7-0.2-1.4-0.2-2.1-0.2-2.3 0.1-4 1.2-4.9 3.3s-0.9 4.3 0 6.4c1.8 4.5 7.9 4.3 10 1.3 1-1.1 1.4-2.6 1.4-4.6zm74.7 6.6c0-0.5 0.1-0.9 0.1-1.3v-10c0-1.4 0.2-1.5-1.6-1.4h-0.1c-0.4 0-0.6 0.2-0.6 0.6v0.8 7c0 1.3-0.6 2.1-1.8 2.4-0.6 0.2-1.2 0.2-1.9 0.2-1 0-1.7-0.5-2-1.5-0.1-0.4-0.2-0.9-0.2-1.4v-5.6-1.8c0-0.2-0.1-0.6-0.2-0.6-0.5-0.1-1.1-0.2-1.7-0.1-0.4 0.1-0.3 0.6-0.3 0.9v5.4 2.7c0.2 2.5 1.7 3.9 4.2 3.9 1.2 0 2.3-0.2 3.3-0.9 0.1-0.1 0.3-0.1 0.4-0.2 0.2 0.3 0.3 0.6 0.4 0.8 0.7 0.1 1.3 0.1 2 0.1zm13.1-8.9c-0.1-0.5-0.1-0.9-0.2-1.2-0.3-1.2-1.1-2-2.2-2.4-1.9-0.7-3.9-0.7-5.7 0.3-1.2 0.7-1.8 1.7-1.7 3.2 0.1 1.4 0.9 2.1 2 2.6 0.9 0.4 1.9 0.6 2.8 0.9 0.7 0.2 1.4 0.5 2.1 0.7 0.6 0.2 0.8 0.8 0.8 1.4s-0.3 1.1-0.9 1.3c-0.7 0.4-1.5 0.4-2.3 0.4-1.2 0-2.1-0.5-2.6-1.7-0.1-0.2-0.4-0.5-0.6-0.5-0.5-0.1-1.1 0-1.7 0 0.1 1.5 0.7 2.5 1.8 3.2 2.1 1.2 4.3 1.3 6.5 0.4 1.4-0.6 2.1-1.7 2.1-3.2s-0.8-2.5-2.2-3.1c-0.9-0.4-1.9-0.6-2.9-0.9-0.6-0.2-1.2-0.3-1.7-0.5-0.6-0.2-1-0.6-0.9-1.3 0-0.6 0.3-1.1 0.8-1.4 1.8-1 3.9-0.1 4.4 1.2 0.1 0.4 0.4 0.6 0.8 0.6h1.5zm-50.5-1.9c0 0.5 0.1 0.9 0.1 1.3v6.8c0 2 1.1 3 3.2 3 1.4 0 1.6-0.3 1.4-1.7 0-0.1-0.1-0.1-0.2-0.2-0.3 0-0.6 0-0.9-0.1-0.7-0.1-1.1-0.4-1.2-1.1v-0.5-6.8c0-0.3 0.1-0.5 0.1-0.8 0.8-0.1 1.4-0.1 2.1-0.2 0.4-1.6 0.3-1.7-1.2-1.8h-0.1c-0.8 0-0.9-0.1-0.9-0.9v-2.2h-1.6c-0.4 0-0.6 0.2-0.6 0.6v1.7c0 0.6-0.1 0.7-0.8 0.8h-0.5c-1 0-1.1 0.2-1.1 1.1 0 0.2 0.1 0.4 0.2 0.7 0.6 0.2 1.2 0.2 2 0.3zm39.3 88.9c0.9 0 1.5-0.5 1.6-1.4 0.1-0.7-0.6-1.4-1.4-1.5-0.9-0.1-1.7 0.6-1.7 1.4s0.6 1.4 1.5 1.5zm-37.7-1.5c0 1 0.4 1.5 1.1 1.5 1.2 0 1.8-0.6 1.8-1.5s-0.6-1.5-1.5-1.4c-1 0-1.4 0.4-1.4 1.4zm60.6 36.1c-0.8 0-1.4 0.5-1.4 1.2s0.6 1.2 1.3 1.2c0.9 0 1.4-0.5 1.4-1.2s-0.5-1.2-1.3-1.2zm-31.8 0c-0.9 0-1.2 0.3-1.3 1.1 0 0.8 0.4 1.2 1.2 1.3 0.8 0 1.4-0.5 1.4-1.2 0-0.8-0.4-1.1-1.3-1.2z"/>
		<path class="st1" d="m0.2 58.2h1.5 608.3 1.5c0.4 0 0.7 0.2 0.7 0.7v0.8c0 0.4-0.3 0.7-0.7 0.7h-0.6-2.2-608.5v-2.2z"/>
		<path class="st1" d="m612.2 188.3v1.4c0 0.6-0.2 0.7-0.8 0.8h-1.2-131.5-478.4v-2.2h0.9 610 1z"/>
		<path class="st2" d="m612.2 188.3h-1.1-610-0.9v-0.2h610.6c0.4 0 0.9 0.1 1.4 0.2z"/>
		<path class="st2" d="m4.4 153.8l-4.2 4.2v-21.8c0.9 0.9 1.8 1.7 2.7 2.6 0.4-0.3 0.2-0.6 0.3-0.9 0.1-0.5 0.1-1 0.2-1.4v16.4c0 0.8 0 0.8 1 0.9z"/>
		<path class="st0" d="m3.6 244.7c-0.8 0.8-1.6 1.6-2.4 2.3-0.3 0.3-0.6 0.6-1 0.9v-20.2c0.8 0.8 1.6 1.6 2.4 2.3 0.3 0.3 0.6 0.6 1 0.9v1.1 9.4 3.3z"/>
		<path class="st2" d="m0.2 99.4c0.8 0.8 1.7 1.6 2.5 2.4 0.4 0.3 0.7 0.7 1.1 1v6.3 6.2c-0.8 0.8-1.7 1.6-2.5 2.4-0.4 0.3-0.7 0.7-1.1 1v-19.3z"/>
		<path d="m3.6 244.7v-3.3-9.4-1.1-2.5h2.7c1 1.5 2.1 3 3.1 4.5 1.3 1.9 2.4 3.8 3.7 5.7 0.9 1.4 1.9 2.7 2.9 4.1 0.1 0.2 0.3 0.4 0.4 0.6 0.1 0 0.1 0 0.2-0.1v-1.1-12.7c0-0.4 0-0.8 0.1-1.2h2.6v19.8h-2.8c-0.8-1.3-1.6-2.5-2.5-3.8-1.3-2-2.6-3.9-4-5.8-0.5-1.2-3-4.8-3.7-5.3v1.1 12.6 1.2c-0.9 0-1.7 0-2.6-0.1-0.1-1-0.1-2.1-0.1-3.2z"/>
		<path d="m60.3 106c-1.6 0.3-2.5 1.4-2.6 3v8.5 1.2c-0.8 0.1-1.5 0.1-2.2 0.2-0.4-0.3-0.3-0.7-0.3-1.1v-8.5c0-0.5-0.1-0.9-0.2-1.4-0.3-1-1.1-1.5-2-1.9-0.7-0.3-1.4-0.3-2.1 0-1.1 0.2-2 0.6-2.3 1.8 0 0.4-0.1 0.7-0.1 1.1v8.8c0 0.4-0.1 0.8-0.2 1.2h-2.2c0-0.4-0.1-0.8-0.1-1.2v-11.1-2.6h2.2c0.1 0.2 0.1 0.4 0.2 0.6v1c0.3-0.4 0.5-0.6 0.7-0.8 0.8-0.6 1.7-0.8 2.7-1h2.2c0.4 0.1 0.9 0.2 1.2 0.4 0.6 0.4 1.1 0.8 1.6 1.2 0.1 0.2 0.2 0.4 0.4 0.6 0.2-0.3 0.3-0.4 0.4-0.6 0.9-0.9 2-1.4 3.2-1.6h2.4c0.3 0.1 0.6 0.2 0.9 0.3 1.5 0.5 2.3 1.5 2.6 3l0.3 1.2v1 8.5c0 0.4 0.1 0.8-0.3 1.1h-2c-0.4-0.3-0.3-0.7-0.3-1.1v-8.5c0-0.5-0.1-0.9-0.2-1.4-0.3-1-0.8-1.7-1.9-1.9-0.6-0.3-1.3-0.2-2 0z"/>
		<path class="st3" d="m14.6 19.3v-1.1-10.4c0-1.4 0.3-1.7 1.7-1.4 0.3 0.1 0.5 0.2 0.6 0.6v0.7 14.7c0 0.4 0 0.7-0.1 1.2-0.7 0-1.3 0.1-1.9 0-0.3 0-0.6-0.4-0.8-0.7-1.5-2.2-3-4.4-4.5-6.6-1.1-1.7-2.2-3.3-3.4-5-0.1-0.2-0.2-0.3-0.4-0.5-0.3 0.4-0.2 0.7-0.2 1.1v10.4c0 0.4 0 0.8-0.1 1.2-0.7 0.3-1.4 0.1-2.2 0.1 0-0.4-0.1-0.8-0.1-1.1v-14.8-0.6c0-0.4 0.2-0.6 0.6-0.6h0.7c0.7-0.1 1.2 0.2 1.6 0.8 1.7 2.7 3.5 5.3 5.3 7.9 0.9 1.3 1.8 2.6 2.7 4l0.3 0.3c0-0.2 0.1-0.2 0.2-0.2z"/>
		<path class="st3" d="m4.4 153.8c-1-0.1-1-0.1-1-1v-16.4h1.5c0.5 0 0.9 0.2 1.2 0.6 2.1 3.2 4.2 6.4 6.3 9.6 0.5 0.7 1 1.4 1.6 2.1 0.1 0.2 0.3 0.5 0.4 0.7 0.2-0.2 0.2-0.4 0.2-0.5v-12.2c0.7-0.1 1.5-0.1 2.2-0.2v0.6 15.8c0 0.3-0.1 0.7-0.1 1-0.5 0-0.9-0.1-1.4 0-0.5 0-0.9-0.2-1.2-0.7-1.2-1.8-2.3-3.5-3.5-5.3-1.4-2.4-3.1-4.7-4.8-7-0.1 0.4-0.2 0.7-0.2 1.1v10.5c0 0.5-0.1 0.9-0.1 1.4-0.4-0.1-0.7-0.1-1.1-0.1z"/>
		<path class="st4" d="m3.8 115.2v-6.2-6.3-3.8c0.4 0.1 0.8 0.1 1.2 0.1h7.6c0.8 0.2 1.7 0.4 2.5 0.8 1.4 0.7 2.4 1.8 2.9 3.3 0.1 0.2 0.1 0.4 0.2 0.6v2.8c-0.7 2.6-2.5 3.9-5 4.4-0.6 0.1-1.1 0.1-1.7 0.2h-4.5c-0.6-0.1-0.6 0.3-0.6 0.7v6c0 0.4-0.1 0.8-0.2 1.2-0.8 0-1.6-0.1-2.4-0.1v-3.7zm2.7-6.4h5.5c0.3 0 0.7-0.1 1-0.2 1.6-0.4 2.5-1.3 2.7-3 0.2-1.8-0.4-3.4-1.8-4.1-0.7-0.3-1.6-0.5-2.4-0.6-1.3-0.1-2.5 0-3.8 0h-1.1c-0.1 2.8-0.1 5.3-0.1 7.9z"/>
		<path class="st3" d="m95 153.4c-0.3 0.1-0.6 0.3-0.9 0.3-0.4 0.1-0.9 0-1.3 0.1 0-0.4-0.1-0.9-0.1-1.3v-6.8c0-0.5-0.1-0.9-0.2-1.4-0.2-0.9-0.8-1.5-1.7-1.6-0.5-0.1-0.9-0.2-1.4-0.2-1.5 0.1-2.6 1.1-2.6 2.6v7.1c0 1.4-0.1 1.5-1.5 1.4-0.3 0-0.6-0.2-0.9-0.3v-8.3c0-0.3-0.1-0.6-0.2-1-0.5-1.1-1.4-1.6-2.6-1.6-1.3 0-2.3 0.3-2.8 1.6-0.1 0.4-0.2 0.8-0.2 1.3v7.1c0 0.4-0.1 0.9-0.1 1.3-0.7-0.1-1.4-0.1-2.1-0.2v-12.6c0.6-0.4 1.3-0.2 2-0.1 0.1 0.3 0.2 0.6 0.4 0.9 3.4-2 5.5-1.4 7.5 0.5 0.6-0.4 1.2-0.9 1.9-1.2 1.5-0.7 3-0.6 4.4-0.1 0.9 0.4 1.6 1.1 1.9 2.1 0.2 0.6 0.3 1.3 0.4 1.9 0.1 2.9 0.1 5.7 0.1 8.5z"/>
		<path class="st3" d="m193.7 153.8c-0.1 0.6-0.2 1.1-0.4 1.7-0.6 2-2.1 3-4 3.3s-3.7-0.1-5.3-1.2c-0.3-0.2-0.6-0.6-1-0.9 0.3-0.3 0.4-0.5 0.6-0.7 0.6-0.6 0.7-0.6 1.3-0.1 1 0.8 2 1.1 3.2 1 1.6-0.1 2.6-0.9 3-2.4 0-0.5 0.1-1 0.1-1.4 0-0.1-0.2-0.1-0.3-0.2-0.9 0.7-2 1.1-3.1 1.2-2.2 0.1-3.9-1.1-4.7-3-0.3-0.6-0.4-1.3-0.6-2v-3.4c0.2-0.7 0.3-1.4 0.6-2.1 1.1-3.1 4.9-3.6 7.2-2.2 0.3 0.1 0.5 0.3 0.8 0.5 0.2-0.3 0.3-0.6 0.4-0.9 0.7 0 1.4-0.2 2 0.1 0.2 4.2 0.2 8.5 0.2 12.7zm-2.3-6.5v-2.1c0.1-0.9-0.4-1.5-1.1-2-1.7-1.2-4.2-0.6-5 1.3-0.8 1.8-0.8 3.7-0.1 5.5 0.8 1.9 2.9 2.7 4.7 1.6 0.9-0.5 1.5-1.2 1.4-2.3 0.1-0.7 0.1-1.3 0.1-2z"/>
		<path d="m88.4 247.1c-0.9-0.8-1.3-1.9-1.3-3 0-0.8 0.2-1.7 0.7-2.5s1.2-1.4 2-1.6c0.8-0.3 1.7-0.5 2.6-0.7 1.3-0.1 2.7-0.1 4-0.2 0.3-0.6 0.2-1.2 0-1.9-0.3-0.9-1-1.4-1.7-1.8-0.3-0.1-0.6-0.1-0.9-0.2-0.8-0.2-1.6 0.2-2.4 0.4s-1.4 0.9-1.5 1.8c-0.8 0-1.6 0-2.4 0.1-0.5-0.7 0.1-1.3 0.3-1.8 0.7-1.2 1.8-2 3.2-2.3 1.7-0.4 3.4-0.4 5 0.1 1.3 0.4 2.1 1.4 2.6 2.6 0.1 0.2 0.2 0.5 0.3 0.7v7.5c0 0.5 0.1 0.9 0.1 1.4 0.1 0.8 0.3 1.5 0.4 2.3-0.9 0-1.7 0-2.6 0.1-0.2-0.4-0.3-0.8-0.6-1.3-1.3 0.8-2.6 1.8-4.3 1.6-0.5-0.1-1-0.1-1.5-0.2-0.5-0.2-1-0.4-1.4-0.6-0.1-0.1-0.3-0.3-0.6-0.5zm8.2-6c-1.3-0.3-3.7-0.2-4.7 0.2-0.3 0.1-0.6 0.2-0.9 0.4-0.8 0.5-1.2 1.2-1.1 2.2 0 0.9 0.4 1.6 1.2 2 1.8 0.9 4 0.3 5.4-1.5 0.1-0.1 0.2-0.3 0.2-0.5-0.1-0.9-0.1-1.9-0.1-2.8z"/>
		<path d="m28.2 103.8c0.9 0.3 1.8 0.5 2.5 1.1 1.3 1 2 2.4 2.3 4 0.1 0.3 0.1 0.6 0.2 1 0 0.8-0.1 1.6-0.1 2.4-0.1 0-0.3-0.1-0.4-0.1h-9.2-0.4c-0.3 1.4 0.7 3.4 2.2 4.2 0.7 0.3 1.4 0.6 2.2 0.6 0.7 0 1.4-0.2 2.1-0.6 0.7-0.3 1.2-0.9 1.9-1.4 0.4 0.3 1 0.7 1.5 1.2-1.2 1.7-2.7 2.7-4.8 2.8h-1.8c-1.2-0.2-2.4-0.5-3.4-1.3-1.5-1.1-2.2-2.7-2.4-4.5v-3.4c0.2-2 1.1-3.5 2.5-4.8 0.8-0.7 1.9-1 2.9-1.3 0.7 0.1 1.5 0.1 2.2 0.1zm2.6 6.2c-0.2-0.8-0.4-1.6-0.6-2.3-0.3-0.7-0.8-1.2-1.5-1.5-2.7-1.1-5.4 0.7-5.5 3.8h7.6z"/>
		<path d="m29.9 248.5h-0.4c-0.5-0.1-1-0.1-1.5-0.2-1.7-0.3-3-1.2-3.9-2.7-0.4-0.8-0.8-1.6-1.1-2.4-0.1-0.3-0.2-0.7-0.2-1.1v-2.6c0.4-3.9 3.5-7 7.9-6.3 3.1 0.5 4.8 2.3 5.5 5.3 0 0.1 0.1 0.2 0.2 0.3v3.6c-0.3 0.8-0.5 1.7-0.9 2.5-0.7 1.6-2.1 2.5-3.7 3.1-0.2 0.1-0.4 0.2-0.7 0.2-0.3 0.1-0.8 0.2-1.2 0.3zm4.1-7.8c-0.1-1.3-0.3-2.5-0.9-3.6-0.8-1.4-2-2-3.7-2-1.6 0.1-2.7 0.9-3.3 2.2-0.9 2.1-1 4.3-0.1 6.4 0.7 1.7 2 2.5 3.9 2.4 1.6-0.1 2.9-1 3.5-2.6 0.3-0.8 0.4-1.8 0.6-2.8z"/>
		<path d="m123.8 248.3c-1.8-0.3-3.1-1.2-4-2.8-0.6-1.1-1.1-2.2-1.2-3.4v-2.6c0.4-4.2 3.4-6.8 7.9-6.3 3.2 0.4 5.2 3.1 5.5 5.9 0 0.2 0.1 0.3 0.2 0.4v2.6c-0.1 0.2-0.2 0.4-0.2 0.6-0.2 1.6-0.9 2.9-2 4-0.8 0.8-1.9 1.3-3 1.6-0.5 0.1-1 0.1-1.5 0.2h-0.4c-0.4-0.1-0.8-0.2-1.3-0.2zm-2.7-7.6c0.1 0.5 0.1 0.9 0.2 1.3 0.1 1.3 0.7 2.4 1.7 3.3 1.5 1.4 4.9 1.4 6.1-1.2 1-2.1 1-4.3 0.1-6.5-0.4-0.9-0.9-1.6-1.9-2-2.3-1-4.7-0.2-5.7 2.4-0.3 0.9-0.4 1.8-0.5 2.7z"/>
		<path d="m121.2 103.8c0.5 0.2 1.1 0.3 1.6 0.5 2 0.9 3.2 2.5 3.8 4.5 0.1 0.3 0.2 0.6 0.2 0.8v3.6c-0.3 0.8-0.5 1.7-0.9 2.5-1 1.6-2.2 2.9-4.2 3.1-0.2 0-0.4 0.1-0.7 0.2h-1.8c-3.4-0.4-4.8-2.3-5.8-5.2-0.1-0.2 0-0.4 0-0.6v-3.6c0.3-1.9 1.1-3.6 2.7-4.8 0.9-0.6 1.9-0.9 2.9-1.1 0.8 0.1 1.5 0.1 2.2 0.1zm3.2 7.6c0-1.3-0.2-2.5-0.9-3.6-0.8-1.4-2.1-2-3.7-1.9-1.5 0.1-2.7 0.9-3.3 2.2-1 2.1-1.1 4.3-0.1 6.5 0.7 1.5 2 2.4 3.7 2.4s3-0.8 3.7-2.4c0.5-1.1 0.6-2.1 0.6-3.2z"/>
		<path class="st3" d="m49.6 23.5c-0.1-0.3-0.2-0.6-0.3-1-0.2 0.1-0.3 0.2-0.5 0.3-2.8 2-6.3 1.1-7.6-2.1-1-2.3-1-4.8 0-7.1 1.2-3 4.5-4 7.3-2.3 0.2 0.1 0.3 0.2 0.6 0.4 0-0.4 0.1-0.6 0.1-0.9v-4.3c0-0.4-0.2-0.9 0.3-1 0.6-0.1 1.2 0 1.8 0 0.1 0 0.2 0.3 0.2 0.4v0.8 15.6c0 0.4 0 0.8-0.1 1.2h-1.8zm-0.4-6.3v-2.5c0-0.5-0.2-0.9-0.5-1.2-1.5-1.7-4.7-1.3-5.5 0.9-0.6 1.6-0.7 3.3-0.2 5 0.6 2.3 2.4 2.8 4.3 2.4 1.2-0.3 1.9-1.3 1.9-2.5v-2.1z"/>
		<path d="m96.8 106c-0.3 0.1-0.7 0.1-1 0.3-0.6 0.4-1 1-0.9 1.7 0.1 0.8 0.6 1.3 1.3 1.5 1 0.3 2 0.5 3 0.9s2.1 0.7 3 1.2c2.2 1.2 2 4.4 0.4 5.9-1 0.9-2.2 1.3-3.5 1.5h-2c-1.3-0.1-2.5-0.5-3.5-1.3s-1.8-1.9-1.7-3.3c0-0.1 0.1-0.2 0.1-0.2 0.8 0 1.6 0 2.4 0.1 0 1.2 0.7 2 1.8 2.4 1.3 0.5 2.6 0.5 3.8-0.2 0.8-0.5 1.2-1.1 1.1-2s-0.9-1.3-1.6-1.6c-0.8-0.3-1.7-0.5-2.5-0.7-1.2-0.3-2.3-0.6-3.3-1.3-0.7-0.5-1.1-1.2-1.3-2v-1.6c0.4-1.7 1.5-2.7 3.2-3.2 0.4-0.1 0.8-0.2 1.3-0.3h2.4c0.8 0.3 1.6 0.5 2.3 0.9 1.3 0.7 2 1.9 2.1 3.5-0.9 0.2-1.8 0.1-2.7 0.1-0.2-1.3-1-1.9-2.1-2.3-0.7-0.3-1.4-0.2-2.1 0z"/>
		<path d="m82.4 119c-1.8-0.1-3.3-0.8-4.5-2.2-0.6-0.7-0.7-1.5-0.9-2.3 0-0.1 0.1-0.2 0.2-0.3 0.8 0 1.6 0 2.4 0.1 0.2 2.7 4.3 3.6 6.3 1.8 0.8-0.7 1-2.1-0.5-2.8-1-0.4-2-0.7-3-1-1.1-0.3-2.2-0.5-3.2-1.2-1-0.8-1.6-1.6-1.6-2.9 0-1.9 1.1-3.3 2.9-3.9 0.5-0.1 1-0.3 1.4-0.4h2.4c0.5 0.1 1 0.3 1.5 0.5 1.8 0.6 2.9 2.1 2.9 4.1h-1.2-1.2c-0.1-1.4-1.1-1.9-2.2-2.3-0.7-0.3-1.3-0.3-2 0-0.8 0-1.3 0.6-1.8 1.2-0.3 0.5-0.3 1 0 1.5 0 0.5 0.5 0.6 0.8 0.8 0.8 0.3 1.6 0.5 2.4 0.8 1 0.3 2 0.5 2.9 0.9 1.2 0.5 2.1 1.4 2.5 2.7v1.6c-0.7 2.4-2.5 3.3-4.8 3.6-0.5-0.3-1.1-0.3-1.7-0.3z"/>
		<path d="m150.2 106c-0.7 0.1-1.4 0.3-1.6 1.2-0.3 0.5-0.3 1 0 1.5 0.1 0.6 0.6 0.8 1 0.9 1 0.3 2 0.6 2.9 0.8 1.1 0.3 2.1 0.7 3 1.2 2.1 1.3 2 4.4 0.3 5.9-1 0.9-2.2 1.4-3.5 1.5h-2c-1.3 0-2.5-0.5-3.4-1.3-1.1-0.8-1.8-1.9-1.7-3.3 0-0.1 0.1-0.2 0.1-0.2 0.8 0 1.6 0 2.4 0.1v-0.1c0.1 0.4 0.3 0.7 0.4 1.1 0.1 0.6 0.6 0.9 1.1 1.2 1.4 0.8 4 0.7 5.1-0.9 0.4-0.5 0.3-1 0-1.6-0.7-1.1-2-1.2-3.1-1.6-1.4-0.4-3-0.6-4.2-1.6-0.7-0.5-1.1-1.2-1.3-2v-1.6c0.4-1.8 1.6-2.7 3.3-3.2l1.2-0.3h2.4c0.9 0.3 1.9 0.5 2.7 1.1 1 0.9 1.7 1.9 1.7 3.4h-2.4c-0.4-1.1-1-2-2.3-2.3-0.7-0.2-1.4-0.1-2.1 0.1z"/>
		<path d="m162.5 244.9c-0.1 0.4-0.3 0.8-0.4 1.2-0.5 0.5-0.9 1-1.4 1.4-0.7 0.3-1.3 0.6-2 0.8-0.6 0.1-1.1 0.1-1.7 0.2h-0.4c-0.5-0.1-1-0.1-1.5-0.2-0.9-0.2-1.8-0.5-2.6-1-1-0.7-1.5-1.7-1.8-2.8 0-0.3 0-0.6 0.1-0.9 0.5 0 1 0.1 1.5 0 0.7-0.1 1 0.2 1.3 0.8 0.3 1.1 1.1 1.6 2.1 1.7 0.8 0.3 1.6 0.3 2.4 0 0.4-0.2 0.7-0.3 1.1-0.5l0.8-0.8c0.2-1.5 0.1-2.1-1.8-2.7-0.7-0.2-1.5-0.2-2.2-0.5-1.1-0.5-2.4-0.7-3.4-1.4-0.8-0.6-1.3-1.4-1.3-2.5-0.1-2 0.8-3.3 2.6-4 2.4-1 4.8-0.9 7 0.6 1 0.7 1.5 1.6 1.6 2.7 0 0.2 0.1 0.4 0.2 0.6-0.9 0-1.7 0.1-2.6 0.1-0.2-0.6-0.3-1.2-0.9-1.6-0.7-0.6-2.2-1-3.2-0.7-0.2 0-0.3 0.1-0.5 0.1-0.8 0.1-1.5 0.8-1.6 1.6-0.1 0.7 0.3 1.5 1 1.7 1.1 0.4 2.3 0.7 3.5 1.1 0.5 0.2 1.1 0.3 1.6 0.5 1.3 0.5 2.2 1.4 2.7 2.7-0.2 0.6-0.2 1.2-0.2 1.8z"/>
		<path class="st3" d="m264 153.8h-0.8c-1.1 0-1.1 0-1.5-1-0.8 0.4-1.6 0.8-2.4 1.1-1.6 0.6-4.1-0.3-5.1-1.9-0.7-1.1-1.1-2.3-1.2-3.5v-2.4c0.1-1.7 0.7-3.2 2-4.3 1.5-1.3 4-1.5 5.8-0.4 0.3 0.2 0.6 0.3 0.8 0.5 0.1-0.3 0.2-0.6 0.2-0.9v-5.5h2.2v0.4 17.1c0.1 0.3 0 0.6 0 0.8zm-2.1-6.6v-2c0.1-0.9-0.3-1.5-1-2-1.6-1.3-4.3-0.7-5.1 1.2-0.8 1.8-0.8 3.7-0.1 5.5 0.7 1.9 3 2.6 4.7 1.6 0.9-0.5 1.5-1.2 1.4-2.3 0-0.6 0.1-1.3 0.1-2z"/>
		<path class="st3" d="m52.2 147.1v0.5c-0.1 0.5-0.1 1-0.2 1.4-0.4 1.4-0.7 2.8-1.9 3.7-1.3 1.1-2.7 1.5-4.3 1.1-0.7-0.2-1.4-0.5-2.1-0.8-0.1-0.1-0.2-0.2-0.5-0.4v6c-0.8 0.2-1.5 0.5-2.2-0.2v-6.5-10.9c0.6-0.3 1.2-0.2 1.9-0.1 0.1 0.3 0.2 0.6 0.3 1 0.6-0.3 1-0.6 1.6-0.8 2.4-1.1 6.1-0.5 7.1 3.5 0.1 0.3 0.2 0.6 0.2 0.9 0 0.5 0 1 0.1 1.6zm-9 0.2v2.5c0 0.5 0.2 1 0.6 1.3 1.2 1.2 4.1 1.7 5.4-0.8 0.8-1.5 0.9-3.1 0.5-4.7-0.5-2.1-1.7-3.2-3.8-3-1.7 0.2-2.6 1.1-2.6 2.8-0.1 0.7-0.1 1.3-0.1 1.9z"/>
		<path class="st3" d="m146.5 23.5h-1.8c-0.1-0.4-0.3-0.6-0.4-1-0.3 0.2-0.5 0.4-0.8 0.5-2.8 1.6-6 0.6-7.2-2-1.2-2.5-1.2-5.1-0.1-7.7 1.4-3.2 5.3-3.5 7.5-2 0.2 0.1 0.3 0.2 0.6 0.4 0-0.3 0.1-0.6 0.1-0.8v-4.7c0-0.3-0.1-0.8 0.3-0.8 0.5-0.1 1.1 0 1.7 0.1 0.1 0 0.2 0.3 0.2 0.4v0.9 15.3c0 0.5 0 0.9-0.1 1.4zm-2.1-6.4v-2.3c0-0.5-0.2-1-0.5-1.3-1.6-1.8-4.5-1.4-5.5 0.8-0.8 1.7-0.8 3.6-0.2 5.4 0.7 2.1 3.1 2.9 5 1.7 0.8-0.5 1.3-1.2 1.2-2.1v-2.2z"/>
		<path d="m133 105.4c0.8-0.9 1.9-1.3 3-1.6h2.4c0.2 0.1 0.3 0.1 0.5 0.2 1.9 0.5 2.7 1.9 2.9 3.7 0.1 1.3 0.2 2.5 0.2 3.8v6.1 1.1c-0.9 0.2-1.7 0.2-2.6 0v-9.9c0-0.3-0.1-0.6-0.2-1-0.3-0.9-0.9-1.5-1.8-1.7-0.7-0.3-1.4-0.3-2.1 0-1.2 0.2-1.9 1-2.4 1.9-0.1 0.4-0.2 0.8-0.2 1.1v8.6c0 0.4 0.1 0.8-0.3 1.1h-2.2c0-0.4-0.1-0.8-0.1-1.2v-9.2-4.5h2.4c0 0.4 0.1 0.9 0.1 1.3 0.2 0.2 0.3 0.2 0.4 0.2z"/>
		<path d="m138.8 234.3c1.6-1.2 3.4-1.4 5.4-1 1.5 0.4 2.4 1.5 2.8 2.9 0.1 0.3 0.2 0.6 0.2 0.9v0.6 10.4h-2.4v-1.1-8.2c0-0.4-0.1-0.8-0.1-1.2-0.2-2.6-3.8-2.9-5.2-1.6-0.3 0.3-0.6 0.6-0.8 0.9-0.1 0.2-0.2 0.4-0.4 0.6 0 0.3-0.1 0.6-0.1 1v2.9 6.8c-0.9 0-1.7 0-2.6-0.1v-14.5h2.6v0.2 1.2c0.1 0 0.1 0 0.2 0.1 0-0.3 0.2-0.6 0.4-0.8z"/>
		<path d="m75.8 236.7c-0.7 0.6-1 1.5-1 2.4-0.3 1.1-0.3 2.2 0 3.4 0 1.9 1.2 3.4 2.9 3.7 0.7 0.3 1.4 0.3 2.1 0 1.2-0.3 2-1 2.4-2.2 0.2-0.1 0.3-0.4 0.5-0.4h2c0 0.4 0 0.7-0.1 1-0.7 1.5-1.7 2.7-3.2 3.4-0.4 0.2-0.8 0.3-1.2 0.4s-0.9 0.1-1.3 0.2h-0.4c-0.4-0.1-0.9-0.1-1.3-0.2-0.9-0.1-1.7-0.5-2.5-1l-1.1-1.1c-0.7-1-1.3-2.2-1.4-3.5v-3.8c0.1-1.5 0.8-2.8 1.7-4 0.5-0.7 1.3-1 2.1-1.3 2.3-0.8 4.5-0.8 6.5 0.6 0.9 0.6 1.5 1.5 1.9 2.5 0.1 0.2 0.2 0.4 0.2 0.5 0 0.4-0.1 0.8-0.1 1.2h-0.1-0.1-1.8c-0.1-0.1-0.3-0.2-0.3-0.3-0.3-1.8-1.6-2.6-3.2-2.9-0.9-0.2-1.7 0.1-2.5 0.6-0.2 0.2-0.4 0.5-0.7 0.8z"/>
		<path class="st3" d="m204.6 149.5c0.3-1.8 1.6-2.7 3.2-3.2 0.4-0.1 0.8-0.2 1.3-0.3h1.3c0.8 0 1.5-0.1 2.3-0.2 0.2-0.5 0.2-0.9 0-1.4-0.4-1.2-1.1-1.7-2.3-1.8h-0.9c-1.2 0.1-2.1 0.7-2.4 1.8-0.7 0-1.5 0-2.2-0.1 0.2-1.3 0.8-2.3 2-3 1.7-0.9 3.4-1 5.1-0.5 1.9 0.5 2.9 2 3 4.1v4.8c0 1.3-0.1 2.5 0.4 3.8-0.8 0.3-1.5 0.2-2.1 0.2-0.4 0-0.4-0.4-0.4-0.7-0.1-0.1-0.1-0.3-0.2-0.4-0.2 0.1-0.3 0.2-0.5 0.4-1.1 0.6-2.2 1.1-3.5 1-1.8-0.1-3.6-1-4.1-3.2v-1.3zm6.3-1.9c-0.6 0-1.2 0-1.8 0.1-0.3 0-0.6 0.1-0.9 0.3-0.9 0.4-1.4 1.1-1.3 2 0 0.9 0.6 1.6 1.5 1.9 1.3 0.4 2.5 0 3.6-0.8 1-0.8 0.8-1.9 0.8-2.9 0-0.4-0.2-0.6-0.6-0.6h-1.3z"/>
		<path class="st3" d="m84.3 15.8c0.4-2.2-0.6-3.4-2.7-3.4-1.1 0-2.2 0.3-2.7 1.5-0.1 0.2-0.4 0.4-0.6 0.4-0.5 0.1-1 0-1.4 0-0.3-0.7 0-1.2 0.3-1.6 0.8-1.2 2-1.9 3.5-2.1 0.8-0.1 1.6-0.1 2.4 0 1.6 0.1 3.5 1.4 3.7 3.6 0 0.4 0.1 0.8 0.1 1.2v4.5c0 1.2 0.1 2.4 0.2 3.7h-1.8c-0.7 0-0.5-0.7-0.9-1.1-0.3 0.2-0.5 0.3-0.8 0.5-1.4 0.9-2.9 1.1-4.5 0.6-1.5-0.4-2.6-1.7-2.7-3-0.2-1.8 0.5-3.2 2.1-4 1.1-0.6 2.3-0.7 3.6-0.8h2.2zm0 1.7c-1.3-0.1-2.6-0.1-3.8 0.2-0.3 0.1-0.6 0.2-0.8 0.3-0.8 0.5-1.2 1.2-1 2.2 0.1 0.8 0.8 1.5 1.6 1.6 0.6 0.1 1.3 0.1 2 0 1-0.2 1.9-0.7 2.2-1.7 0.1-0.9 0-1.7-0.2-2.6z"/>
		<path class="st3" d="m56.8 148.7c0.2 1.7 1.1 2.9 2.8 3.2 0.7 0.3 1.4 0.3 2.1 0 0.8-0.4 1.6-0.8 2.5-1.2 0.3 0.2 0.7 0.5 1.1 0.9-1.1 2-3.9 2.9-5.9 2.5-2.9-0.6-4.2-1.9-5-5.1v-2.8c0.5-2.2 1.4-4.1 3.6-5s5.7-0.5 6.9 2.7c0.3 0.8 0.5 1.7 0.7 2.5 0 0.6-0.1 1.1-0.1 1.7-0.5 0-0.9 0.1-1.3 0.1h-6.4-0.8c-0.3-0.1-0.3 0.2-0.2 0.5zm6.4-2.7c0.1-1.1-0.3-2.1-1.2-2.8-1.1-0.8-2.3-0.7-3.4-0.2-1.2 0.6-1.7 1.7-1.8 3 0.9 0.3 5.4 0.3 6.4 0z"/>
		<path class="st3" d="m247.1 151.9c0.4-0.2 0.9-0.3 1.3-0.6 0.4-0.2 0.7-0.5 1.1-0.8 0.4 0.3 0.8 0.6 1.1 0.9-0.4 1.6-3.2 3-5.6 2.6-2.6-0.4-4.6-1.7-5.1-5.2v-2.8c0.4-2.2 1.3-4 3.5-4.9 3.1-1.4 6.4 0.2 7.3 3.4 0.1 0.3 0.2 0.6 0.3 1v2.6h-7.7-0.7c-0.4 0.1-0.4 0.3-0.3 0.6 0.2 1.7 1.1 2.9 2.8 3.2 0.6 0.2 1.3 0.2 2 0zm1.4-5.7c0.3-1.2-0.2-2.4-1.1-3.1-0.9-0.6-2.5-0.6-3.5 0-1 0.7-1.7 2-1.4 3.1h6z"/>
		<path class="st3" d="m65.5 23.5c-0.5 0.1-0.7 0.1-1 0.1-0.9 0.1-1.6 0-1.8-1.2-0.3 0.2-0.6 0.4-0.8 0.5-1.5 1-3.2 1.1-4.9 0.5-1.3-0.5-2.7-2-2.4-3.9 0.2-1.5 1.1-2.5 2.5-3.1 1-0.4 2.1-0.6 3.2-0.6h2.2c0.5-1.6-0.1-2.9-1.6-3.3s-2.8 0.1-3.7 1.4c-0.1 0.2-0.3 0.4-0.5 0.4h-1.5c-0.3-0.7 0-1.2 0.3-1.6 0.4-0.5 0.9-1 1.5-1.3 1.8-1.1 3.7-1.1 5.6-0.4 1.3 0.5 2.1 1.4 2.3 2.8 0.1 0.5 0.1 1 0.1 1.5v2.8c0 1.7-0.2 3.5 0.5 5.4zm-4.5-6.2c-0.9 0.2-1.9 0.3-2.8 0.6-1 0.3-1.4 1.2-1.3 2.1 0.1 1 0.8 1.7 1.8 1.8 0.5 0.1 1.1 0.1 1.6 0 1.1-0.2 2.5-1.2 2.5-2.6-0.1-2 0.1-1.8-1.8-1.9z"/>
		<path class="st3" d="m133.4 17.9c-0.4 0-0.8 0.1-1.2 0.1h-6.3c-0.4 0-0.8 0.1-1.3 0.1 0.1 1.4 0.5 2.6 1.7 3.3 2 1.1 3.9 0.7 5.5-0.9 0.4 0.3 0.9 0.6 1.4 0.9-0.3 0.4-0.4 0.7-0.6 0.9-2 1.8-4.4 2.1-6.8 1.2-2.3-0.9-3.3-2.9-3.5-5.3-0.1-1.3 0-2.6 0.5-3.8 1.1-2.7 3.4-4.2 6.6-3.6 1.5 0.3 2.6 1.3 3.3 2.6 0.8 1.3 0.9 2.8 0.7 4.5zm-2.2-2c-0.1-1.3-0.4-2.4-1.5-3.1s-2.3-0.6-3.4 0.1c-1 0.7-1.5 1.7-1.6 3h6.5z"/>
		<path class="st3" d="m135.6 145.9c0.8-5.4 6.5-6.4 9.6-4 1 0.8 1.6 1.9 2 3.1 0.1 0.3 0.2 0.6 0.2 0.9v3c-0.2 0.7-0.4 1.3-0.7 2-1.1 2.5-4.4 3.7-6.7 3-2-0.6-3.4-1.8-4.1-3.7-0.2-0.5-0.2-1-0.3-1.5v-2.8zm9.7 1.3c0.1-1-0.2-2-0.7-3-1.1-2.1-4.5-2.3-5.9-0.2-1.1 1.7-1.1 4.8 0 6.5 1.5 2.1 4.7 2 5.9-0.3 0.5-0.9 0.7-1.9 0.7-3z"/>
		<path d="m57.2 230.9c0.2-1.5 0.8-2.7 2.1-3.4 1.2-0.6 2.5-0.8 3.8-0.5 0.2 0 0.5 0.1 0.7 0.1v2h-0.8c-0.5 0-1.1-0.1-1.6 0.1-1.1 0.3-1.7 1.1-1.7 2.3 0 0.6 0.1 1.2 0.1 1.9 0.3 0 0.7 0.1 1 0.1 0.7 0 1.4 0.1 2.1 0.1 0 0.6 0 1.3-0.1 2h-2.4c-0.3 0-0.5 0.1-0.8 0.2v0.2 11.8c0 0.1 0.1 0.2 0.1 0.3-0.9 0-1.7 0.1-2.6 0.1v-12.5c-0.9-0.1-1.7-0.1-2.4-0.1v-1.8c0.8-0.1 1.6-0.2 2.3-0.3 0-0.1 0.1-0.2 0.1-0.3 0.1-0.9 0.1-1.6 0.1-2.3z"/>
		<path class="st3" d="m32 148.8c-0.2 0.5-0.3 0.9-0.5 1.4-1 3-4.5 4.2-7 3.6-2.1-0.6-3.3-1.9-4.1-3.8-0.2-0.4-0.2-0.9-0.3-1.4v-2.8c0.3-1.7 1-3.2 2.5-4.2 2.5-1.7 7.8-1.5 9.1 3.4 0.1 0.3 0.2 0.6 0.2 0.9 0.1 0.9 0.1 1.9 0.1 2.9zm-2.1-1.6c-0.2-0.7-0.2-1.6-0.5-2.3-0.5-1.4-1.8-2.2-3.3-2.2s-2.8 0.8-3.3 2.3c-0.6 1.5-0.6 3.1-0.1 4.6 0.5 1.6 1.9 2.5 3.4 2.5 1.6 0 2.9-1 3.4-2.6 0.2-0.7 0.3-1.5 0.4-2.3z"/>
		<path class="st3" d="m32 16.9c-0.1 1.9-0.4 3.4-1.4 4.7-2.2 3-8.2 3.2-10-1.3-0.9-2.1-0.9-4.3 0-6.4s2.6-3.3 4.9-3.3c0.7 0 1.4 0 2.1 0.2 2.3 0.6 3.5 2.1 4.1 4.3 0.2 0.7 0.3 1.4 0.3 1.8zm-2.2 0.3c-0.1-1.5-0.4-2.8-1.5-3.8-1.7-1.6-4.3-1-5.3 0.7-1.1 2-1.1 4.1-0.1 6.1 1 1.9 3.8 2.3 5.4 0.8 1.2-1.1 1.4-2.5 1.5-3.8z"/>
		<path class="st3" d="m106.2 150.1c0.2 1.1 0.9 1.6 2 1.8 0.7 0.3 1.5 0.3 2.2 0 1.1-0.4 1.6-0.9 1.6-1.6-0.1-0.9-0.7-1.4-1.5-1.6-0.8-0.3-1.7-0.5-2.6-0.7l-1.8-0.6c-1-0.3-1.5-1-1.8-2v-1.6c0.4-1.8 2-2.8 4.1-3 1.1-0.1 2.1 0 3.1 0.4 1.6 0.6 2.5 1.8 2.6 3.5-0.7 0-1.5 0-2.2 0.1-0.1-0.1-0.2-0.2-0.2-0.3-0.7-1.6-2.8-2.3-4.3-1.4-0.5 0.3-0.9 0.8-0.9 1.4 0 0.7 0.5 1 1 1.3 0.7 0.3 1.4 0.4 2.1 0.6 1 0.3 2 0.6 2.9 1 1.9 0.9 2.1 3.3 1.1 4.8-0.4 0.7-1.1 1.1-1.8 1.4-2.2 0.9-4.3 0.7-6.3-0.4-0.9-0.5-1.4-1.4-1.6-2.4 0-0.4 0-0.8 0.5-0.8 0.7-0.2 1.3-0.3 1.8 0.1z"/>
		<path class="st3" d="m165.8 149.8c0 0.6 0.3 1.1 0.7 1.5 1.1 1 3.4 1 4.5 0 0.8-0.7 0.6-2-0.2-2.4-0.6-0.3-1.2-0.5-1.8-0.7-0.9-0.3-1.8-0.5-2.7-0.7-0.5-0.2-1-0.4-1.4-0.8-1.7-1.4-1.1-4.3 0.6-5.2 2.1-1.2 4.4-1.2 6.5 0.1 1.1 0.6 1.7 1.7 1.7 3.1-0.7 0-1.5 0-2.2 0.1-0.2-0.3-0.3-0.7-0.5-1-0.9-1.1-2.8-1.4-4-0.7-0.5 0.3-0.9 0.8-0.9 1.5s0.5 1 1 1.2c0.8 0.3 1.6 0.5 2.4 0.7 0.3 0.1 0.6 0.2 0.9 0.2 1.6 0.5 2.9 1.3 3.5 2.9v1.4c-0.5 0.8-0.8 1.7-1.8 2.2-2.3 1.3-4.6 1.3-6.8 0.1-1-0.6-1.6-1.5-1.9-2.7 0-0.4 0.2-0.6 0.6-0.6 0.8-0.2 1.3-0.2 1.8-0.2z"/>
		<path class="st3" d="m124.9 144.7c-0.2-0.3-0.3-0.7-0.5-1-0.9-1.1-2.8-1.4-4-0.7-0.5 0.3-0.9 0.8-0.9 1.5s0.5 1 1 1.2c0.7 0.3 1.4 0.4 2.1 0.6 0.9 0.3 1.9 0.6 2.8 1 2.6 1.2 2 4.6 0.3 5.7-2.2 1.4-5.4 1.4-7.4-0.1-0.8-0.6-1.1-1.4-1.5-2.2 0-0.6 0.3-0.9 0.8-0.8h1.4c0 0.6 0.3 1.1 0.7 1.5 1.1 1 3.4 1 4.5 0 0.8-0.7 0.6-2-0.2-2.4-0.6-0.3-1.2-0.5-1.8-0.7-0.9-0.3-1.8-0.4-2.7-0.7-0.5-0.2-1-0.4-1.4-0.8-1.7-1.4-1.1-4.3 0.6-5.2 2.1-1.2 4.4-1.2 6.5 0.1 1.1 0.6 1.7 1.7 1.7 3.1-0.6-0.2-1.3-0.1-2-0.1z"/>
		<path class="st3" d="m226.5 144.4c-0.5-1.5-1.9-2.2-3.6-1.7-1 0.3-2.1 1.2-2.1 2.7 0.1 2.4 0 4.8 0 7.2 0 1.1-0.1 1.2-1.2 1.2-0.4 0-0.9 0.1-1.2-0.4v-12.4c0.7-0.1 1.4-0.1 2.2-0.2 0 0.4 0 0.8 0.1 1.2 0.1 0.3 0.2 0.2 0.3 0 1.5-1.4 3.2-1.7 5.1-1.2 1.5 0.4 2.3 1.4 2.5 2.9 0.1 0.9 0.2 1.8 0.2 2.7v6c0 1.3 0 1.3-1.3 1.4h-0.8c0-0.4-0.1-0.9-0.1-1.3v-6.9c0-0.3-0.1-0.7-0.1-1.2z"/>
		<path class="st3" d="m106.7 23.5h-1.9c-0.1-0.3-0.3-0.5-0.4-0.8-0.2 0.1-0.3 0.1-0.4 0.2-1 0.7-2.1 1-3.3 0.9-2.5 0-4-1.4-4.2-3.9-0.1-0.9 0-1.8 0-2.7v-5.4c0-0.3-0.1-0.9 0.3-0.9 0.5-0.1 1.1 0 1.7 0.1 0.1 0 0.2 0.4 0.2 0.6v1.8 5.6c0 0.5 0 0.9 0.2 1.4 0.3 1 0.9 1.5 2 1.5 0.6 0 1.3 0 1.9-0.2 1.2-0.4 1.8-1.2 1.8-2.4v-7-0.8c0-0.4 0.2-0.6 0.6-0.6h0.1c1.8-0.1 1.6 0.1 1.6 1.4v10c-0.1 0.3-0.2 0.8-0.2 1.2z"/>
		<path class="st3" d="m119.8 14.6h-1.5c-0.4 0-0.7-0.1-0.8-0.6-0.5-1.3-2.6-2.2-4.4-1.2-0.5 0.3-0.8 0.8-0.8 1.4 0 0.7 0.4 1.1 0.9 1.3 0.6 0.2 1.1 0.4 1.7 0.5 1 0.3 1.9 0.5 2.9 0.9 1.3 0.5 2.2 1.5 2.2 3.1 0 1.5-0.8 2.6-2.1 3.2-2.2 1-4.4 0.9-6.5-0.4-1.1-0.7-1.7-1.7-1.8-3.2 0.6 0 1.2-0.1 1.7 0 0.2 0 0.5 0.3 0.6 0.5 0.5 1.2 1.4 1.6 2.6 1.7 0.8 0 1.6 0 2.3-0.4 0.6-0.3 0.9-0.7 0.9-1.3s-0.2-1.1-0.8-1.4c-0.7-0.3-1.4-0.5-2.1-0.7-0.9-0.3-1.9-0.5-2.8-0.9-1.2-0.5-1.9-1.2-2-2.6s0.5-2.5 1.7-3.2c1.8-1.1 3.8-1 5.7-0.3 1.1 0.4 1.9 1.2 2.2 2.4 0.2 0.3 0.2 0.6 0.2 1.2z"/>
		<path class="st3" d="m160.6 153.8h-0.9c-1.2 0-1.2 0-1.2-1.3v-2.5-4.3c0-0.8-0.1-1.5-0.6-2.2-0.7-0.9-2-1.3-3.3-0.8s-2 1.5-2 2.9v6.6 0.8c0 0.6-0.2 0.7-0.8 0.8-0.4 0-0.9 0-1.3 0.1 0-0.4-0.1-0.9-0.1-1.3v-11.7h2c0 0.4 0 0.8 0.1 1.2 0 0.3 0.2 0.2 0.3 0 0.8-0.6 1.6-1.1 2.5-1.3 1.2-0.2 2.3-0.1 3.3 0.4 0.8 0.3 1.3 0.9 1.6 1.7 0.1 0.4 0.3 0.8 0.4 1.2v8.5c0.1 0.4 0 0.8 0 1.2z"/>
		<path class="st4" d="m45.9 246.1c0.2 0.7 0.4 1.5-0.1 2.2h-0.1-0.1c-0.5 0.1-1 0.1-1.5 0.2-1 0-1.9-0.2-2.6-1-0.6-0.7-0.8-1.5-0.8-2.3v-9.2-0.3c-0.3-0.1-0.5-0.2-0.8-0.2-0.7-0.1-1.3-0.1-2-0.1v-1.8c0.4-0.1 0.7-0.1 1.1-0.2 0.5-0.1 1.1-0.1 1.6-0.1 0-1.1 0-2.2 0.1-3.3 0.8-0.3 1.6-0.1 2.6-0.1v3.5h2.8v2.1c-0.9 0-1.8 0-2.8 0.1v0.6 8.5c0 0.3 0.1 0.6 0.2 0.9 0.2 0.2 0.1 0.7 0.6 0.6 0.5 0.2 1.2 0.1 1.8-0.1z"/>
		<path d="m107.5 248.5c-0.7 0-1.4-0.1-2-0.4-1-0.6-1.3-1.5-1.5-2.6v-10h-2.8v-2c0.9-0.1 1.8-0.1 2.6-0.2 0.1-0.3 0.1-0.7 0.2-1v-2.4h2.4c0.2 1.2-0.1 2.4 0.2 3.5h1.6c0.4 0 0.8 0.1 1.3 0.2v1.8c-0.9 0.1-1.9 0.1-2.8 0.2 0 0.2-0.1 0.3-0.1 0.4v8.6c0 0.3 0.2 0.7 0.3 1 0.2 0.2 0.1 0.7 0.6 0.6 0.6 0.1 1.3 0.2 2 0.3v1.7c-0.1 0.1-0.2 0.1-0.4 0.2-0.6-0.1-1.1 0-1.6 0.1z"/>
		<path class="st5" d="m43.2 103.8c0.1 0 0.1 0.1 0.2 0v2.4c-1-0.1-1.9-0.1-2.8 0.2-0.7 0.3-1.3 0.8-1.6 1.5-0.1 0.4-0.2 0.8-0.2 1.1v9.5c-0.8 0.1-1.6 0.1-2.4 0.2v-14.7h2.3c0.1 0.3 0.2 0.7 0.3 1.1 0.8-0.6 1.5-1.3 2.6-1.4 0.4 0.1 1 0.1 1.6 0.1z"/>
		<path class="st3" d="m230.7 140.8h2c0.4-0.1 0.4-0.4 0.4-0.7v-2.3h2.2v1.7c0 0.4 0.1 0.9 0.2 1.3 0.7 0 1.4 0.1 2.2 0.1 0.1 0.2 0.2 0.4 0.2 0.6 0.1 1.1-0.1 1.3-1.2 1.3h-1.2c-0.1 0.3-0.2 0.6-0.2 0.9v6.4c0 0.4 0.1 0.7 0.2 1.1l0.6 0.6c0.6 0.1 1.2 0.1 1.8 0.2v0.2 1.2c-0.8 0.7-1.7 0.6-2.6 0.5-1.3-0.2-2-0.9-2.2-2.9v-7.3c0-0.3 0.1-0.8-0.4-0.9h-1.9c-0.1-0.6-0.1-1.3-0.1-2z"/>
		<path class="st3" d="m69.3 12.7c-0.7 0-1.4-0.1-2.1-0.1-0.1-0.3-0.2-0.5-0.2-0.7 0-1 0.1-1.1 1.1-1.1h0.5c0.6-0.1 0.7-0.2 0.8-0.8v-1.7c0-0.4 0.2-0.6 0.6-0.6h1.6v2.2c0 0.8 0.1 0.9 0.9 0.9h0.1c1.5 0.1 1.6 0.2 1.2 1.8-0.7 0-1.3 0.1-2.1 0.2 0 0.3-0.1 0.5-0.1 0.8v6.8 0.5c0.1 0.7 0.5 1 1.2 1.1 0.3 0 0.7 0 0.9 0.1 0.1 0.1 0.1 0.2 0.2 0.2 0.2 1.4 0 1.7-1.4 1.7-2 0-3.1-1-3.2-3v-6.8c0.1-0.6 0-1 0-1.5z"/>
		<path class="st5" d="m73.3 118.8c-0.7 0-1.4-0.1-2.1-0.1v-14.7h2.4v14c0 0.3-0.2 0.6-0.3 0.8z"/>
		<path class="st5" d="m112.6 248c0-0.3 0.1-0.5 0.1-0.8v-12.8c0-0.3-0.1-0.5-0.1-0.8 0.9-0.4 1.7-0.2 2.6-0.1v14.6c-0.8-0.1-1.7-0.1-2.6-0.1z"/>
		<path class="st5" d="m66 248c0-0.3 0.1-0.5 0.1-0.8v-12.8c0-0.3-0.1-0.5-0.1-0.8 0.9-0.4 1.7-0.2 2.6-0.1v14.6c-0.8-0.1-1.7-0.1-2.6-0.1z"/>
		<path class="st6" d="m200 141.4c0.8-0.5 1.6-0.8 2.5-0.8 0.7 0 0.9 0.2 0.9 0.9v0.7c0 0.4-0.2 0.5-0.6 0.6h-1.2c-1 0.1-1.8 0.6-2.2 1.6-0.1 0.4-0.2 0.8-0.2 1.3v6.9c0 0.4-0.1 0.9-0.1 1.3-0.4 0-0.9 0-1.3-0.1-0.3 0-0.6-0.2-0.9-0.3v-12.4c0.7-0.3 1.5-0.3 2.2 0v0.9c0.1 0 0.1 0.1 0.2 0.1 0.4-0.3 0.5-0.5 0.7-0.7z"/>
		<path class="st3" d="m70.3 153.8h-2c0-0.5-0.1-1-0.1-1.5v-11.5c0.7 0.1 1.5 0.1 2.2 0.2v1.2c0.3-0.4 0.5-0.5 0.6-0.7 1-0.8 2.1-1.1 3.3-0.7v2c-0.5 0-1.1-0.1-1.6 0-1 0.1-1.8 0.6-2.2 1.6-0.1 0.4-0.2 0.8-0.2 1.3v6.9c0.1 0.4 0.1 0.8 0 1.2z"/>
		<path class="st5" d="m107.5 104h2.4c0 0.2 0.1 0.3 0.1 0.5v13.5c0 0.3-0.1 0.6-0.2 0.9h-2.2c0-0.4-0.1-0.7-0.1-1.1v-5.7c-0.1-2.7-0.1-5.4 0-8.1z"/>
		<path class="st2" d="m5.5 153.8c0-0.5 0.1-0.9 0.1-1.4v-10.5c0-0.4 0-0.7 0.2-1.1 1.6 2.3 3.4 4.5 4.8 7-1.5 1.4-2.9 2.9-4.4 4.3-0.2 0.2-0.3 0.6-0.4 0.9s-0.2 0.6-0.3 0.8z"/>
		<path class="st6" d="m98.6 141c0.7-0.1 1.5-0.1 2.2-0.2v1.5 11.3c-0.7 0.3-1.5 0.2-2.2 0v-12.6z"/>
		<path class="st3" d="m130.4 140.8h2.2v1.4 11.4c-0.7 0.1-1.4 0.1-2.1 0.2 0-0.6-0.1-1.3-0.1-1.9v-11.1z"/>
		<path class="st0" d="m6.2 248.1v-1.2-12.6-1.1c0.7 0.5 3.2 4.1 3.7 5.3l-0.9 0.6c-0.7 0.6-1.2 1.3-1.9 1.9-0.6 0.5-0.8 1.2-0.8 1.9v4c0.1 0.4 0 0.8-0.1 1.2z"/>
		<path class="st5" d="m51.2 228c0.3 0.4 0.6 0.7 0.8 1.1 0.2 0.7-0.1 1.3-0.8 1.7-0.4 0-0.8 0.1-1.2 0.1-1.2-0.5-1.4-1.1-1-2.2 0.2-0.5 0.6-0.6 1-0.7h1.2z"/>
		<path class="st7" d="m108.6 101.6c-0.9 0-1.6-0.6-1.6-1.5 0-0.8 0.8-1.5 1.7-1.4 0.8 0.1 1.5 0.8 1.4 1.5 0 0.8-0.6 1.4-1.5 1.4z"/>
		<path class="st5" d="m70.9 100.1c0-1 0.4-1.4 1.4-1.5 0.9 0 1.5 0.5 1.5 1.4s-0.6 1.5-1.8 1.5c-0.7 0.1-1.1-0.4-1.1-1.4z"/>
		<path class="st5" d="m113.4 230.9c-0.7-0.1-0.9-0.6-0.9-1.2v-1c0.3-0.2 0.6-0.4 0.9-0.7h1.2c0.3 0.4 0.6 0.7 0.8 1.1 0.2 0.7-0.1 1.3-0.8 1.7-0.4 0-0.8 0.1-1.2 0.1z"/>
		<path class="st5" d="m68 228c0.3 0.4 0.6 0.7 0.8 1.1 0.2 0.7-0.1 1.3-0.8 1.7-0.4 0-0.8 0.1-1.2 0.1-0.7-0.1-0.9-0.6-0.9-1.2v-1c0.3-0.2 0.6-0.4 0.9-0.7h1.2z"/>
		<path class="st2" d="m41 141.1v10.9 6.5c-0.1-0.4-0.4-0.7-0.4-1.1v-15.1c0-0.4 0.3-0.8 0.4-1.2z"/>
		<path class="st0" d="m106.8 245.5c-0.1-0.3-0.3-0.7-0.3-1v-8.6c0-0.1 0-0.2 0.1-0.4 0.9-0.1 1.9-0.1 2.8-0.2-0.3 0.1-0.7 0.3-1 0.3-1.2 0.1-1.3 0.2-1.4 1.5v4.9c0 1.2-0.1 2.3-0.2 3.5z"/>
		<path class="st6" d="m131.5 136.2c0.9 0 1.4 0.5 1.4 1.2s-0.6 1.2-1.4 1.2c-0.7 0-1.3-0.5-1.3-1.2-0.1-0.6 0.5-1.2 1.3-1.2z"/>
		<path class="st6" d="m99.7 136.2c0.9 0 1.3 0.4 1.3 1.2s-0.5 1.3-1.4 1.2c-0.8 0-1.2-0.5-1.2-1.3 0.1-0.8 0.4-1.1 1.3-1.1z"/>
		<path class="st2" d="m14.6 136.7v12.2c0 0.2 0 0.3-0.2 0.5-0.1-0.2-0.3-0.5-0.4-0.7 0.1-0.5 0.2-1 0.2-1.6v-8.9c0-0.5 0-1.1 0.4-1.5z"/>
		<path class="st2" d="m193.7 153.8v-12.8c0.4 0.2 0.4 0.6 0.4 1v10.7c-0.1 0.4-0.3 0.8-0.4 1.1z"/>
		<path class="st2" d="m98.6 141v12.6c-0.1-0.4-0.4-0.7-0.4-1.1v-10.6c0-0.3 0-0.6 0.4-0.9z"/>
		<path class="st2" d="m76.6 141v12.6c-0.1-0.4-0.4-0.7-0.4-1.1v-10.6c0-0.3 0-0.6 0.4-0.9z"/>
		<path class="st2" d="m197 141.1v12.4c-0.1-0.4-0.4-0.7-0.4-1.1v-10.1c0.1-0.4 0.3-0.8 0.4-1.2z"/>
		<path class="st2" d="m218.4 141.1v12.4c-0.1-0.4-0.4-0.7-0.4-1.1v-10.1c0.1-0.4 0.3-0.8 0.4-1.2z"/>
		<path class="st0" d="m43.4 245.5c-0.1-0.3-0.2-0.6-0.2-0.9v-8.5-0.6c0.9 0 1.9 0 2.8-0.1-0.4 0.1-0.8 0.2-1.2 0.2-1 0.1-1.2 0.2-1.2 1.3v5.5c0 1-0.1 2.1-0.2 3.1z"/>
		<path class="st2" d="m56.8 148.7c-0.1-0.3-0.1-0.5 0.3-0.6h0.8 6.4c0.4 0 0.8 0 1.3-0.1 0-0.6 0.1-1.2 0.1-1.7 0.5 0.5 0.5 1 0.2 1.6-0.2 0.6-0.8 0.6-1.3 0.6h-6.4c-0.5 0-0.9 0.1-1.4 0.2z"/>
		<path class="st2" d="m139.3 107.7c0.1 0.3 0.2 0.6 0.2 1v9.9c-0.4-0.2-0.4-0.6-0.4-1v-8.1c0-0.5 0.1-1.1 0.2-1.8z"/>
		<path class="st0" d="m19.2 248.1v-19.8c0.1 0.4 0.2 0.8 0.2 1.2v17.5c0 0.3-0.1 0.7-0.2 1.1z"/>
		<path class="st0" d="m109.4 233.6c-0.4-0.1-0.8-0.2-1.3-0.2h-1.6c-0.3-1.2 0-2.4-0.2-3.5h-2.4v2.4c0 0.3-0.1 0.7-0.2 1v-2.7c0-0.7 0.2-0.9 0.9-0.9h1.3c0.8 0 0.9 0.2 1 1v1.4c0 1.1 0.1 1.2 1.2 1.2 0.5 0 0.9 0.2 1.3 0.3z"/>
		<path class="st2" d="m264 153.8c0-0.3 0.1-0.6 0.1-0.9v-17.1-0.4c0.1 0.4 0.2 0.8 0.2 1.2v16c0 0.4-0.2 0.8-0.3 1.2z"/>
		<path class="st2" d="m242.3 148.7c-0.1-0.3-0.1-0.5 0.3-0.6h0.7 7.7c-0.3 0.4-0.8 0.4-1.3 0.4h-6.1c-0.5 0-0.9 0.1-1.3 0.2z"/>
		<path class="st2" d="m16.7 153.8c0-0.3 0.1-0.7 0.1-1v-15.8-0.6c0.1 0.4 0.2 0.8 0.2 1.2v15c0 0.4-0.2 0.8-0.3 1.2z"/>
		<path class="st0" d="m49.2 248.1c-0.1-0.4-0.2-0.8-0.2-1.2v-12.4-0.6c0-0.4 0.2-0.7 0.6-0.6 0.7 0 1.4 0.1 2.2 0.2-0.8-0.1-1.7-0.1-2.6 0v14.6z"/>
		<path class="st2" d="m95 153.4v-8.4c0.1 0.4 0.4 0.7 0.4 1.1v6.2c0 0.4-0.2 0.8-0.4 1.1z"/>
		<path class="st2" d="m232.7 142.8c0.5 0.1 0.4 0.6 0.4 0.9v7.3c-0.5-0.3-0.4-0.7-0.4-1.2v-7z"/>
		<path class="st0" d="m16.6 228.3c0 0.4-0.1 0.8-0.1 1.2v12.7 1.1c-0.1 0-0.1 0-0.2 0.1-0.1-0.2-0.3-0.4-0.4-0.6 0.5-0.3 0.5-0.8 0.5-1.2v-5.5-6.5c0-0.5 0.1-0.9 0.2-1.3z"/>
		<path class="st2" d="m73.3 118.8c0.1-0.3 0.3-0.5 0.3-0.8v-14c0.1 0.4 0.2 0.8 0.2 1.1v12.5c0 0.5 0.1 1-0.5 1.2z"/>
		<path class="st0" d="m54.8 235.4c0.8 0 1.5 0.1 2.4 0.1v12.5c-0.1-0.5-0.2-0.9-0.2-1.4v-9.4-0.8c-0.1-0.7-0.2-0.8-0.8-0.9-0.5 0.1-0.9 0-1.4-0.1z"/>
		<path class="st2" d="m46 104v2.6 11.1c0 0.4 0.1 0.8 0.1 1.2-0.1-0.4-0.3-0.7-0.3-1.1v-12.6c0-0.5 0.2-0.8 0.2-1.2z"/>
		<path class="st2" d="m107.5 104v8.1 5.7c0 0.4 0.1 0.7 0.1 1.1-0.1-0.4-0.3-0.7-0.3-1.1v-12.6c-0.1-0.5 0.1-0.8 0.2-1.2z"/>
		<path class="st2" d="m109.7 118.8c0.1-0.3 0.2-0.6 0.2-0.9v-13.5c0-0.2 0-0.3-0.1-0.5 0.1 0.4 0.2 0.8 0.2 1.2v12.4c0 0.5-0.2 0.9-0.3 1.3z"/>
		<path class="st2" d="m130.3 104v4.5 9.2c0 0.4 0.1 0.8 0.1 1.2-0.1-0.4-0.3-0.7-0.3-1.1v-12.6c0-0.5 0.1-0.8 0.2-1.2z"/>
		<path class="st0" d="m115.2 248.1v-14.6c0.1 0.4 0.2 0.8 0.2 1.2v12.3c0 0.3-0.1 0.7-0.2 1.1z"/>
		<path class="st0" d="m51.8 233.5c0.1 0.4 0.2 0.8 0.2 1.2v12.3c0 0.4-0.1 0.8-0.2 1.2v-14.7z"/>
		<path class="st0" d="m46 235.5v-2.1h-2.8v-3.5c-0.9-0.1-1.7-0.2-2.6 0.1 0.8-0.5 1.6-0.3 2.4-0.2 0.4 0 0.5 0.4 0.5 0.7v1.6c0 1.1 0.1 1.2 1.1 1.2 1.4 0 1.7 0.3 1.4 1.7 0.1 0.2 0.1 0.3 0 0.5z"/>
		<path class="st0" d="m68.6 248.1v-14.6c0.1 0.4 0.2 0.8 0.2 1.2v12.3c0 0.3-0.1 0.7-0.2 1.1z"/>
		<path class="st2" d="m130.4 140.8v11.1c0 0.6 0.1 1.3 0.1 1.9-0.1-0.4-0.3-0.8-0.3-1.1v-10.8c0.1-0.3 0.2-0.7 0.2-1.1z"/>
		<path class="st2" d="m150.4 140.8v11.7c0 0.4 0.1 0.9 0.1 1.3-0.1-0.4-0.3-0.8-0.3-1.1v-10.8c0.1-0.3 0.2-0.7 0.2-1.1z"/>
		<path class="st2" d="m68.2 140.8v11.5c0 0.5 0.1 1 0.1 1.5-0.1-0.4-0.3-0.8-0.3-1.1v-10.8c0-0.3 0.2-0.7 0.2-1.1z"/>
		<path class="st2" d="m100.9 153.6v-11.3-1.5c0.1 0.4 0.2 0.8 0.2 1.2v10.6c-0.1 0.3-0.2 0.7-0.2 1z"/>
		<path class="st2" d="m132.7 153.6v-11.4-1.4c0.1 0.4 0.2 0.8 0.2 1.2v10.6c-0.1 0.3-0.2 0.7-0.2 1z"/>
		<path class="st0" d="m101.2 235.5h2.8v10c-0.1-0.4-0.2-0.8-0.2-1.3v-6.9-0.7c0-0.8-0.2-0.9-0.9-1-0.6 0-1.1-0.1-1.7-0.1z"/>
		<path class="st2" d="m64.2 107.9c0.1 0.5 0.2 0.9 0.2 1.4v8.5c0 0.4-0.1 0.8 0.3 1.1-0.6-0.2-0.5-0.7-0.5-1.2v-6.8-3z"/>
		<path class="st0" d="m147.2 248.1v-10.4-0.6c0.1 0.4 0.2 0.8 0.2 1.2v8.7c0 0.3-0.1 0.7-0.2 1.1z"/>
		<path class="st2" d="m132.6 118.8c0.4-0.3 0.3-0.7 0.3-1.1v-8.6c0-0.4 0.1-0.8 0.2-1.1v9.8c-0.1 0.4 0 0.8-0.5 1z"/>
		<path class="st2" d="m48.3 118.8c0.1-0.4 0.1-0.8 0.2-1.2v-8.8c0-0.4 0.1-0.7 0.1-1.1v9.8c0 0.5-0.2 0.9-0.3 1.3z"/>
		<path class="st2" d="m55 107.9c0.1 0.5 0.2 0.9 0.2 1.4v8.5c0 0.4-0.1 0.8 0.3 1.1-0.6-0.2-0.5-0.7-0.5-1.2v-6.9-2.9z"/>
		<path class="st2" d="m66.7 118.8c0.4-0.3 0.3-0.7 0.3-1.1v-8.5-1c0.1 0.4 0.2 0.7 0.2 1.1v8.4c0 0.4 0.1 0.9-0.5 1.1z"/>
		<path class="st2" d="m6.3 118.8c0.1-0.4 0.1-0.8 0.2-1.2v-6c0-0.4-0.1-0.8 0.6-0.7 0.2 0.3 0.3 0.6 0 0.9-0.4 0.4-0.4 0.9-0.4 1.5v4.3c-0.1 0.4-0.3 0.8-0.4 1.2z"/>
		<path class="st0" d="m138.1 248.1v-6.8-2.9c0-0.3 0.1-0.6 0.1-1v9.5c0 0.4-0.1 0.8-0.1 1.2z"/>
		<path class="st2" d="m38.8 118.6v-9.5c0-0.4 0.1-0.8 0.2-1.1v9.6c0 0.3-0.2 0.7-0.2 1z"/>
		<path class="st0" d="m144.7 237.6c0 0.4 0.1 0.8 0.1 1.2v8.2 1.1c-0.1-0.4-0.2-0.7-0.2-1.1 0-3.1 0.1-6.3 0.1-9.4z"/>
		<path class="st2" d="m160.6 153.8c0-0.4 0.1-0.9 0.1-1.3v-8.5c0.1 0.4 0.2 0.8 0.2 1.2v7.4l-0.3 1.2z"/>
		<path class="st2" d="m84.4 144.2c0.1 0.3 0.2 0.6 0.2 1v8.3c-0.1-0.4-0.2-0.8-0.2-1.3v-5.6-2.4z"/>
		<path class="st2" d="m78.7 153.8c0-0.4 0.1-0.9 0.1-1.3v-7.1c0-0.4 0.1-0.8 0.2-1.3v8.5c0 0.5-0.2 0.9-0.3 1.2z"/>
		<path class="st2" d="m226.5 144.4c0.1 0.4 0.2 0.8 0.2 1.3v6.9c0 0.4 0.1 0.9 0.1 1.3-0.1-0.4-0.3-0.9-0.3-1.3v-8.2z"/>
		<path class="st2" d="m70.3 153.8c0-0.4 0.1-0.9 0.1-1.3v-6.9c0-0.4 0.1-0.8 0.2-1.3v8.3c0 0.5-0.2 0.9-0.3 1.2z"/>
		<path class="st2" d="m92.6 144.4c0.1 0.5 0.2 0.9 0.2 1.4v6.8c0 0.4 0.1 0.9 0.1 1.3-0.1-0.4-0.3-0.7-0.3-1.1v-8.4z"/>
		<path class="st2" d="m199.2 153.8c0-0.4 0.1-0.9 0.1-1.3v-6.9c0-0.4 0.1-0.8 0.2-1.3v8.3c-0.1 0.5-0.2 0.9-0.3 1.2z"/>
		<path class="st2" d="m12.6 99h-7.6c-0.4 0-0.8 0.1-1.2 0.1 0.3-0.1 0.7-0.2 1-0.2h6.8c0.4-0.1 0.7 0 1 0.1z"/>
		<path class="st0" d="m99.2 245.7c0-0.5-0.1-0.9-0.1-1.4v-7.5c0.1 0.4 0.2 0.7 0.2 1.1-0.1 2.6-0.1 5.2-0.1 7.8z"/>
		<path class="st2" d="m235.5 151.3c-0.1-0.4-0.2-0.7-0.2-1.1v-6.4c0-0.3 0.1-0.6 0.2-0.9v8.4z"/>
		<path class="st0" d="m59.8 235.7c0.3-0.1 0.5-0.2 0.8-0.2h2.4c0-0.7 0-1.4 0.1-2 0.6 0.5 0.7 0.9 0.5 1.5s-0.7 0.6-1.2 0.6c-1 0.1-1.8 0.1-2.6 0.1z"/>
		<path class="st2" d="m261.9 135.4v5.5c0 0.3-0.1 0.6-0.2 0.9v-5.2c0-0.3 0.1-0.7 0.2-1.2z"/>
		<path class="st2" d="m43.2 158.6v-6c0.3 0.2 0.4 0.3 0.5 0.4-0.4 0.3-0.3 0.7-0.3 1.1v3.3c0 0.5-0.1 0.8-0.2 1.2z"/>
		<path class="st0" d="m87.6 237.5c0.8 0 1.6 0 2.4-0.1-0.6 0.9-1.6 0.9-2.4 0.1z"/>
		<path class="st0" d="m84.6 244.5c0-0.3 0-0.6 0.1-1h-2c-0.2 0-0.3 0.3-0.5 0.4 0-0.6 0.4-0.8 0.9-0.8h0.5c1.2 0 1.4 0.2 1 1.4z"/>
		<path class="st2" d="m233.1 137.8v2.3c0 0.3 0 0.6-0.4 0.7v-1.9c0-0.3 0.2-0.7 0.4-1.1z"/>
		<path class="st0" d="m57.2 230.9v2.1c0 0.1 0 0.2-0.1 0.3-0.8 0.1-1.6 0.2-2.3 0.3 0.3-0.1 0.7-0.3 1-0.3 1.1-0.1 1.1-0.1 1.2-1.2 0-0.5 0.1-0.8 0.2-1.2z"/>
		<path class="st0" d="m103.8 233.3c-0.8 0.1-1.7 0.1-2.6 0.2v2c-0.1-0.2-0.2-0.3-0.2-0.5-0.2-1.5 0-1.7 1.5-1.7h1.3z"/>
		<path class="st2" d="m147.8 114.3c-0.8 0-1.6 0-2.4-0.1 0.8-0.5 1.7-0.5 2.4 0.1z"/>
		<path class="st2" d="m94.4 114.3c-0.8 0-1.6 0-2.4-0.1 0.8-0.5 1.7-0.5 2.4 0.1z"/>
		<path class="st0" d="m109.4 248.1v-1.7c-0.7-0.1-1.4-0.2-2-0.3 0.3 0 0.6-0.1 0.9-0.1 1.2 0.1 1.5 0.5 1.3 1.6 0 0.2-0.1 0.3-0.2 0.5z"/>
		<path class="st2" d="m79.6 114.3c-0.8 0-1.6 0-2.4-0.1 0.9-0.5 1.7-0.5 2.4 0.1z"/>
		<path class="st0" d="m153.4 244.4c-0.2-0.6-0.6-0.9-1.3-0.8-0.4 0.1-0.9 0-1.5 0 0 0.3 0 0.6-0.1 0.9-0.2-0.8-0.1-0.9 0.6-1h1.3c0.8 0 0.8 0.1 1 0.9z"/>
		<path class="st0" d="m96.4 239.1c-1.3 0.1-2.7 0.1-4 0.2 0.7-0.1 1.4-0.1 2.1-0.2h1.9z"/>
		<path class="st2" d="m204.9 144.4c0.7 0 1.5 0 2.2 0.1-0.9 0.5-1.5 0.5-2.2-0.1z"/>
		<path class="st0" d="m72.2 238.9v3.8c-0.3-1.3-0.3-2.6 0-3.8z"/>
		<path class="st2" d="m212.7 145.8c-0.8 0.1-1.5 0.1-2.3 0.2h-1.3c0.7-0.1 1.4-0.1 2.1-0.2h1.5z"/>
		<path class="st2" d="m150.4 119h2c-0.7 0.6-1.2 0.6-2 0z"/>
		<path class="st2" d="m97 119h2c-0.8 0.6-1.2 0.6-2 0z"/>
		<path class="st0" d="m36.4 242.5v-3.6c0.3 1.2 0.3 2.4 0 3.6z"/>
		<path class="st2" d="m113.4 109.6v3.6c-0.3-1.2-0.3-2.4 0-3.6z"/>
		<path class="st2" d="m126.9 113.2v-3.6c0.2 1.2 0.3 2.4 0 3.6z"/>
		<path class="st2" d="m106.2 150.1c-0.5-0.4-1.1-0.3-1.7-0.2-0.5 0-0.5 0.4-0.5 0.8-0.1-0.8-0.1-0.9 0.6-1 0.6 0 1.2-0.3 1.6 0.4z"/>
		<path class="st2" d="m26.4 119h1.8c-0.7 0.6-1 0.6-1.8 0z"/>
		<path class="st2" d="m182.6 145.7v3.4c-0.3-1.2-0.2-2.3 0-3.4z"/>
		<path class="st0" d="m138.8 234.3c-0.2 0.2-0.4 0.5-0.6 0.7-0.1 0-0.1 0-0.2-0.1v-1.2c0.3 0.2 0.6 0.4 0.8 0.6z"/>
		<path class="st2" d="m20.6 109.8v3.4c-0.3-1.1-0.3-2.2 0-3.4z"/>
		<path class="st2" d="m119 149.8h-1.4c-0.6 0-0.9 0.2-0.8 0.8-0.1-0.8-0.1-0.9 0.6-1 0.5 0.1 1.1 0.2 1.6 0.2z"/>
		<path class="st0" d="m74.8 242.4c-0.3-1.1-0.3-2.2 0-3.4v3.4z"/>
		<path class="st0" d="m63 233.5c-0.7 0-1.4-0.1-2.1-0.1-0.3 0-0.7-0.1-1-0.1h2.1c0.3 0 0.7 0.1 1 0.2z"/>
		<path class="st2" d="m82.4 119h1.8c-0.7 0.6-1 0.6-1.8 0z"/>
		<path class="st2" d="m119.2 119h1.8c-0.7 0.6-1 0.6-1.8 0z"/>
		<path class="st0" d="m157.9 246.1c-0.8 0.3-1.6 0.3-2.4 0 0.9-0.2 1.6-0.2 2.4 0z"/>
		<path class="st2" d="m32 148.8v-3c0.3 1.1 0.3 2 0 3z"/>
		<path class="st2" d="m235.5 140.8c-0.1-0.4-0.2-0.9-0.2-1.3v-1.7c0 1 0.1 2 0.2 3z"/>
		<path class="st2" d="m165.8 149.8h-1.6c-0.4 0-0.6 0.2-0.6 0.6-0.2-0.4-0.1-0.7 0.4-0.7 0.6 0 1.2 0.1 1.8 0.1z"/>
		<path class="st2" d="m147.5 148.8v-3c0.2 1.1 0.2 2 0 3z"/>
		<path class="st2" d="m135.6 145.9v2.8c-0.3-1-0.3-1.9 0-2.8z"/>
		<path class="st0" d="m160.6 247.5c0.5-0.5 0.9-1 1.4-1.4 0 0.8-0.6 1.2-1.4 1.4z"/>
		<path class="st2" d="m239.9 146.1v2.8c-0.3-1-0.3-1.9 0-2.8z"/>
		<path class="st0" d="m40.6 233.3c-0.5 0-1.1 0.1-1.6 0.1-0.4 0-0.8 0.1-1.1 0.2 0.3-0.1 0.7-0.3 1-0.3 0.5-0.1 1.1 0 1.7 0z"/>
		<path class="st0" d="m79.8 246.1c-0.7 0.3-1.4 0.3-2.1 0 0.7-0.2 1.4-0.2 2.1 0z"/>
		<path class="st2" d="m18.2 106.4v-2.8c0.3 1 0.3 1.9 0 2.8z"/>
		<path class="st2" d="m20.2 145.9v2.8c-0.3-1-0.3-1.9 0-2.8z"/>
		<path class="st2" d="m54.4 146.1v2.8c-0.3-1-0.3-1.9 0-2.8z"/>
		<path class="st0" d="m37.8 235.4c0.7 0 1.3 0.1 2 0.1 0.3 0 0.5 0.1 0.8 0.2h-1.8c-0.3-0.1-0.6-0.2-1-0.3z"/>
		<path class="st0" d="m16.4 248.1h2.8c-0.9 0.3-1.9 0.3-2.8 0z"/>
		<path class="st0" d="m97 248.1c0.9 0 1.7 0 2.6-0.1-0.8 0.4-1.7 0.3-2.6 0.1z"/>
		<path class="st0" d="m112.6 248c0.9 0 1.7 0.1 2.6 0.1-0.8 0.3-1.7 0.4-2.6-0.1z"/>
		<path class="st0" d="m135.5 248c0.9 0 1.7 0 2.6 0.1-0.9 0.2-1.8 0.4-2.6-0.1z"/>
		<path class="st0" d="m132.2 242.1v-2.6c0.3 0.8 0.3 1.7 0 2.6z"/>
		<path class="st2" d="m250.9 148v-2.6c0.3 0.9 0.3 1.8 0 2.6z"/>
		<path class="st0" d="m68.6 233.5c-0.9-0.1-1.8-0.2-2.6 0.1 0.9-0.5 1.7-0.4 2.6-0.1z"/>
		<path class="st0" d="m115.2 233.5c-0.9-0.1-1.8-0.2-2.6 0.1 0.9-0.5 1.8-0.4 2.6-0.1z"/>
		<path class="st0" d="m138 233.5h-2.6c0.9-0.4 1.8-0.3 2.6 0z"/>
		<path class="st0" d="m159.9 237.7c0.9 0 1.7-0.1 2.6-0.1-0.9 0.5-1.8 0.3-2.6 0.1z"/>
		<path class="st0" d="m118.6 239.5v2.6c-0.3-0.9-0.3-1.8 0-2.6z"/>
		<path class="st0" d="m73.6 246.1l1.1 1.1c-0.6 0-1-0.4-1.1-1.1z"/>
		<path class="st2" d="m253.1 146.1v2.4c-0.4-0.9-0.3-1.7 0-2.4z"/>
		<path class="st2" d="m200 141.4l-0.6 0.6c-0.1 0-0.1-0.1-0.2-0.1v-0.9c0.3 0.2 0.6 0.3 0.8 0.4z"/>
		<path class="st0" d="m3.6 248c0.9 0 1.7 0 2.6 0.1-0.9 0.2-1.7 0.3-2.6-0.1z"/>
		<path class="st0" d="m22.8 239.5v2.6c-0.3-0.9-0.3-1.8 0-2.6z"/>
		<path class="st0" d="m51.8 248.1c-0.9 0.3-1.7 0.3-2.6 0h2.6z"/>
		<path class="st0" d="m57.2 248.1c0.9 0 1.7-0.1 2.6-0.1-0.8 0.5-1.7 0.4-2.6 0.1z"/>
		<path class="st0" d="m66 248c0.9 0 1.7 0.1 2.6 0.1-0.9 0.3-1.7 0.4-2.6-0.1z"/>
		<path class="st2" d="m43.4 106.2v-2.4c0.3 0.8 0.3 1.6 0 2.4z"/>
		<path class="st2" d="m63.2 103.8h-2.4c0.8-0.3 1.6-0.3 2.4 0z"/>
		<path class="st2" d="m84.4 103.8h-2.4c0.8-0.3 1.6-0.3 2.4 0z"/>
		<path class="st0" d="m144.8 248.1h2.4c-0.8 0.3-1.6 0.3-2.4 0z"/>
		<path class="st2" d="m152.6 103.8h-2.4c0.9-0.2 1.6-0.3 2.4 0z"/>
		<path class="st0" d="m66.8 230.9c0.4 0 0.8-0.1 1.2-0.1-0.5 0.6-0.6 0.6-1.2 0.1z"/>
		<path class="st0" d="m113.4 230.9c0.4 0 0.8-0.1 1.2-0.1-0.5 0.6-0.6 0.6-1.2 0.1z"/>
		<path class="st2" d="m71.1 141.5c-0.1 0.2-0.3 0.3-0.6 0.7v-1.2c0.1 0.2 0.4 0.4 0.6 0.5z"/>
		<path class="st2" d="m33.1 112.2c0-0.8 0.1-1.6 0.1-2.4 0.3 0.9 0.4 1.7-0.1 2.4z"/>
		<path class="st0" d="m45.8 248.3c0.6-0.7 0.4-1.4 0.1-2.2 0.5 0.9 0.4 1.6-0.1 2.2z"/>
		<path class="st2" d="m99.2 103.8h-2.4c0.8-0.2 1.6-0.3 2.4 0z"/>
		<path class="st0" d="m45.9 246.1c-0.6 0.2-1.3 0.3-1.9 0h1.9z"/>
		<path class="st0" d="m63.8 229.1v-2c0.1 0.5 0.2 0.9 0.3 1.4 0 0.2-0.2 0.4-0.3 0.6z"/>
		<path class="st2" d="m138.4 103.8h-2.4c0.8-0.3 1.6-0.3 2.4 0z"/>
		<path class="st0" d="m50 230.9c0.4 0 0.8-0.1 1.2-0.1-0.5 0.6-0.6 0.6-1.2 0.1z"/>
		<path class="st2" d="m28.2 103.8h-2.2c0.7-0.3 1.5-0.2 2.2 0z"/>
		<path class="st2" d="m54 103.8h-2.2c0.8-0.2 1.5-0.3 2.2 0z"/>
		<path class="st2" d="m112.1 144.7c0.7 0 1.5 0 2.2-0.1-0.8 0.4-1.5 0.3-2.2 0.1z"/>
		<path class="st2" d="m124.9 144.7c0.7 0 1.5 0 2.2-0.1-0.8 0.4-1.5 0.3-2.2 0.1z"/>
		<path class="st2" d="m171.7 144.7c0.7 0 1.5 0 2.2-0.1-0.8 0.4-1.5 0.3-2.2 0.1z"/>
		<path class="st2" d="m235.3 137.8h-2.2c0.7-0.3 1.4-0.2 2.2 0z"/>
		<path class="st2" d="m110.4 151.9c-0.7 0.3-1.5 0.3-2.2 0h2.2z"/>
		<path class="st2" d="m121.2 103.8h-2.2c0.8-0.2 1.5-0.2 2.2 0z"/>
		<path class="st2" d="m135.4 106c0.7-0.3 1.4-0.3 2.1 0h-2.1z"/>
		<path class="st2" d="m230.7 140.8c0 0.7 0 1.3 0.1 2-0.5-0.6-0.4-1.3-0.1-2z"/>
		<path class="st2" d="m61.7 151.9c-0.7 0.3-1.4 0.3-2.1 0h2.1z"/>
		<path class="st2" d="m74.4 142.8v-2c0.3 0.7 0.3 1.4 0 2z"/>
		<path class="st2" d="m50.9 106c0.7-0.3 1.4-0.3 2.1 0h-2.1z"/>
		<path class="st0" d="m156.9 248.5c0.6-0.1 1.1-0.1 1.7-0.2-0.2 0.1-0.5 0.2-0.7 0.2-0.3 0.1-0.6 0-1 0z"/>
		<path class="st2" d="m154.5 114c0.3 0.5 0.3 1.1 0 1.6v-1.6z"/>
		<path class="st2" d="m191.1 152.8c0.1 0.1 0.3 0.1 0.3 0.2 0 0.5-0.1 1-0.1 1.4-0.1-0.5-0.2-1-0.2-1.6z"/>
		<path class="st2" d="m237.9 153.4v-1.2c0.4 0.6 0.4 0.7 0 1.2z"/>
		<path class="st2" d="m247.1 151.9c-0.7 0.3-1.4 0.3-2.1 0h2.1z"/>
		<path class="st2" d="m96.8 106c0.7-0.3 1.4-0.3 2.1 0h-2.1z"/>
		<path class="st2" d="m150.2 106c0.7-0.3 1.4-0.3 2.1 0h-2.1z"/>
		<path class="st2" d="m43.2 103.8h-1.8c0.6-0.2 1.2-0.2 1.8 0z"/>
		<path class="st2" d="m82.2 106c0.7-0.3 1.3-0.3 2 0h-2z"/>
		<path class="st2" d="m133 105.4c-0.1 0-0.3 0-0.3-0.1-0.1-0.4-0.1-0.9-0.1-1.3 0.2 0.5 0.3 1 0.4 1.4z"/>
		<path class="st2" d="m152.8 142c-0.1 0.2-0.3 0.3-0.3 0-0.1-0.4-0.1-0.8-0.1-1.2 0.1 0.4 0.3 0.8 0.4 1.2z"/>
		<path class="st2" d="m49.2 104.8c-0.2 0.2-0.4 0.4-0.7 0.8v-1c0.2 0.1 0.4 0.2 0.7 0.2z"/>
		<path class="st0" d="m96.4 237.2c0.2 0.6 0.3 1.2 0 1.9v-1.9z"/>
		<path class="st2" d="m221 142c-0.1 0.2-0.3 0.3-0.3 0-0.1-0.4-0.1-0.8-0.1-1.2 0.2 0.4 0.3 0.8 0.4 1.2z"/>
		<path class="st0" d="m82.6 238.5h1.8c-0.6 0.3-1.2 0.3-1.8 0z"/>
		<path class="st2" d="m237.9 152.1c-0.6-0.1-1.2-0.1-1.8-0.2 0.5 0 1.2 0.1 1.8 0.2z"/>
		<path class="st0" d="m138.6 236.9c0.3-0.3 0.6-0.6 0.8-0.9 0 0.5-0.3 0.8-0.8 0.9z"/>
		<path class="st2" d="m60.3 106c0.7-0.3 1.3-0.3 2 0h-2z"/>
		<path class="st0" d="m162.5 244.9v-1.8c0.2 0.6 0.2 1.2 0 1.8z"/>
		<path class="st0" d="m90.6 248.3c0.5 0.1 1 0.1 1.5 0.2-0.5-0.1-1 0.3-1.5-0.2z"/>
		<path class="st2" d="m11.5 111c0.6-0.1 1.1-0.1 1.7-0.2-0.6 0.1-1.1 0.2-1.7 0.2z"/>
		<path class="st2" d="m57.6 105.4c-0.1 0.2-0.2 0.4-0.4 0.6-0.2-0.3-0.3-0.4-0.4-0.6h0.8z"/>
		<path class="st2" d="m145.8 107.2v1.6c-0.2-0.5-0.2-1 0-1.6z"/>
		<path class="st2" d="m89.1 115.4v-1.6c0.2 0.6 0.2 1.1 0 1.6z"/>
		<path class="st2" d="m52.2 147.1c-0.1-0.5-0.1-1.1-0.2-1.6 0.1 0.5 0.1 1 0.2 1.6z"/>
		<path class="st2" d="m104.4 143.7v1.6c-0.2-0.6-0.2-1.1 0-1.6z"/>
		<path class="st0" d="m155 248.3c0.5 0.1 1 0.1 1.5 0.2-0.4-0.1-1 0.2-1.5-0.2z"/>
		<path class="st2" d="m92.4 107.2v1.6c-0.2-0.5-0.2-1 0-1.6z"/>
		<path class="st2" d="m174.1 150.8v-1.4c0.2 0.5 0.2 1 0 1.4z"/>
		<path class="st2" d="m204.6 149.5v1.4c-0.2-0.5-0.2-1 0-1.4z"/>
		<path class="st0" d="m75.8 236.7l0.8-0.8c-0.1 0.4-0.3 0.7-0.8 0.8z"/>
		<path class="st0" d="m159.8 244.9l-0.8 0.8c0.2-0.5 0.4-0.7 0.8-0.8z"/>
		<path class="st0" d="m28 248.3c0.5 0.1 1 0.1 1.5 0.2-0.5-0.1-1-0.2-1.5-0.2z"/>
		<path class="st2" d="m148.6 108.7c-0.3-0.5-0.3-1 0-1.5v1.5z"/>
		<path class="st0" d="m44.1 248.5c0.5-0.1 1-0.1 1.5-0.2-0.5 0-1 0.1-1.5 0.2z"/>
		<path class="st2" d="m212.7 144.4c0.2 0.5 0.2 0.9 0 1.4v-1.4z"/>
		<path class="st0" d="m107.5 248.5c0.5-0.1 1-0.1 1.5-0.2-0.5 0-1 0.1-1.5 0.2z"/>
		<path class="st0" d="m125.5 248.5c0.5-0.1 1-0.1 1.5-0.2-0.5 0-1 0.1-1.5 0.2z"/>
		<path class="st2" d="m52 149c0.1-0.5 0.1-1 0.2-1.4 0 0.5-0.1 1-0.2 1.4z"/>
		<path class="st2" d="m80.4 108.7c-0.3-0.5-0.3-1 0-1.5v1.5z"/>
		<path class="st0" d="m88.4 247.1c0.3 0.2 0.5 0.4 0.8 0.6-0.3-0.2-0.5-0.4-0.8-0.6z"/>
		<path class="st2" d="m148.2 115.3c-0.1-0.4-0.3-0.7-0.4-1.1 0.1 0.4 0.3 0.7 0.4 1.1z"/>
		<path class="st2" d="m212.2 153c0.2-0.1 0.3-0.2 0.5-0.4 0.1 0.1 0.1 0.3 0.2 0.4h-0.7z"/>
		<path class="st0" d="m84.6 238.5c0-0.4 0.1-0.8 0.1-1.2 0.2 0.4 0.2 0.8-0.1 1.2z"/>
		<path class="st0" d="m77.2 248.3c0.4 0.1 0.9 0.1 1.3 0.2-0.4-0.1-0.8-0.2-1.3-0.2z"/>
		<path class="st0" d="m78.9 248.5c0.4-0.1 0.9-0.1 1.3-0.2-0.4 0-0.8 0.1-1.3 0.2z"/>
		<path class="st0" d="m93.8 235.3c0.3 0.1 0.6 0.1 0.9 0.2-0.3 0.1-0.6 0.1-0.9-0.2z"/>
		<path class="st0" d="m51.2 228h-1.2 1.2z"/>
		<path class="st0" d="m123.8 248.3c0.4 0.1 0.9 0.1 1.3 0.2-0.4-0.1-0.8-0.2-1.3-0.2z"/>
		<path class="st0" d="m114.6 228h-1.2 1.2z"/>
		<path class="st0" d="m63 229.1h0.8c-0.2 0.3-0.5 0.3-0.8 0z"/>
		<path class="st0" d="m68 228h-1.2 1.2z"/>
		<path class="st0" d="m29.9 248.5c0.4-0.1 0.9-0.1 1.3-0.2-0.4 0-0.9 0.1-1.3 0.2z"/>
		<path class="st8" d="m6.5 108.8v-7.8h1.1c1.3 0 2.5-0.1 3.8 0 0.8 0.1 1.7 0.2 2.4 0.6 1.4 0.7 2.1 2.2 1.8 4.1-0.2 1.6-1.1 2.6-2.7 3-0.3 0.1-0.7 0.2-1 0.2-1.7-0.1-3.5-0.1-5.4-0.1z"/>
		<path class="st8" d="m191.4 147.3v2c0.1 1.1-0.5 1.8-1.4 2.3-1.8 1-4 0.3-4.7-1.6-0.7-1.8-0.7-3.7 0.1-5.5 0.8-1.9 3.3-2.5 5-1.3 0.7 0.5 1.1 1.1 1.1 2-0.1 0.7-0.1 1.4-0.1 2.1z"/>
		<path class="st8" d="m96.6 241.1v2.7c0 0.2-0.1 0.3-0.2 0.5-1.4 1.8-3.6 2.4-5.4 1.5-0.8-0.4-1.2-1.1-1.2-2 0-1 0.3-1.7 1.1-2.2 0.3-0.2 0.6-0.3 0.9-0.4 1.1-0.2 3.5-0.3 4.8-0.1z"/>
		<path class="st8" d="m30.8 110h-7.6c0.1-3.1 2.8-4.9 5.5-3.8 0.7 0.3 1.2 0.8 1.5 1.5s0.4 1.4 0.6 2.3z"/>
		<path class="st8" d="m34 240.7c-0.2 1-0.3 2-0.6 2.9-0.6 1.7-1.9 2.6-3.5 2.6-1.9 0.1-3.2-0.8-3.9-2.4-0.9-2.1-0.8-4.3 0.1-6.4 0.6-1.4 1.7-2.2 3.3-2.2 1.6-0.1 2.8 0.6 3.7 2 0.6 1.1 0.8 2.3 0.9 3.5z"/>
		<path class="st8" d="m121.1 240.7c0.2-0.9 0.2-1.9 0.6-2.7 1-2.6 3.4-3.4 5.7-2.4 0.9 0.4 1.5 1.1 1.9 2 0.9 2.2 0.9 4.4-0.1 6.5-1.2 2.6-4.6 2.7-6.1 1.2-1-0.9-1.5-2-1.7-3.3-0.2-0.4-0.2-0.8-0.3-1.3z"/>
		<path class="st8" d="m124.4 111.4c0 1.1-0.2 2.1-0.6 3.1-0.7 1.6-1.9 2.4-3.7 2.4s-3-0.9-3.7-2.4c-1-2.1-0.9-4.4 0.1-6.5 0.6-1.3 1.8-2.2 3.3-2.2 1.6-0.1 2.9 0.5 3.7 1.9 0.7 1.2 0.9 2.4 0.9 3.7z"/>
		<path class="st8" d="m49.2 17.2v2c0 1.3-0.7 2.3-1.9 2.5-2 0.5-3.7-0.1-4.3-2.4-0.5-1.7-0.4-3.3 0.2-5 0.8-2.2 4-2.6 5.5-0.9 0.3 0.4 0.5 0.7 0.5 1.2v2.6z"/>
		<path class="st8" d="m261.9 147.2v2.1c0.1 1.1-0.5 1.8-1.4 2.3-1.8 1-4 0.3-4.7-1.6-0.7-1.8-0.7-3.7 0.1-5.5 0.8-1.9 3.5-2.5 5.1-1.2 0.6 0.5 1 1.1 1 2-0.2 0.6-0.1 1.2-0.1 1.9z"/>
		<path class="st8" d="m43.2 147.3v-1.8c0-1.7 0.9-2.7 2.6-2.8 2.1-0.2 3.3 0.8 3.8 3 0.4 1.5 0.3 3.1-0.5 4.7-1.3 2.5-4.2 2-5.4 0.8-0.4-0.4-0.6-0.8-0.6-1.3 0.1-1 0.1-1.8 0.1-2.6z"/>
		<path class="st8" d="m144.4 17.1v2.1c0.1 1-0.4 1.7-1.2 2.1-1.9 1.2-4.3 0.4-5-1.7-0.6-1.8-0.6-3.6 0.2-5.4 1-2.2 3.9-2.6 5.5-0.8 0.4 0.4 0.6 0.8 0.5 1.3v2.4z"/>
		<path class="st8" d="m210.9 147.6h1.3c0.4 0 0.6 0.2 0.6 0.6 0 1.1 0.2 2.1-0.8 2.9-1.1 0.8-2.2 1.1-3.6 0.8-0.9-0.3-1.5-1-1.5-1.9s0.4-1.6 1.3-2c0.3-0.1 0.6-0.2 0.9-0.3 0.6 0 1.2-0.1 1.8-0.1z"/>
		<path class="st8" d="m84.3 17.5c0.2 0.9 0.3 1.8 0.1 2.5-0.3 1-1.2 1.5-2.2 1.7-0.6 0.1-1.3 0.1-2 0-0.8-0.1-1.5-0.8-1.6-1.6-0.2-1 0.2-1.7 1-2.2 0.3-0.1 0.5-0.3 0.8-0.3 1.3-0.2 2.5-0.2 3.9-0.1z"/>
		<path class="st0" d="m63.2 146c-1 0.3-5.5 0.3-6.4 0 0.1-1.3 0.6-2.4 1.8-3 1.1-0.6 2.3-0.6 3.4 0.2 0.9 0.6 1.3 1.6 1.2 2.8z"/>
		<path class="st0" d="m248.5 146.2c-2 0.1-4 0.1-6 0-0.2-1.2 0.4-2.5 1.4-3.1s2.6-0.6 3.5 0 1.4 1.8 1.1 3.1z"/>
		<path class="st8" d="m61 17.3c1.9 0.2 1.7-0.1 1.8 1.9 0.1 1.4-1.4 2.4-2.5 2.6-0.5 0.1-1.1 0.1-1.6 0-1-0.1-1.7-0.8-1.8-1.8-0.1-0.9 0.4-1.8 1.3-2.1s1.9-0.4 2.8-0.6z"/>
		<path class="st8" d="m131.2 15.9h-6.5c0.1-1.3 0.5-2.3 1.6-3s2.3-0.8 3.4-0.1 1.4 1.8 1.5 3.1z"/>
		<path class="st8" d="m145.3 147.2c0 1.1-0.1 2.1-0.6 3-1.2 2.3-4.5 2.4-5.9 0.3-1.1-1.7-1.1-4.8 0-6.5 1.4-2.1 4.7-1.9 5.9 0.2 0.4 1 0.6 2 0.6 3z"/>
		<path class="st8" d="m29.9 147.2c-0.1 0.8-0.2 1.6-0.4 2.3-0.5 1.6-1.8 2.6-3.4 2.6s-3-1-3.4-2.5c-0.5-1.5-0.5-3.1 0.1-4.6 0.5-1.5 1.7-2.3 3.3-2.3 1.5 0 2.8 0.8 3.3 2.2 0.3 0.7 0.4 1.6 0.5 2.3z"/>
		<path class="st8" d="m29.8 17.2c-0.1 1.4-0.3 2.7-1.4 3.8-1.6 1.5-4.4 1.2-5.4-0.8-1.1-2-1-4.1 0.1-6.1 1-1.7 3.6-2.3 5.3-0.7 1 1 1.3 2.3 1.4 3.8z"/>
		<path class="st4" d="m51.8 248.1h-2.6v-14.6c0.9-0.2 1.7-0.1 2.6 0v14.6z"/>
</svg>
