<?xml version="1.0" encoding="utf-8"?>
<!-- Generator: Adobe Illustrator 19.1.1, SVG Export Plug-In . SVG Version: 6.00 Build 0)  -->
<svg version="1.1" id="Layer_1" xmlns="http://www.w3.org/2000/svg" xmlns:xlink="http://www.w3.org/1999/xlink" x="0px" y="0px"
	 viewBox="0 0 2000 619" style="enable-background:new 0 0 2000 619;" xml:space="preserve">
<style type="text/css">
	.st0{fill:#36464E;}
	.st1{fill:#FFFFFF;}
	.st2{fill:#4D93D2;}
	.st3{fill:#4A678F;}
	.st4{fill:#293442;}
	.st5{fill:#A5D3D0;}
	.st6{fill:#4F907C;}
	.st7{fill:#737574;}
	.st8{fill:none;}
</style>
<rect y="0" class="st0" width="2000" height="309.5"/>
<g>
	<path class="st1" d="M422.6,120.3l23.5,58.6l23.5-58.6h12.3v71.8h-9.5v-28l0.9-30.2l-23.6,58.1h-7.2l-23.5-58l0.9,30v28h-9.5v-71.8
		H422.6z"/>
	<path class="st1" d="M530,192.1c-0.5-1.1-1-2.9-1.3-5.6c-4.2,4.4-9.3,6.6-15.2,6.6c-5.3,0-9.6-1.5-12.9-4.5
		c-3.4-3-5.1-6.7-5.1-11.3c0-5.6,2.1-9.9,6.3-12.9c4.2-3.1,10.2-4.6,17.8-4.6h8.9v-4.2c0-3.2-1-5.7-2.9-7.6
		c-1.9-1.9-4.7-2.8-8.4-2.8c-3.3,0-6,0.8-8.2,2.5c-2.2,1.6-3.3,3.6-3.3,6h-9.2c0-2.7,0.9-5.2,2.8-7.7s4.5-4.4,7.7-5.9
		c3.2-1.4,6.8-2.2,10.7-2.2c6.1,0,11,1.5,14.4,4.6c3.5,3.1,5.3,7.3,5.4,12.7v24.6c0,4.9,0.6,8.8,1.9,11.7v0.8H530z M514.9,185.1
		c2.9,0,5.6-0.7,8.1-2.2s4.4-3.4,5.6-5.8v-10.9h-7.2c-11.2,0-16.8,3.3-16.8,9.8c0,2.9,1,5.1,2.9,6.7
		C509.5,184.3,511.9,185.1,514.9,185.1z"/>
	<path class="st1" d="M564.4,125.8v12.9h10v7.1h-10v33.1c0,2.1,0.4,3.7,1.3,4.8c0.9,1.1,2.4,1.6,4.5,1.6c1.1,0,2.5-0.2,4.3-0.6v7.4
		c-2.4,0.7-4.7,1-7,1c-4.1,0-7.2-1.2-9.2-3.7s-3.1-6-3.1-10.5v-33.1h-9.7v-7.1h9.7v-12.9H564.4z"/>
	<path class="st1" d="M607.2,193.1c-7.2,0-13.1-2.4-17.7-7.1s-6.8-11.1-6.8-19.1v-1.7c0-5.3,1-10,3-14.2c2-4.2,4.8-7.4,8.5-9.8
		s7.6-3.5,11.8-3.5c6.9,0,12.3,2.3,16.2,6.9c3.8,4.6,5.8,11.1,5.8,19.6v3.8h-36.1c0.1,5.3,1.7,9.5,4.6,12.7
		c2.9,3.2,6.7,4.9,11.2,4.9c3.2,0,6-0.7,8.2-2c2.2-1.3,4.2-3.1,5.9-5.2l5.6,4.3C622.8,189.6,616.1,193.1,607.2,193.1z M606,145.2
		c-3.7,0-6.8,1.3-9.3,4c-2.5,2.7-4,6.4-4.6,11.3h26.7v-0.7c-0.3-4.6-1.5-8.2-3.7-10.8C612.9,146.5,609.8,145.2,606,145.2z"/>
	<path class="st1" d="M664.3,146.9c-1.4-0.2-2.9-0.3-4.5-0.3c-6,0-10,2.5-12.2,7.6v37.9h-9.1v-53.4h8.9l0.1,6.2
		c3-4.8,7.2-7.2,12.7-7.2c1.8,0,3.1,0.2,4,0.7V146.9z"/>
	<path class="st1" d="M672.8,124.6c0-1.5,0.5-2.7,1.4-3.7c0.9-1,2.2-1.5,4-1.5s3.1,0.5,4,1.5c0.9,1,1.4,2.3,1.4,3.7
		s-0.5,2.7-1.4,3.7c-0.9,1-2.3,1.5-4,1.5s-3.1-0.5-4-1.5S672.8,126,672.8,124.6z M682.6,192.1h-9.1v-53.4h9.1V192.1z"/>
	<path class="st1" d="M730.2,192.1c-0.5-1.1-1-2.9-1.3-5.6c-4.2,4.4-9.3,6.6-15.2,6.6c-5.3,0-9.6-1.5-12.9-4.5
		c-3.4-3-5.1-6.7-5.1-11.3c0-5.6,2.1-9.9,6.3-12.9c4.2-3.1,10.2-4.6,17.8-4.6h8.9v-4.2c0-3.2-1-5.7-2.9-7.6
		c-1.9-1.9-4.7-2.8-8.4-2.8c-3.3,0-6,0.8-8.2,2.5c-2.2,1.6-3.3,3.6-3.3,6h-9.2c0-2.7,0.9-5.2,2.8-7.7s4.5-4.4,7.7-5.9
		c3.2-1.4,6.8-2.2,10.7-2.2c6.1,0,11,1.5,14.4,4.6c3.5,3.1,5.3,7.3,5.4,12.7v24.6c0,4.9,0.6,8.8,1.9,11.7v0.8H730.2z M715,185.1
		c2.9,0,5.6-0.7,8.1-2.2s4.4-3.4,5.6-5.8v-10.9h-7.2c-11.2,0-16.8,3.3-16.8,9.8c0,2.9,1,5.1,2.9,6.7
		C709.6,184.3,712,185.1,715,185.1z"/>
	<path class="st1" d="M762.1,192.1h-9.1v-75.8h9.1V192.1z"/>
	<path class="st1" d="M842.7,160.4h-30.1v31.7h-9.5v-71.8h44.5v7.7h-35v24.6h30.1V160.4z"/>
	<path class="st1" d="M857.5,124.6c0-1.5,0.5-2.7,1.4-3.7c0.9-1,2.2-1.5,4-1.5s3.1,0.5,4,1.5c0.9,1,1.4,2.3,1.4,3.7
		s-0.5,2.7-1.4,3.7c-0.9,1-2.3,1.5-4,1.5s-3.1-0.5-4-1.5S857.5,126,857.5,124.6z M867.4,192.1h-9.1v-53.4h9.1V192.1z"/>
	<path class="st1" d="M891.9,192.1h-9.1v-75.8h9.1V192.1z"/>
	<path class="st1" d="M928.7,193.1c-7.2,0-13.1-2.4-17.7-7.1s-6.8-11.1-6.8-19.1v-1.7c0-5.3,1-10,3-14.2c2-4.2,4.8-7.4,8.5-9.8
		s7.6-3.5,11.8-3.5c6.9,0,12.3,2.3,16.2,6.9c3.8,4.6,5.8,11.1,5.8,19.6v3.8h-36.1c0.1,5.3,1.7,9.5,4.6,12.7
		c2.9,3.2,6.7,4.9,11.2,4.9c3.2,0,6-0.7,8.2-2c2.2-1.3,4.2-3.1,5.9-5.2l5.6,4.3C944.3,189.6,937.6,193.1,928.7,193.1z M927.5,145.2
		c-3.7,0-6.8,1.3-9.3,4c-2.5,2.7-4,6.4-4.6,11.3h26.7v-0.7c-0.3-4.6-1.5-8.2-3.7-10.8C934.4,146.5,931.3,145.2,927.5,145.2z"/>
	<path class="st1" d="M998.7,120.3l23.5,58.6l23.5-58.6h12.3v71.8h-9.5v-28l0.9-30.2l-23.6,58.1h-7.2l-23.5-58l0.9,30v28h-9.5v-71.8
		H998.7z"/>
	<path class="st1" d="M1106.2,192.1c-0.5-1.1-1-2.9-1.3-5.6c-4.2,4.4-9.3,6.6-15.2,6.6c-5.3,0-9.6-1.5-12.9-4.5
		c-3.4-3-5.1-6.7-5.1-11.3c0-5.6,2.1-9.9,6.3-12.9c4.2-3.1,10.2-4.6,17.8-4.6h8.9v-4.2c0-3.2-1-5.7-2.9-7.6
		c-1.9-1.9-4.7-2.8-8.4-2.8c-3.3,0-6,0.8-8.2,2.5c-2.2,1.6-3.3,3.6-3.3,6h-9.2c0-2.7,0.9-5.2,2.8-7.7s4.5-4.4,7.7-5.9
		c3.2-1.4,6.8-2.2,10.7-2.2c6.1,0,11,1.5,14.5,4.6c3.5,3.1,5.3,7.3,5.4,12.7v24.6c0,4.9,0.6,8.8,1.9,11.7v0.8H1106.2z M1091,185.1
		c2.9,0,5.6-0.7,8.1-2.2s4.4-3.4,5.6-5.8v-10.9h-7.2c-11.2,0-16.8,3.3-16.8,9.8c0,2.9,1,5.1,2.9,6.7
		C1085.6,184.3,1088,185.1,1091,185.1z"/>
	<path class="st1" d="M1136.8,138.7l0.3,6.7c4.1-5.1,9.4-7.7,16-7.7c11.3,0,17,6.4,17.1,19.1v35.3h-9.1v-35.3c0-3.8-0.9-6.7-2.6-8.5
		c-1.7-1.8-4.4-2.8-8.1-2.8c-3,0-5.6,0.8-7.8,2.4c-2.2,1.6-4,3.6-5.2,6.2v38h-9.1v-53.4H1136.8z"/>
	<path class="st1" d="M1216.8,192.1c-0.5-1.1-1-2.9-1.3-5.6c-4.2,4.4-9.3,6.6-15.2,6.6c-5.3,0-9.6-1.5-12.9-4.5
		c-3.4-3-5.1-6.7-5.1-11.3c0-5.6,2.1-9.9,6.3-12.9c4.2-3.1,10.2-4.6,17.8-4.6h8.9v-4.2c0-3.2-1-5.7-2.9-7.6
		c-1.9-1.9-4.7-2.8-8.4-2.8c-3.3,0-6,0.8-8.2,2.5c-2.2,1.6-3.3,3.6-3.3,6h-9.2c0-2.7,0.9-5.2,2.8-7.7s4.5-4.4,7.7-5.9
		c3.2-1.4,6.8-2.2,10.7-2.2c6.1,0,11,1.5,14.5,4.6c3.5,3.1,5.3,7.3,5.4,12.7v24.6c0,4.9,0.6,8.8,1.9,11.7v0.8H1216.8z M1201.7,185.1
		c2.9,0,5.6-0.7,8.1-2.2s4.4-3.4,5.6-5.8v-10.9h-7.2c-11.2,0-16.8,3.3-16.8,9.8c0,2.9,1,5.1,2.9,6.7
		C1196.2,184.3,1198.7,185.1,1201.7,185.1z"/>
	<path class="st1" d="M1236.6,165c0-8.3,1.9-14.9,5.8-19.8c3.8-4.9,8.9-7.4,15.3-7.4c6.5,0,11.6,2.3,15.2,6.9l0.4-5.9h8.3v52.1
		c0,6.9-2,12.3-6.1,16.3c-4.1,4-9.6,6-16.5,6c-3.8,0-7.6-0.8-11.3-2.5c-3.7-1.6-6.5-3.9-8.4-6.8l4.7-5.5c3.9,4.8,8.7,7.2,14.4,7.2
		c4.4,0,7.9-1.3,10.4-3.7c2.5-2.5,3.7-6,3.7-10.6v-4.6c-3.6,4.2-8.6,6.3-14.9,6.3c-6.2,0-11.3-2.5-15.2-7.5
		C1238.6,180.5,1236.6,173.6,1236.6,165z M1245.8,166c0,6,1.2,10.7,3.7,14.2c2.5,3.4,5.9,5.2,10.4,5.2c5.8,0,10-2.6,12.7-7.8v-24.4
		c-2.8-5.1-7-7.6-12.6-7.6c-4.4,0-7.9,1.7-10.4,5.2C1247.1,154.1,1245.8,159.2,1245.8,166z"/>
	<path class="st1" d="M1317.6,193.1c-7.2,0-13.1-2.4-17.7-7.1s-6.8-11.1-6.8-19.1v-1.7c0-5.3,1-10,3-14.2c2-4.2,4.8-7.4,8.5-9.8
		s7.6-3.5,11.8-3.5c6.9,0,12.3,2.3,16.2,6.9c3.8,4.6,5.8,11.1,5.8,19.6v3.8h-36.1c0.1,5.3,1.7,9.5,4.6,12.7
		c2.9,3.2,6.7,4.9,11.2,4.9c3.2,0,6-0.7,8.2-2c2.2-1.3,4.2-3.1,5.9-5.2l5.6,4.3C1333.3,189.6,1326.6,193.1,1317.6,193.1z
		 M1316.5,145.2c-3.7,0-6.8,1.3-9.3,4c-2.5,2.7-4,6.4-4.6,11.3h26.7v-0.7c-0.3-4.6-1.5-8.2-3.7-10.8
		C1323.3,146.5,1320.3,145.2,1316.5,145.2z"/>
	<path class="st1" d="M1374.8,146.9c-1.4-0.2-2.9-0.3-4.5-0.3c-6,0-10,2.5-12.2,7.6v37.9h-9.1v-53.4h8.9l0.1,6.2
		c3-4.8,7.2-7.2,12.7-7.2c1.8,0,3.1,0.2,4,0.7V146.9z"/>
</g>
<g>
	<rect x="141.9" y="114.4" class="st1" width="120.9" height="105.9"/>
	<path class="st2" d="M174.3,94.5c0.2,0,0.5,0,0.7,0c39.5,0,79,0,118.5,0c2.6,0,4.7,1.5,5.1,4c0,0.2,0,0.4,0,0.6
		c0,37.2,0,74.3,0,111.5c0,0.2,0,0.4,0,0.6c-0.1-0.1-0.3-0.2-0.4-0.4c-23.8-23.8-47.5-47.5-71.3-71.3c-1.5-1.5-3.1-3.1-4.6-4.6
		c-0.1-0.1-0.3-0.2-0.5-0.3c0,0-0.1-0.1-0.1-0.1c0-0.1-0.1-0.2-0.1-0.2l0,0c0,0-0.1-0.1-0.1-0.1l0,0c-0.1-0.1-0.2-0.1-0.3-0.2
		c-1.4-1.4-2.8-2.9-4.4-4.1c-6-4.9-12.9-7.7-20.6-8.4c-4.2-0.4-8.4-0.1-12.5,0.9c-8.6,2.1-15.6,6.7-21.1,13.7
		c-1.5,1.9-2.8,4-3.9,6.2c-1.2,2.3-2.1,4.8-2.8,7.3c0,0,0,0.1-0.1,0.1c0,0,0,0.1,0,0.1c-0.1,0.1-0.2,0.2-0.2,0.4
		c-0.3,0.9-0.6,1.9-0.7,2.8c-0.3,1.9-0.6,3.9-0.8,5.8c-0.1,1.3-0.1,2.5,0,3.8c0.1,1.5,0.2,2.9,0.4,4.3c0.2,2.1,0.7,4.1,1.4,6
		c0.8,2.6,1.9,5.1,3.3,7.5c1.6,2.8,3.5,5.3,5.7,7.6c0.9,0.9,1.8,1.7,2.8,2.6c2.1,1.8,4.4,3.4,6.8,4.7c0.7,0.4,1.4,0.7,2,1.3
		c12.8,12.8,25.6,25.6,38.5,38.5c0.1,0.1,0.1,0.2,0.2,0.2c-0.2,0-0.4,0-0.6,0c-34.7,0-69.5,0-104.2,0c-0.4,0-0.8,0-1.2,0
		c-1-0.1-1.9-0.5-2.6-1.2c-1-0.9-1.5-2.1-1.5-3.5c0-43.7,0-87.5,0-131.2c0-0.4,0-0.7,0-1.1c0,0,0,0,0.1-0.1c0.3-2.1,2.4-3.8,4.7-3.8
		c20.9,0,41.8,0,62.7,0c0.2,0,0.5,0,0.7,0C173.4,94.5,173.9,94.5,174.3,94.5z"/>
	<path class="st3" d="M173,94.5c-0.2,0-0.5,0-0.7,0c-20.9,0-41.8,0-62.7,0c-2.3,0-4.4,1.8-4.7,3.8c0,0,0,0.1-0.1,0.1
		c0-0.1,0-0.2,0-0.2c0-5.1,0-10.1,0-15.2c0-0.2,0-0.3,0-0.5c0.5-2.2,1.8-3.5,4-3.9c0.2,0,0.5,0,0.7,0c19.6,0,39.2,0,58.8,0
		c1.6,0,2.8,0.7,3.8,1.8c0,0,0,0.1,0,0.1c0,0,0,0.1,0.1,0.1c0,0,0,0,0,0c0,0,0,0.1,0.1,0.1c0,0.1,0.1,0.1,0.1,0.2c0,0,0,0,0,0.1
		c0.3,0.7,0.6,1.4,0.6,2.2C173,86.9,173,90.7,173,94.5z"/>
	<path class="st4" d="M172.4,80.8c0-0.1-0.1-0.1-0.1-0.2C172.3,80.7,172.3,80.8,172.4,80.8z"/>
	<path class="st4" d="M172.1,80.4C172.1,80.4,172.1,80.4,172.1,80.4C172.1,80.4,172.1,80.4,172.1,80.4z"/>
	<polygon class="st4" points="172.2,80.5 172.2,80.5 172.2,80.5 	"/>
	<path class="st3" d="M298.6,211.2c0,0.1,0,0.3,0,0.4c0,6.5,0,13,0,19.5c0,2-1.6,3.8-3.6,4.2c-0.4,0.1-0.9,0.1-1.3,0.1
		c-26,0-51.9,0-77.9,0c-0.2,0-0.5,0-0.7,0c-0.1-0.1-0.1-0.2-0.2-0.2c-12.8-12.8-25.6-25.6-38.5-38.5c-0.6-0.6-1.3-0.9-2-1.3
		c-2.4-1.3-4.7-2.9-6.8-4.7c-0.9-0.8-1.9-1.7-2.8-2.6c-2.2-2.3-4.1-4.9-5.7-7.6c-1.4-2.4-2.5-4.9-3.3-7.5c-0.6-2-1.1-4-1.4-6
		c-0.2-1.4-0.3-2.9-0.4-4.3c-0.1-1.3-0.1-2.6,0-3.8c0.2-1.9,0.5-3.9,0.8-5.8c0.2-1,0.5-1.9,0.7-2.8c0-0.1,0.2-0.2,0.2-0.4
		c-0.1,0.4-0.2,0.9-0.3,1.3c-0.5,2.3-0.8,4.6-0.9,6.9c-0.1,2.4,0,4.7,0.4,7.1c0.3,1.8,0.8,3.5,1.2,5.2c0.2,0.8,0.5,1.6,0.7,2.4
		c0,0.1,0,0.3,0,0.4c0.5,1.3,1,2.7,1.6,4c1.6,3.6,3.8,6.8,6.4,9.7c1.7,1.8,3.5,3.5,5.5,4.9c1.4,1,2.8,1.9,4,3.3
		c0.5,0.6,1.1,1,1.8,1.3c1.2,0.5,2.5,1.1,3.8,1.5c2.3,0.8,4.6,1.4,7,1.7c1.6,0.2,3.3,0.4,4.9,0.4c1.2,0.1,2.3,0,3.5-0.1
		c1.2-0.1,2.4-0.2,3.6-0.4c1.4-0.3,2.8-0.6,4.2-1c3.1-0.8,5.9-2.1,8.7-3.7c1-0.6,1.9-0.6,2.6,0.1c0.7,0.6,1.4,1.3,2.1,2
		c6,5.9,11.9,11.9,17.8,17.8c1.2,1.2,2.6,1.4,4.1,0.8c1.4-0.5,2.5-1.4,3.6-2.4c1-1,2-2,3-3c0.7-0.8,1.4-1.7,2-2.6
		c0.7-1.1,1.1-2.3,0.7-3.5c0-0.1-0.2-0.3-0.3-0.4c0.4-1.2-0.1-2.1-1-2.9c-6.4-6.4-12.8-12.8-19.2-19.2c-0.4-0.4-0.8-0.8-1.2-1.2
		c0.1-0.3,0.2-0.5,0.3-0.8c0.8-1.7,1.6-3.3,2.3-5.1c0.6-1.8,1.1-3.7,1.5-5.6c0.5-2.1,0.7-4.3,0.7-6.4c0-0.7,0.1-1.5,0-2.2
		c0-0.3-0.1-0.6-0.2-1c0-3-0.4-6-1.1-8.9c-0.9-3.9-2.4-7.6-4.6-11c-1-1.6-2.3-3.1-3.4-4.7c0.2,0.1,0.4,0.2,0.5,0.3
		c1.6,1.5,3.1,3.1,4.6,4.6c23.8,23.8,47.5,47.5,71.3,71.3C298.3,210.9,298.5,211.1,298.6,211.2z"/>
	<path class="st3" d="M221.5,134.2c-0.1-0.1-0.2-0.1-0.3-0.2C221.3,134,221.4,134.1,221.5,134.2z"/>
	<path class="st3" d="M221.7,134.5c0-0.1-0.1-0.2-0.1-0.2C221.6,134.3,221.7,134.4,221.7,134.5z"/>
	<path class="st3" d="M221.6,134.3C221.6,134.2,221.5,134.2,221.6,134.3C221.5,134.2,221.6,134.2,221.6,134.3z"/>
	<path class="st3" d="M156,149.4c0,0,0,0.1-0.1,0.1C156,149.5,156,149.5,156,149.4z"/>
	<path class="st4" d="M157.1,172.6c0.3,0.6,0.6,1.3,0.9,1.9c0.7,1.5,1.4,3,2.3,4.4c5.8,9.4,14.1,15.3,24.9,17.6
		c3.5,0.8,7.1,0.9,10.7,0.7c6.4-0.5,12.3-2.6,17.8-6.1c0.1,0.1,0.2,0.1,0.3,0.2c7.1,7.1,14.2,14.1,21.2,21.2c0.8,0.8,1.7,1,2.7,0.7
		c1.4-0.4,2.6-1.2,3.7-2.2c1.6-1.6,3.2-3.1,4.7-4.8c0.7-0.8,1-1.8,1.4-2.7c0.1,0.1,0.3,0.2,0.3,0.4c0.4,1.3,0,2.5-0.7,3.5
		c-0.6,0.9-1.3,1.8-2,2.6c-1,1-2,2-3,3c-1.1,1-2.2,1.9-3.6,2.4c-1.5,0.5-2.9,0.4-4.1-0.8c-5.9-6-11.9-11.9-17.8-17.8
		c-0.7-0.7-1.4-1.3-2.1-2c-0.7-0.7-1.6-0.7-2.6-0.1c-2.7,1.6-5.6,2.9-8.7,3.7c-1.4,0.4-2.8,0.7-4.2,1c-1.2,0.2-2.4,0.3-3.6,0.4
		c-1.2,0.1-2.3,0.1-3.5,0.1c-1.6-0.1-3.3-0.3-4.9-0.4c-2.4-0.3-4.7-0.9-7-1.7c-1.3-0.4-2.5-1-3.8-1.5c-0.7-0.3-1.3-0.7-1.8-1.3
		c-1.1-1.3-2.5-2.3-4-3.3c-2-1.4-3.8-3.1-5.5-4.9c-2.7-2.9-4.8-6.1-6.4-9.7c-0.6-1.3-1.1-2.7-1.6-4
		C157,172.9,157.1,172.7,157.1,172.6z"/>
	<path class="st4" d="M226.2,180.2c-0.3-0.3-0.6-0.7-1-1.1c0.2-0.4,0.5-0.9,0.8-1.4c2.3-4,3.7-8.4,4.4-13c0.3-1.8,0.3-3.7,0.4-5.6
		c0.1,0.3,0.2,0.6,0.2,1c0,0.7,0,1.5,0,2.2c0,2.2-0.2,4.3-0.7,6.4c-0.5,1.9-0.9,3.8-1.5,5.6c-0.6,1.7-1.5,3.4-2.3,5.1
		C226.4,179.7,226.3,180,226.2,180.2z"/>
	<path class="st3" d="M217.7,163.4c0,1.2-0.4,2.4-0.7,3.5c-0.6,1.9-1.4,3.8-2.5,5.5c-4.1,6.5-9.8,10.6-17.4,11.9
		c-9.3,1.5-17.1-1.3-23.4-8.3c-3-3.3-4.8-7.2-5.8-11.5c-0.1-0.5-0.2-0.9-0.2-1.4c0.1-0.1,0.2-0.3,0.2-0.4c-0.2-1.8-0.1-3.6,0.3-5.4
		c0.3-1.7,0.8-3.3,1.3-4.9c0.7-2.1,1.8-3.9,3-5.7c1-1.4,2.1-2.8,3.5-3.9c1-0.8,2.1-1.7,3.2-2.5c1.5-1,3.1-1.8,4.8-2.4
		c2.3-0.9,4.7-1.4,7.1-1.6c1.9-0.1,3.7-0.1,5.6,0.2c2.5,0.4,5,1.2,7.2,2.3c1.6,0.8,3.1,1.7,4.5,2.9c1,0.9,2.1,1.8,3,2.8
		c0.9,1.1,1.7,2.3,2.5,3.4c1.1,1.5,1.8,3.2,2.4,4.9c0.4,1.1,0.7,2.2,0.9,3.3c0.2,1.4,0.4,2.8,0.5,4.2
		C217.8,161.4,217.7,162.4,217.7,163.4z"/>
	<path class="st4" d="M217.7,163.4c0-1,0-2,0-3c-0.1-1.4-0.3-2.8-0.5-4.2c-0.2-1.1-0.5-2.2-0.9-3.3c-0.6-1.7-1.3-3.4-2.4-4.9
		c-0.8-1.2-1.6-2.4-2.5-3.4c-0.9-1-1.9-1.9-3-2.8c-1.4-1.2-2.9-2.1-4.5-2.9c-2.3-1.1-4.7-1.9-7.2-2.3c-1.9-0.3-3.7-0.4-5.6-0.2
		c-2.4,0.2-4.8,0.7-7.1,1.6c-1.7,0.6-3.3,1.4-4.8,2.4c-1.1,0.7-2.1,1.6-3.2,2.5c-1.4,1.1-2.5,2.5-3.5,3.9c-1.3,1.8-2.4,3.6-3,5.7
		c-0.5,1.6-1,3.3-1.3,4.9c-0.3,1.8-0.5,3.6-0.3,5.4c0,0.1-0.1,0.3-0.2,0.4c-0.1-1.5-0.3-3-0.3-4.5c0-3.5,0.9-6.8,2.3-10
		c1.3-2.9,3.2-5.5,5.5-7.7c4-3.8,8.7-6.1,14.1-6.8c8.2-1,15.4,1.3,21.4,7.1c1.7,1.7,3.2,3.5,4.3,5.6c1.2,2.3,2.2,4.7,2.7,7.3
		c0.2,0.8,0.2,1.7,0.3,2.5c0.1,1,0.2,1.9,0.2,2.9c0,1.2-0.2,2.3-0.3,3.5C217.9,163.1,217.8,163.3,217.7,163.4z"/>
</g>
<rect y="309.5" class="st1" width="2000" height="309.5"/>
<path class="st5" d="M1821,499.3h-78.5c-21.2,0-38.5-17.3-38.5-38.5v0c0-21.2,17.3-38.5,38.5-38.5h78.5c21.2,0,38.5,17.3,38.5,38.5
	v0C1859.5,481.9,1842.2,499.3,1821,499.3z"/>
<circle class="st6" cx="1835" cy="460.8" r="55.8"/>
<g>
	<path d="M428.6,468.2c-7.3-2.1-12.6-4.7-16-7.8c-3.3-3.1-5-6.9-5-11.4c0-5.1,2-9.3,6.1-12.6c4.1-3.3,9.4-5,15.9-5
		c4.4,0,8.4,0.9,11.9,2.6c3.5,1.7,6.2,4.1,8.1,7.1c1.9,3,2.9,6.3,2.9,9.9h-8.6c0-3.9-1.2-7-3.7-9.3c-2.5-2.2-6-3.4-10.5-3.4
		c-4.2,0-7.5,0.9-9.8,2.8c-2.4,1.9-3.5,4.4-3.5,7.7c0,2.6,1.1,4.9,3.4,6.7c2.2,1.8,6,3.5,11.4,5c5.4,1.5,9.6,3.2,12.6,5
		c3,1.8,5.3,3.9,6.8,6.4c1.5,2.4,2.2,5.3,2.2,8.6c0,5.2-2,9.4-6.1,12.6c-4.1,3.2-9.6,4.7-16.4,4.7c-4.4,0-8.6-0.9-12.4-2.6
		c-3.9-1.7-6.8-4-8.9-7c-2.1-3-3.1-6.3-3.1-10.1h8.6c0,3.9,1.4,7,4.3,9.3c2.9,2.3,6.7,3.4,11.6,3.4c4.5,0,8-0.9,10.4-2.8
		c2.4-1.8,3.6-4.3,3.6-7.5c0-3.2-1.1-5.6-3.3-7.4C438.4,471.6,434.4,469.9,428.6,468.2z"/>
	<path d="M473.4,437.3v11.6h9v6.4h-9v29.9c0,1.9,0.4,3.4,1.2,4.3c0.8,1,2.2,1.4,4.1,1.4c0.9,0,2.3-0.2,3.9-0.5v6.6
		c-2.2,0.6-4.3,0.9-6.3,0.9c-3.7,0-6.4-1.1-8.3-3.3s-2.8-5.4-2.8-9.5v-29.8h-8.8v-6.4h8.8v-11.6H473.4z"/>
	<path d="M488.9,472.5c0-4.7,0.9-8.9,2.8-12.7c1.9-3.8,4.4-6.7,7.7-8.7c3.3-2,7.1-3.1,11.3-3.1c6.5,0,11.8,2.3,15.9,6.8
		c4,4.5,6.1,10.6,6.1,18.1v0.6c0,4.7-0.9,8.9-2.7,12.6c-1.8,3.7-4.4,6.6-7.7,8.7c-3.3,2.1-7.2,3.1-11.5,3.1
		c-6.5,0-11.8-2.3-15.8-6.8c-4-4.5-6.1-10.5-6.1-18V472.5z M497.1,473.5c0,5.3,1.2,9.6,3.7,12.8c2.5,3.2,5.8,4.8,9.9,4.8
		c4.2,0,7.5-1.6,10-4.9c2.5-3.3,3.7-7.9,3.7-13.8c0-5.3-1.3-9.5-3.8-12.8c-2.5-3.3-5.8-4.9-10-4.9c-4.1,0-7.3,1.6-9.8,4.8
		C498.4,462.9,497.1,467.5,497.1,473.5z"/>
	<path d="M566.2,456.3c-1.2-0.2-2.6-0.3-4-0.3c-5.4,0-9,2.3-11,6.9V497H543v-48.1h8l0.1,5.6c2.7-4.3,6.5-6.4,11.5-6.4
		c1.6,0,2.8,0.2,3.6,0.6V456.3z"/>
	<path d="M601.7,497c-0.5-0.9-0.9-2.6-1.2-5.1c-3.8,4-8.4,6-13.7,6c-4.7,0-8.6-1.3-11.7-4c-3-2.7-4.6-6.1-4.6-10.2
		c0-5,1.9-8.9,5.7-11.7c3.8-2.8,9.2-4.2,16.1-4.2h8v-3.8c0-2.9-0.9-5.2-2.6-6.9c-1.7-1.7-4.3-2.6-7.6-2.6c-2.9,0-5.4,0.7-7.4,2.2
		c-2,1.5-3,3.3-3,5.4h-8.3c0-2.4,0.9-4.7,2.6-7c1.7-2.2,4-4,6.9-5.3c2.9-1.3,6.1-2,9.6-2c5.5,0,9.9,1.4,13,4.2
		c3.1,2.8,4.8,6.6,4.9,11.4v22.1c0,4.4,0.6,7.9,1.7,10.5v0.7H601.7z M588,490.7c2.6,0,5-0.7,7.3-2s4-3.1,5-5.2v-9.9h-6.4
		c-10.1,0-15.1,2.9-15.1,8.8c0,2.6,0.9,4.6,2.6,6C583.1,490,585.3,490.7,588,490.7z"/>
	<path d="M619.5,472.6c0-7.5,1.7-13.5,5.2-17.9c3.5-4.4,8.1-6.6,13.8-6.6c5.9,0,10.4,2.1,13.7,6.2l0.4-5.3h7.5v46.9
		c0,6.2-1.8,11.1-5.5,14.7c-3.7,3.6-8.6,5.4-14.9,5.4c-3.5,0-6.9-0.7-10.2-2.2c-3.3-1.5-5.9-3.5-7.6-6.1l4.3-4.9
		c3.5,4.4,7.8,6.5,12.9,6.5c4,0,7.1-1.1,9.4-3.4c2.2-2.3,3.4-5.4,3.4-9.5v-4.1c-3.3,3.8-7.8,5.7-13.5,5.7c-5.6,0-10.2-2.3-13.7-6.8
		C621.3,486.6,619.5,480.4,619.5,472.6z M627.8,473.5c0,5.4,1.1,9.7,3.3,12.8c2.2,3.1,5.3,4.6,9.3,4.6c5.2,0,9-2.4,11.4-7.1v-22
		c-2.5-4.6-6.3-6.9-11.3-6.9c-4,0-7.1,1.6-9.4,4.7C628.9,462.8,627.8,467.4,627.8,473.5z"/>
	<path d="M692.5,497.9c-6.5,0-11.8-2.1-15.9-6.4c-4.1-4.3-6.1-10-6.1-17.2v-1.5c0-4.8,0.9-9,2.7-12.8c1.8-3.7,4.4-6.7,7.6-8.8
		c3.3-2.1,6.8-3.2,10.6-3.2c6.3,0,11.1,2.1,14.6,6.2c3.5,4.1,5.2,10,5.2,17.7v3.4h-32.6c0.1,4.7,1.5,8.6,4.2,11.5
		c2.7,2.9,6,4.4,10.1,4.4c2.9,0,5.4-0.6,7.4-1.8c2-1.2,3.8-2.8,5.3-4.7l5,3.9C706.6,494.8,700.5,497.9,692.5,497.9z M691.5,454.8
		c-3.3,0-6.1,1.2-8.4,3.6c-2.3,2.4-3.6,5.8-4.2,10.2H703v-0.6c-0.2-4.2-1.4-7.4-3.4-9.7C697.6,455.9,694.9,454.8,691.5,454.8z"/>
</g>
<path class="st7" d="M127,413.7H93.4c-6.2,0-11.2,5-11.2,11.2l-0.1,67.3c0,6.2,5,11.2,11.2,11.2h89.7c6.2,0,11.2-5,11.2-11.2v-56.1
	c0-6.2-5-11.2-11.2-11.2h-44.8L127,413.7z"/>
<path class="st8" d="M151,413.7h134.5v134.5H151V413.7z"/>
</svg>
