<svg xmlns="http://www.w3.org/2000/svg" width="612.52" height="252.1" viewBox="0 0 162.06 66.7"><g stroke-width=".26"><g style="line-height:1.25"><path style="-inkscape-font-specification:Roboto" fill="#999" d="M4.38 6.18h-.64l-2.4-3.67v3.67H.72V1.41h.64l2.4 3.7v-3.7h.63zm.82-1.8q0-.52.2-.94.2-.42.57-.64.37-.23.83-.23.73 0 1.17.5.45.5.45 1.34v.04q0 .52-.2.93-.2.4-.57.64-.36.22-.84.22-.72 0-1.17-.5-.44-.5-.44-1.32zm.6.07q0 .59.28.94.27.36.73.36.46 0 .73-.36.28-.36.28-1.01 0-.59-.28-.95t-.74-.36q-.44 0-.72.36-.27.35-.27 1.02zm4.82-.07q0-.82.38-1.31.39-.5 1.01-.5.63 0 .99.43V1.15h.6v5.03h-.55l-.03-.38q-.37.44-1.01.44-.62 0-1-.5-.4-.5-.4-1.32zm.6.07q0 .6.25.94.25.34.69.34.57 0 .84-.52V3.59q-.27-.5-.84-.5-.44 0-.69.34-.25.34-.25 1.02zm5.47 1.73q-.05-.1-.08-.37-.42.43-1.01.43-.52 0-.86-.29-.33-.3-.33-.75 0-.56.41-.86.43-.3 1.19-.3h.59v-.29q0-.31-.2-.5-.18-.19-.55-.19-.33 0-.54.16-.22.17-.22.4h-.61q0-.27.18-.51.2-.25.51-.4.33-.14.71-.14.62 0 .96.31.35.3.36.84v1.63q0 .49.13.78v.05zm-1-.46q.28 0 .54-.15.25-.15.37-.38v-.73h-.48q-1.1 0-1.1.65 0 .29.18.45.2.16.49.16zm3.25-3.94v.86h.66v.47h-.66v2.2q0 .2.09.31.09.1.3.1.1 0 .29-.03v.49q-.24.06-.47.06-.4 0-.6-.24-.21-.25-.21-.7V3.1h-.65v-.46h.65v-.86zm3.52 4.4q-.06-.1-.1-.37-.41.43-1 .43-.52 0-.86-.29-.34-.3-.34-.75 0-.56.42-.86.43-.3 1.19-.3h.59v-.29q0-.31-.2-.5-.18-.19-.55-.19-.33 0-.55.16-.21.17-.21.4h-.61q0-.27.18-.51.2-.25.51-.4.33-.14.71-.14.62 0 .96.31.35.3.36.84v1.63q0 .49.13.78v.05zm-1.01-.46q.28 0 .54-.15.25-.15.37-.38v-.73h-.48q-1.11 0-1.11.65 0 .29.19.45.19.16.49.16zm6.24.1q-.36.42-1.04.42-.57 0-.86-.32-.3-.33-.3-.98v-2.3h.6v2.28q0 .8.66.8.7 0 .92-.52V2.64h.6v3.54h-.57zm3.53-.58q0-.25-.2-.38-.17-.14-.64-.24-.45-.1-.73-.23-.26-.14-.4-.33-.12-.19-.12-.45 0-.44.36-.74.37-.3.95-.3.6 0 .97.31.38.31.38.8h-.61q0-.25-.21-.43t-.53-.18q-.33 0-.52.14-.19.15-.19.38 0 .22.18.33.17.11.62.21.46.1.74.25.28.14.41.34.14.2.14.48 0 .47-.38.76-.38.28-.98.28-.43 0-.76-.15-.32-.15-.51-.41-.18-.28-.18-.6h.6q.02.31.24.5.23.17.6.17.35 0 .56-.14.2-.14.2-.37zm2.82 1q-.72 0-1.17-.47-.45-.47-.45-1.26V4.4q0-.53.2-.94.2-.42.56-.65.36-.24.78-.24.7 0 1.08.46.38.45.38 1.3v.25h-2.4q.02.53.3.85.3.32.75.32.32 0 .55-.13.22-.13.39-.35l.37.3q-.45.67-1.34.67zm-.08-3.17q-.36 0-.61.27-.25.26-.3.74h1.77v-.04q-.03-.46-.25-.71-.23-.26-.6-.26zm1.97 1.31q0-.82.39-1.31.38-.5 1-.5.63 0 1 .43V1.15h.6v5.03h-.56l-.03-.38q-.36.44-1 .44-.62 0-1.01-.5t-.39-1.32zm.6.07q0 .6.26.94.24.34.68.34.58 0 .84-.52V3.59q-.27-.5-.83-.5-.45 0-.7.34-.24.34-.24 1.02z" aria-label="No data used" font-family="Roboto" font-size="6.7" font-weight="400" letter-spacing="-.04" word-spacing="0"/></g><g style="line-height:1.25"><path d="M1.66 29.39v2.16H.93v-5.51h2.04q.9 0 1.42.46.51.46.51 1.22 0 .8-.5 1.24-.5.43-1.44.43zm0-.59h1.31q.58 0 .9-.27.3-.28.3-.8 0-.5-.3-.79-.32-.3-.86-.3H1.66zm5.6 2.83q-.84 0-1.36-.54-.52-.55-.52-1.47v-.13q0-.61.23-1.09.23-.48.65-.75.42-.27.91-.27.8 0 1.24.53.45.52.45 1.5v.3H6.08q.01.6.35.98.34.37.87.37.37 0 .62-.15.26-.15.46-.4l.42.33q-.51.8-1.54.8zm-.09-3.68q-.42 0-.71.32-.29.3-.36.86h2.06v-.05q-.03-.54-.3-.83-.25-.3-.69-.3zm4.36.13q-.16-.02-.35-.02-.69 0-.93.58v2.91h-.7v-4.1h.68v.48q.35-.55.99-.55.2 0 .3.05zm1.18-.63l.02.46q.45-.53 1.21-.53.86 0 1.17.66.2-.3.53-.48t.78-.18q1.35 0 1.37 1.43v2.74h-.7v-2.7q0-.44-.2-.66-.2-.22-.67-.22-.4 0-.65.24-.26.23-.3.62v2.72h-.7v-2.68q0-.9-.88-.9-.69 0-.94.6v2.98h-.7v-4.1zm6.79 4.1h-.7v-4.1h.7zm-.76-5.18q0-.17.1-.3.1-.1.31-.1.2 0 .31.1.1.13.1.3 0 .17-.1.28-.1.11-.3.11-.21 0-.32-.1-.1-.12-.1-.3zm4.14 4.1q0-.29-.21-.44-.21-.16-.75-.28-.53-.1-.84-.27-.31-.16-.47-.38-.14-.22-.14-.52 0-.5.42-.85.43-.35 1.1-.35.69 0 1.12.36.44.36.44.92h-.7q0-.29-.25-.5-.25-.2-.62-.2-.38 0-.6.16-.21.17-.21.44 0 .25.2.38t.72.25q.53.11.85.28.33.16.49.4.15.22.15.55 0 .55-.43.88-.44.33-1.15.33-.49 0-.87-.17-.38-.18-.6-.49-.2-.31-.2-.68h.7q.02.36.28.56.26.2.7.2.4 0 .63-.15.24-.16.24-.43zm3.88 0q0-.29-.21-.44-.21-.16-.75-.28-.53-.1-.84-.27-.31-.16-.46-.38-.15-.22-.15-.52 0-.5.42-.85.43-.35 1.1-.35.7 0 1.12.36.44.36.44.92h-.7q0-.29-.25-.5-.24-.2-.62-.2t-.6.16q-.21.17-.21.44 0 .25.2.38t.72.25q.53.11.86.28.32.16.48.4.16.22.16.55 0 .55-.44.88-.44.33-1.14.33-.5 0-.87-.17-.38-.18-.6-.49-.21-.31-.21-.68h.7q.02.36.28.56.27.2.7.2.4 0 .63-.15.25-.16.25-.43zm2.26 1.08h-.7v-4.1h.7zm-.75-5.18q0-.17.1-.3.1-.1.3-.1.21 0 .32.1.1.13.1.3 0 .17-.1.28-.1.11-.31.11-.2 0-.31-.1-.1-.12-.1-.3zm1.57 3.1q0-.6.23-1.09.24-.48.66-.74.43-.26.97-.26.83 0 1.35.58.52.58.52 1.54v.05q0 .6-.23 1.08-.23.47-.66.74-.42.26-.98.26-.83 0-1.35-.58-.51-.58-.51-1.53zm.7.08q0 .68.32 1.1.31.4.84.4.54 0 .85-.4.32-.43.32-1.18 0-.68-.32-1.1-.32-.42-.85-.42-.52 0-.84.42-.32.41-.32 1.18zm4.45-2.1l.03.52q.47-.6 1.22-.6 1.3 0 1.31 1.48v2.7h-.7v-2.7q0-.45-.2-.66-.2-.22-.62-.22-.34 0-.6.19-.26.18-.4.47v2.92h-.7v-4.1zm5.9 3.02q0-.29-.22-.44-.21-.16-.74-.28-.54-.1-.85-.27-.31-.16-.46-.38-.15-.22-.15-.52 0-.5.42-.85.43-.35 1.1-.35.7 0 1.13.36.43.36.43.92h-.7q0-.29-.25-.5-.24-.2-.61-.2-.39 0-.6.16-.22.17-.22.44 0 .25.2.38t.73.25q.52.11.85.28.32.16.48.4.16.22.16.55 0 .55-.44.88-.44.33-1.14.33-.5 0-.87-.17-.38-.18-.6-.49-.21-.31-.21-.68h.7q.02.36.28.56.27.2.7.2.4 0 .64-.15.24-.16.24-.43z" aria-label="Permissions" font-family="Roboto" font-size="7.76" font-weight="400" letter-spacing="-.12" word-spacing="0" style="-inkscape-font-specification:Roboto"/></g><g style="line-height:1.25"><path style="-inkscape-font-specification:Roboto" fill="#999" d="M4.32 40.62h-.6l-2.27-3.5v3.48h-.6v-4.51h.6l2.28 3.5v-3.5h.59zm.93-1.72q0-.49.19-.88.2-.4.54-.61.35-.22.79-.22.68 0 1.1.48.43.47.43 1.26v.04q0 .5-.19.88-.18.39-.53.6-.35.22-.8.22-.69 0-1.11-.47-.42-.48-.42-1.26zm.57.07q0 .56.26.9.26.34.7.34.43 0 .69-.35.26-.34.26-.96 0-.55-.27-.89-.26-.34-.7-.34-.42 0-.68.33-.26.34-.26.97zm7.84 0q0 .77-.35 1.24-.35.46-.95.46-.61 0-.96-.38v1.61h-.58v-4.64h.53l.02.37q.36-.44.98-.44.6 0 .95.46.36.46.36 1.27zm-.58-.06q0-.57-.24-.9-.24-.33-.66-.33-.52 0-.78.46v1.6q.25.47.78.47.42 0 .66-.33.24-.33.24-.97zm2.81 1.76q-.68 0-1.11-.44-.43-.45-.43-1.2v-.1q0-.5.19-.9.2-.4.53-.61.35-.23.75-.23.65 0 1.01.44.37.43.37 1.23v.24h-2.28q.02.5.3.8.27.3.7.3.3 0 .51-.12.21-.12.37-.33l.35.28q-.42.64-1.26.64zm-.07-3q-.35 0-.59.25-.23.25-.29.7h1.68v-.04q-.02-.43-.23-.67-.21-.24-.57-.24zm3.77.1q-.13-.02-.28-.02-.56 0-.77.48v2.38h-.57v-3.35h.56v.38q.29-.45.8-.45.18 0 .26.05zm1.18-.51l.02.37q.36-.44.99-.44.7 0 .96.54.17-.24.43-.39.27-.15.64-.15 1.1 0 1.12 1.17v2.25h-.57V38.4q0-.36-.17-.54-.16-.18-.55-.18-.32 0-.53.2-.21.18-.24.5v2.23h-.58v-2.2q0-.73-.72-.73-.56 0-.77.48v2.45h-.57v-3.35zm5.77 3.36h-.58v-3.36h.58zm-.62-4.25q0-.14.08-.24.09-.1.25-.1.17 0 .26.1.08.1.08.24 0 .14-.08.23-.09.1-.26.1-.16 0-.25-.1-.08-.1-.08-.23zm3.6 3.35q0-.23-.18-.36-.17-.13-.61-.22-.43-.1-.7-.22-.25-.13-.37-.31t-.12-.43q0-.41.35-.7t.89-.29q.57 0 .92.3.36.3.36.75h-.58q0-.23-.2-.4t-.5-.17q-.31 0-.49.13-.18.14-.18.36 0 .2.17.31.16.1.59.2.43.1.7.23.26.14.4.33.12.18.12.45 0 .45-.36.72-.36.27-.93.27-.4 0-.71-.14-.31-.14-.5-.4-.17-.25-.17-.55H28q.01.29.23.46.21.17.57.17.32 0 .52-.14.2-.13.2-.35zm3.39 0q0-.23-.18-.36-.17-.13-.61-.22-.44-.1-.7-.22-.25-.13-.37-.31t-.12-.43q0-.41.34-.7.36-.29.9-.29.57 0 .92.3.36.3.36.75h-.58q0-.23-.2-.4t-.5-.17q-.32 0-.5.13-.17.14-.17.36 0 .2.17.31.16.1.59.2.43.1.7.23.26.14.39.33.13.18.13.45 0 .45-.36.72-.36.27-.93.27-.4 0-.72-.14-.3-.14-.48-.4-.18-.25-.18-.55h.58q.01.29.23.46.21.17.57.17.32 0 .52-.14.2-.13.2-.35zm2.05.9h-.57v-3.36h.57zm-.62-4.25q0-.14.09-.24.08-.1.25-.1.17 0 .26.1.08.1.08.24 0 .14-.08.23-.1.1-.26.1-.17 0-.25-.1-.09-.1-.09-.23zm1.5 2.53q0-.49.2-.88.19-.4.53-.61.35-.22.8-.22.68 0 1.1.48.42.47.42 1.26v.04q0 .5-.19.88-.18.39-.53.6-.35.22-.8.22-.68 0-1.1-.47-.43-.48-.43-1.26zm.58.07q0 .56.25.9.26.34.7.34.44 0 .7-.35.25-.34.25-.96 0-.55-.26-.89-.26-.34-.7-.34-.42 0-.68.33-.26.34-.26.97zm3.85-1.71l.02.42q.38-.49 1-.49 1.07 0 1.08 1.2v2.22h-.58v-2.22q0-.36-.17-.54-.16-.17-.5-.17-.28 0-.5.15-.2.15-.32.4v2.38h-.57v-3.35zm5.03 2.46q0-.23-.17-.36-.18-.13-.61-.22-.44-.1-.7-.22-.25-.13-.37-.31t-.12-.43q0-.41.34-.7.35-.29.9-.29.57 0 .92.3.36.3.36.75h-.58q0-.23-.2-.4t-.5-.17q-.32 0-.5.13-.17.14-.17.36 0 .2.16.31.17.1.6.2.43.1.7.23.26.14.39.33.13.18.13.45 0 .45-.36.72-.36.27-.94.27-.4 0-.7-.14-.32-.14-.5-.4-.17-.25-.17-.55h.57q.02.29.23.46.22.17.57.17.33 0 .53-.14.2-.13.2-.35zm2.99-.81q0-.79.36-1.25.37-.47.97-.47t.95.44l.03-.37h.53v3.27q0 .65-.4 1.03-.38.37-1.03.37-.36 0-.7-.15-.36-.16-.54-.43l.3-.34q.37.45.9.45.42 0 .65-.23.24-.24.24-.67v-.28q-.35.4-.94.4t-.96-.48q-.36-.48-.36-1.3zm.58.06q0 .57.23.9.23.32.65.32.54 0 .8-.5v-1.53q-.27-.48-.8-.48-.41 0-.65.33-.23.32-.23.96zm4.85-1.2q-.13-.02-.28-.02-.56 0-.77.48v2.38h-.57v-3.35h.56v.38q.29-.45.8-.45.18 0 .26.05zm2.59 2.85q-.05-.1-.08-.36-.4.41-.96.41-.5 0-.81-.28-.32-.28-.32-.7 0-.53.4-.82.4-.3 1.12-.3h.56v-.26q0-.3-.18-.47-.18-.18-.53-.18-.3 0-.52.15-.2.16-.2.38h-.58q0-.25.18-.49.17-.23.48-.37.3-.14.67-.14.58 0 .91.3.33.28.34.8v1.53q0 .46.12.73v.05zm-.95-.45q.27 0 .5-.14.25-.13.36-.36v-.69h-.45q-1.06 0-1.06.62 0 .27.18.42.18.15.47.15zm3-2.91l.01.42q.39-.49 1-.49 1.07 0 1.08 1.2v2.22h-.57v-2.22q0-.36-.17-.54-.16-.17-.5-.17-.29 0-.5.15-.2.15-.33.4v2.38h-.57v-3.35zm3.85-.82v.82h.63v.44h-.63v2.08q0 .2.09.3.08.1.28.1.1 0 .27-.03v.46q-.22.06-.44.06-.38 0-.58-.23-.2-.23-.2-.66V37.7h-.6v-.44h.6v-.82zm2.8 4.23q-.68 0-1.1-.44-.44-.45-.44-1.2v-.1q0-.5.2-.9.18-.4.53-.61.34-.23.74-.23.65 0 1.02.44.36.43.36 1.23v.24h-2.27q0 .5.29.8.27.3.7.3.3 0 .52-.12.2-.12.37-.33l.35.28q-.43.64-1.27.64zm-.07-3q-.35 0-.58.25-.24.25-.3.7h1.69v-.04q-.03-.43-.24-.67-.21-.24-.57-.24zm2.02 1.24q0-.78.36-1.24.37-.48.96-.48t.93.4v-1.74h.57v4.76h-.52l-.03-.36q-.34.42-.96.42-.58 0-.95-.47-.37-.48-.37-1.25zm.57.06q0 .57.23.9.24.32.65.32.55 0 .8-.5v-1.53q-.26-.48-.79-.48-.42 0-.66.33-.23.32-.23.96z" aria-label="No permissions granted" font-family="Roboto" font-size="6.35" font-weight="400" letter-spacing=".11" word-spacing="0"/></g><g aria-label="Notifications" font-family="Roboto" font-size="7.76" font-weight="400" letter-spacing="-.09" word-spacing="0" style="line-height:1.25"><path d="M5.05 65.78h-.73l-2.78-4.26v4.25H.81v-5.52h.73l2.79 4.27v-4.27h.72zm.91-2.09q0-.6.23-1.08.24-.48.66-.75.42-.26.97-.26.83 0 1.35.58.52.58.52 1.55v.04q0 .6-.23 1.08-.23.47-.66.74-.42.27-.98.27-.83 0-1.35-.58-.51-.58-.51-1.54zm.7.08q0 .69.32 1.1.31.41.84.41.54 0 .85-.41.32-.42.32-1.18 0-.67-.32-1.09-.32-.42-.85-.42-.52 0-.84.41-.32.42-.32 1.18zm4.77-3.08v.99h.76v.54h-.76v2.54q0 .25.1.38.1.12.35.12.12 0 .33-.05v.57q-.27.08-.53.08-.47 0-.71-.29-.24-.28-.24-.8v-2.55h-.75v-.54h.75v-1zm2.25 5.09h-.7v-4.1h.7zm-.76-5.19q0-.17.1-.29.11-.11.32-.11.2 0 .3.11.11.12.11.3 0 .16-.1.28-.1.1-.31.1-.2 0-.31-.1-.1-.12-.1-.29z" style="-inkscape-font-specification:Roboto"/><path d="M15.06 65.78v-3.56h-.65v-.54h.64v-.42q0-.66.36-1.02.35-.36 1-.36.24 0 .47.06l-.03.57q-.18-.03-.38-.03-.34 0-.53.2-.18.2-.18.57v.43h.87v.54h-.87v3.56zm3.02 0h-.7v-4.1h.7zm-.76-5.19q0-.17.1-.29.11-.11.31-.11t.31.11q.11.12.11.3 0 .16-.1.28-.11.1-.32.1-.2 0-.3-.1-.1-.12-.1-.29z" style="-inkscape-font-specification:'Roboto, Normal';font-variant-ligatures:no-common-ligatures;font-variant-caps:normal;font-variant-numeric:normal;font-feature-settings:normal;text-align:start"/><path d="M20.76 65.28q.37 0 .65-.22.28-.23.3-.57h.67q-.02.35-.24.67-.22.32-.6.5-.37.2-.79.2-.84 0-1.33-.56-.5-.56-.5-1.53v-.12q0-.6.22-1.07.22-.46.63-.72.42-.26.98-.26.69 0 1.14.42.46.4.5 1.07h-.67q-.03-.4-.3-.65-.27-.26-.67-.26-.54 0-.83.39-.3.38-.3 1.1v.15q0 .7.3 1.09.29.38.83.38zm4.85.5q-.06-.12-.1-.43-.49.5-1.16.5-.61 0-1-.34t-.39-.87q0-.64.49-.99.49-.36 1.37-.36h.68v-.32q0-.37-.22-.58-.22-.22-.65-.22-.37 0-.63.19-.25.19-.25.46h-.7q0-.31.21-.6.22-.28.6-.45.37-.17.81-.17.71 0 1.12.36.4.35.41.97v1.9q0 .56.15.89v.06zm-1.16-.53q.33 0 .62-.18.3-.17.43-.44v-.84h-.54q-1.29 0-1.29.75 0 .33.22.52t.57.19zm3.72-4.56v.99h.77v.54h-.77v2.54q0 .25.1.38.1.12.35.12.12 0 .33-.05v.57q-.27.08-.53.08-.47 0-.71-.29-.24-.28-.24-.8v-2.55h-.75v-.54h.75v-1zm2.25 5.09h-.7v-4.1h.7zm-.76-5.19q0-.17.1-.29.11-.11.32-.11.2 0 .3.11.11.12.11.3 0 .16-.1.28-.1.1-.31.1-.2 0-.31-.1-.1-.12-.1-.29zm1.6 3.1q0-.6.24-1.08.24-.48.66-.75.42-.26.96-.26.84 0 1.36.58.52.58.52 1.55v.04q0 .6-.23 1.08-.23.47-.66.74-.42.27-.98.27-.83 0-1.35-.58-.52-.58-.52-1.54zm.7.08q0 .69.32 1.1.32.41.85.41.54 0 .85-.41.32-.42.32-1.18 0-.67-.33-1.09-.31-.42-.85-.42-.51 0-.83.41-.32.42-.32 1.18zm4.49-2.09l.02.51q.47-.59 1.23-.59 1.3 0 1.31 1.47v2.7h-.7v-2.7q0-.45-.2-.66-.2-.21-.62-.21-.34 0-.6.18-.26.18-.4.48v2.92h-.7v-4.1zm5.92 3.01q0-.28-.21-.44-.21-.16-.75-.27-.53-.11-.84-.27-.31-.16-.47-.38-.14-.22-.14-.53 0-.5.42-.85.43-.35 1.1-.35.69 0 1.12.36.44.36.44.92h-.7q0-.28-.25-.5-.25-.2-.62-.2-.38 0-.6.17-.21.16-.21.43 0 .26.2.38.2.13.72.25.53.12.85.28.33.16.49.4.15.22.15.55 0 .55-.43.89-.44.33-1.15.33-.49 0-.87-.18-.38-.17-.6-.48-.2-.32-.2-.68h.7q.02.35.28.56.26.2.7.2.4 0 .63-.16.24-.16.24-.43z" style="-inkscape-font-specification:Roboto"/></g><path fill="#c5c5c5" d="M0 15.36h161.96v.5H0zm.09 34.41h161.97v.5H.09z"/></g></svg>