<svg xmlns="http://www.w3.org/2000/svg" id="Layer_1" viewBox="0 0 2000 619"><style>.st1{fill:#fff}.st3{fill:#4a678f}.st4{fill:#293442}</style><path fill="#36464e" d="M0 0h2000v309.5H0z"/><path d="M422.6 120.3l23.5 58.6 23.5-58.6h12.3v71.8h-9.5v-28l.9-30.2-23.6 58.1h-7.2L419 134l.9 30v28h-9.5v-71.8h12.2zM530 192.1c-.5-1.1-1-2.9-1.3-5.6a20.3 20.3 0 0 1-15.2 6.6c-5.3 0-9.6-1.5-12.9-4.5-3.4-3-5.1-6.7-5.1-11.3 0-5.6 2.1-9.9 6.3-12.9a29.7 29.7 0 0 1 17.8-4.6h8.9v-4.2c0-3.2-1-5.7-2.9-7.6-1.9-1.9-4.7-2.8-8.4-2.8-3.3 0-6 .8-8.2 2.5a7.2 7.2 0 0 0-3.3 6h-9.2c0-2.7.9-5.2 2.8-7.7s4.5-4.4 7.7-5.9c3.2-1.4 6.8-2.2 10.7-2.2 6.1 0 11 1.5 14.4 4.6 3.5 3.1 5.3 7.3 5.4 12.7v24.6c0 4.9.6 8.8 1.9 11.7v.8H530zm-15.1-7a15.4 15.4 0 0 0 13.7-8v-10.9h-7.2c-11.2 0-16.8 3.3-16.8 9.8 0 2.9 1 5.1 2.9 6.7 2 1.6 4.4 2.4 7.4 2.4zm49.5-59.3v12.9h10v7.1h-10v33.1c0 2.1.4 3.7 1.3 4.8.9 1.1 2.4 1.6 4.5 1.6 1.1 0 2.5-.2 4.3-.6v7.4c-2.4.7-4.7 1-7 1-4.1 0-7.2-1.2-9.2-3.7s-3.1-6-3.1-10.5v-33.1h-9.7v-7.1h9.7v-12.9h9.2zm42.8 67.3c-7.2 0-13.1-2.4-17.7-7.1s-6.8-11.1-6.8-19.1v-1.7c0-5.3 1-10 3-14.2 2-4.2 4.8-7.4 8.5-9.8s7.6-3.5 11.8-3.5c6.9 0 12.3 2.3 16.2 6.9a30 30 0 0 1 5.8 19.6v3.8h-36.1c.1 5.3 1.7 9.5 4.6 12.7 2.9 3.2 6.7 4.9 11.2 4.9 3.2 0 6-.7 8.2-2 2.2-1.3 4.2-3.1 5.9-5.2l5.6 4.3a22.7 22.7 0 0 1-20.2 10.4zm-1.2-47.9c-3.7 0-6.8 1.3-9.3 4-2.5 2.7-4 6.4-4.6 11.3h26.7v-.7c-.3-4.6-1.5-8.2-3.7-10.8a11.6 11.6 0 0 0-9.1-3.8zm58.3 1.7c-1.4-.2-2.9-.3-4.5-.3-6 0-10 2.5-12.2 7.6v37.9h-9.1v-53.4h8.9l.1 6.2c3-4.8 7.2-7.2 12.7-7.2 1.8 0 3.1.2 4 .7v8.5zm8.5-22.3c0-1.5.5-2.7 1.4-3.7.9-1 2.2-1.5 4-1.5s3.1.5 4 1.5c.9 1 1.4 2.3 1.4 3.7s-.5 2.7-1.4 3.7c-.9 1-2.3 1.5-4 1.5s-3.1-.5-4-1.5-1.4-2.3-1.4-3.7zm9.8 67.5h-9.1v-53.4h9.1v53.4zm47.6 0c-.5-1.1-1-2.9-1.3-5.6a20.3 20.3 0 0 1-15.2 6.6c-5.3 0-9.6-1.5-12.9-4.5-3.4-3-5.1-6.7-5.1-11.3 0-5.6 2.1-9.9 6.3-12.9a29.7 29.7 0 0 1 17.8-4.6h8.9v-4.2c0-3.2-1-5.7-2.9-7.6-1.9-1.9-4.7-2.8-8.4-2.8-3.3 0-6 .8-8.2 2.5a7.2 7.2 0 0 0-3.3 6h-9.2c0-2.7.9-5.2 2.8-7.7s4.5-4.4 7.7-5.9c3.2-1.4 6.8-2.2 10.7-2.2 6.1 0 11 1.5 14.4 4.6 3.5 3.1 5.3 7.3 5.4 12.7v24.6c0 4.9.6 8.8 1.9 11.7v.8h-9.4zm-15.2-7a15.4 15.4 0 0 0 13.7-8v-10.9h-7.2c-11.2 0-16.8 3.3-16.8 9.8 0 2.9 1 5.1 2.9 6.7 2 1.6 4.4 2.4 7.4 2.4zm47.1 7H753v-75.8h9.1v75.8zm80.6-31.7h-30.1v31.7h-9.5v-71.8h44.5v7.7h-35v24.6h30.1v7.8zm14.8-35.8c0-1.5.5-2.7 1.4-3.7.9-1 2.2-1.5 4-1.5s3.1.5 4 1.5c.9 1 1.4 2.3 1.4 3.7s-.5 2.7-1.4 3.7c-.9 1-2.3 1.5-4 1.5s-3.1-.5-4-1.5-1.4-2.3-1.4-3.7zm9.9 67.5h-9.1v-53.4h9.1v53.4zm24.5 0h-9.1v-75.8h9.1v75.8zm36.8 1c-7.2 0-13.1-2.4-17.7-7.1s-6.8-11.1-6.8-19.1v-1.7c0-5.3 1-10 3-14.2 2-4.2 4.8-7.4 8.5-9.8s7.6-3.5 11.8-3.5c6.9 0 12.3 2.3 16.2 6.9a30 30 0 0 1 5.8 19.6v3.8h-36.1c.1 5.3 1.7 9.5 4.6 12.7 2.9 3.2 6.7 4.9 11.2 4.9 3.2 0 6-.7 8.2-2 2.2-1.3 4.2-3.1 5.9-5.2l5.6 4.3a22.7 22.7 0 0 1-20.2 10.4zm-1.2-47.9c-3.7 0-6.8 1.3-9.3 4-2.5 2.7-4 6.4-4.6 11.3h26.7v-.7c-.3-4.6-1.5-8.2-3.7-10.8a11.6 11.6 0 0 0-9.1-3.8zm71.2-24.9l23.5 58.6 23.5-58.6h12.3v71.8h-9.5v-28l.9-30.2-23.6 58.1h-7.2l-23.5-58 .9 30v28h-9.5v-71.8h12.2zm107.5 71.8c-.5-1.1-1-2.9-1.3-5.6a20.3 20.3 0 0 1-15.2 6.6c-5.3 0-9.6-1.5-12.9-4.5-3.4-3-5.1-6.7-5.1-11.3 0-5.6 2.1-9.9 6.3-12.9a29.7 29.7 0 0 1 17.8-4.6h8.9v-4.2c0-3.2-1-5.7-2.9-7.6-1.9-1.9-4.7-2.8-8.4-2.8-3.3 0-6 .8-8.2 2.5a7.2 7.2 0 0 0-3.3 6h-9.2c0-2.7.9-5.2 2.8-7.7s4.5-4.4 7.7-5.9c3.2-1.4 6.8-2.2 10.7-2.2 6.1 0 11 1.5 14.5 4.6 3.5 3.1 5.3 7.3 5.4 12.7v24.6c0 4.9.6 8.8 1.9 11.7v.8h-9.5zm-15.2-7a15.4 15.4 0 0 0 13.7-8v-10.9h-7.2c-11.2 0-16.8 3.3-16.8 9.8 0 2.9 1 5.1 2.9 6.7 2 1.6 4.4 2.4 7.4 2.4zm45.8-46.4l.3 6.7c4.1-5.1 9.4-7.7 16-7.7 11.3 0 17 6.4 17.1 19.1v35.3h-9.1v-35.3c0-3.8-.9-6.7-2.6-8.5-1.7-1.8-4.4-2.8-8.1-2.8-3 0-5.6.8-7.8 2.4-2.2 1.6-4 3.6-5.2 6.2v38h-9.1v-53.4h8.5zm80 53.4c-.5-1.1-1-2.9-1.3-5.6a20.3 20.3 0 0 1-15.2 6.6c-5.3 0-9.6-1.5-12.9-4.5-3.4-3-5.1-6.7-5.1-11.3 0-5.6 2.1-9.9 6.3-12.9a29.7 29.7 0 0 1 17.8-4.6h8.9v-4.2c0-3.2-1-5.7-2.9-7.6-1.9-1.9-4.7-2.8-8.4-2.8-3.3 0-6 .8-8.2 2.5a7.2 7.2 0 0 0-3.3 6h-9.2c0-2.7.9-5.2 2.8-7.7s4.5-4.4 7.7-5.9c3.2-1.4 6.8-2.2 10.7-2.2 6.1 0 11 1.5 14.5 4.6 3.5 3.1 5.3 7.3 5.4 12.7v24.6c0 4.9.6 8.8 1.9 11.7v.8h-9.5zm-15.1-7a15.4 15.4 0 0 0 13.7-8v-10.9h-7.2c-11.2 0-16.8 3.3-16.8 9.8 0 2.9 1 5.1 2.9 6.7 1.9 1.6 4.4 2.4 7.4 2.4zm34.9-20.1c0-8.3 1.9-14.9 5.8-19.8 3.8-4.9 8.9-7.4 15.3-7.4 6.5 0 11.6 2.3 15.2 6.9l.4-5.9h8.3v52.1c0 6.9-2 12.3-6.1 16.3s-9.6 6-16.5 6c-3.8 0-7.6-.8-11.3-2.5a18.5 18.5 0 0 1-8.4-6.8l4.7-5.5c3.9 4.8 8.7 7.2 14.4 7.2 4.4 0 7.9-1.3 10.4-3.7 2.5-2.5 3.7-6 3.7-10.6v-4.6a18.6 18.6 0 0 1-14.9 6.3c-6.2 0-11.3-2.5-15.2-7.5-3.8-5-5.8-11.9-5.8-20.5zm9.2 1a24 24 0 0 0 3.7 14.2c2.5 3.4 5.9 5.2 10.4 5.2 5.8 0 10-2.6 12.7-7.8v-24.4c-2.8-5.1-7-7.6-12.6-7.6a12 12 0 0 0-10.4 5.2c-2.5 3.3-3.8 8.4-3.8 15.2zm71.8 27.1c-7.2 0-13.1-2.4-17.7-7.1s-6.8-11.1-6.8-19.1v-1.7c0-5.3 1-10 3-14.2 2-4.2 4.8-7.4 8.5-9.8s7.6-3.5 11.8-3.5c6.9 0 12.3 2.3 16.2 6.9a30 30 0 0 1 5.8 19.6v3.8h-36.1c.1 5.3 1.7 9.5 4.6 12.7 2.9 3.2 6.7 4.9 11.2 4.9 3.2 0 6-.7 8.2-2 2.2-1.3 4.2-3.1 5.9-5.2l5.6 4.3a22.5 22.5 0 0 1-20.2 10.4zm-1.1-47.9c-3.7 0-6.8 1.3-9.3 4-2.5 2.7-4 6.4-4.6 11.3h26.7v-.7c-.3-4.6-1.5-8.2-3.7-10.8a11.8 11.8 0 0 0-9.1-3.8zm58.3 1.7c-1.4-.2-2.9-.3-4.5-.3-6 0-10 2.5-12.2 7.6v37.9h-9.1v-53.4h8.9l.1 6.2c3-4.8 7.2-7.2 12.7-7.2 1.8 0 3.1.2 4 .7v8.5zM141.9 114.4h120.9v105.9H141.9z" class="st1"/><path fill="#4d93d2" d="M174.3 94.5h119.2c2.6 0 4.7 1.5 5.1 4v112.7l-.4-.4-71.3-71.3-4.6-4.6-.5-.3-.1-.1-.1-.2-.1-.1-.3-.2c-1.4-1.4-2.8-2.9-4.4-4.1a37.3 37.3 0 0 0-33.1-7.5 37.5 37.5 0 0 0-27.8 27.2l-.1.1v.1l-.2.4a115.4 115.4 0 0 0-1.5 8.6v3.8l.4 4.3a35.7 35.7 0 0 0 4.7 13.5c1.6 2.8 3.5 5.3 5.7 7.6l2.8 2.6c2.1 1.8 4.4 3.4 6.8 4.7.7.4 1.4.7 2 1.3l38.5 38.5.2.2h-106c-1-.1-1.9-.5-2.6-1.2-1-.9-1.5-2.1-1.5-3.5V98.3l.1-.1c.3-2.1 2.4-3.8 4.7-3.8h63.4l1 .1z"/><path d="M173 94.5h-63.4c-2.3 0-4.4 1.8-4.7 3.8l-.1.1V82.5c.5-2.2 1.8-3.5 4-3.9h59.5a5 5 0 0 1 3.8 1.8v.1l.1.1.1.1.1.2v.1c.3.7.6 1.4.6 2.2v11.3z" class="st3"/><path d="M172.4 80.8l-.1-.2.1.2zm-.3-.4zm.1.1z" class="st4"/><path d="M298.6 211.2v19.9c0 2-1.6 3.8-3.6 4.2l-1.3.1h-78.6l-.2-.2-38.5-38.5c-.6-.6-1.3-.9-2-1.3a39.3 39.3 0 0 1-20-28.4l-.4-4.3a24 24 0 0 1 0-3.8l.8-5.8.7-2.8.2-.4-.3 1.3a40.8 40.8 0 0 0-.5 14c.3 1.8.8 3.5 1.2 5.2l.7 2.4v.4l1.6 4a37.1 37.1 0 0 0 11.9 14.6c1.4 1 2.8 1.9 4 3.3.5.6 1.1 1 1.8 1.3 1.2.5 2.5 1.1 3.8 1.5a34 34 0 0 0 11.9 2.1c1.2.1 2.3 0 3.5-.1l3.6-.4 4.2-1a35 35 0 0 0 8.7-3.7c1-.6 1.9-.6 2.6.1l2.1 2 17.8 17.8a3.5 3.5 0 0 0 4.1.8c1.4-.5 2.5-1.4 3.6-2.4l3-3 2-2.6c.7-1.1 1.1-2.3.7-3.5l-.3-.4c.4-1.2-.1-2.1-1-2.9l-19.2-19.2-1.2-1.2.3-.8c.8-1.7 1.6-3.3 2.3-5.1a51.2 51.2 0 0 0 2.2-12v-2.2l-.2-1a38 38 0 0 0-5.7-19.9c-1-1.6-2.3-3.1-3.4-4.7l.5.3 4.6 4.6 71.3 71.3c.4.1.6.3.7.4zm-77.1-77l-.3-.2.3.2zm.2.3l-.1-.2.1.2zm-.1-.2c0-.1-.1-.1 0 0-.1-.1 0-.1 0 0zM156 149.4l-.1.1.1-.1z" class="st3"/><path d="M157.1 172.6l.9 1.9a37.3 37.3 0 0 0 37.9 22.7c6.4-.5 12.3-2.6 17.8-6.1l.3.2 21.2 21.2c.8.8 1.7 1 2.7.7a9.4 9.4 0 0 0 3.7-2.2c1.6-1.6 3.2-3.1 4.7-4.8.7-.8 1-1.8 1.4-2.7.1.1.3.2.3.4a4 4 0 0 1-.7 3.5l-2 2.6-3 3c-1.1 1-2.2 1.9-3.6 2.4-1.5.5-2.9.4-4.1-.8l-17.8-17.8-2.1-2c-.7-.7-1.6-.7-2.6-.1a33.5 33.5 0 0 1-8.7 3.7l-4.2 1-3.6.4-3.5.1-4.9-.4a34 34 0 0 1-7-1.7c-1.3-.4-2.5-1-3.8-1.5-.7-.3-1.3-.7-1.8-1.3a18.5 18.5 0 0 0-4-3.3 36.4 36.4 0 0 1-11.9-14.6l-1.6-4v-.5zm69.1 7.6l-1-1.1.8-1.4a37 37 0 0 0 4.4-13c.3-1.8.3-3.7.4-5.6l.2 1v2.2c0 2.2-.2 4.3-.7 6.4-.5 1.9-.9 3.8-1.5 5.6-.6 1.7-1.5 3.4-2.3 5.1l-.3.8z" class="st4"/><path d="M217.7 163.4c0 1.2-.4 2.4-.7 3.5a24.8 24.8 0 0 1-19.9 17.4 24.5 24.5 0 0 1-23.4-8.3c-3-3.3-4.8-7.2-5.8-11.5l-.2-1.4.2-.4c-.2-1.8-.1-3.6.3-5.4.3-1.7.8-3.3 1.3-4.9a23.9 23.9 0 0 1 6.5-9.6l3.2-2.5a25.2 25.2 0 0 1 24.7-1.5c1.6.8 3.1 1.7 4.5 2.9 1 .9 2.1 1.8 3 2.8l2.5 3.4c1.1 1.5 1.8 3.2 2.4 4.9l.9 3.3.5 4.2v3.1z" class="st3"/><path d="M217.7 163.4v-3l-.5-4.2-.9-3.3c-.6-1.7-1.3-3.4-2.4-4.9-.8-1.2-1.6-2.4-2.5-3.4a26.8 26.8 0 0 0-7.5-5.7 26.3 26.3 0 0 0-12.8-2.5 25.2 25.2 0 0 0-11.9 4c-1.1.7-2.1 1.6-3.2 2.5a18.5 18.5 0 0 0-3.5 3.9 18.4 18.4 0 0 0-3 5.7c-.5 1.6-1 3.3-1.3 4.9-.3 1.8-.5 3.6-.3 5.4l-.2.4-.3-4.5a24.8 24.8 0 0 1 7.8-17.7c4-3.8 8.7-6.1 14.1-6.8a25 25 0 0 1 25.7 12.7c1.2 2.3 2.2 4.7 2.7 7.3.2.8.2 1.7.3 2.5l.2 2.9c0 1.2-.2 2.3-.3 3.5l-.2.3z" class="st4"/><path d="M0 309.5h2000V619H0z" class="st1"/><path fill="#a5d3d0" d="M1821 499.3h-78.5a38.6 38.6 0 0 1 0-77h78.5a38.6 38.6 0 0 1 38.5 38.5 38.6 38.6 0 0 1-38.5 38.5z"/><circle cx="1835" cy="460.8" r="55.8" fill="#4f907c"/><path d="M428.6 468.2a40.3 40.3 0 0 1-16-7.8 15 15 0 0 1-5-11.4c0-5.1 2-9.3 6.1-12.6 4.1-3.3 9.4-5 15.9-5 4.4 0 8.4.9 11.9 2.6 3.5 1.7 6.2 4.1 8.1 7.1 1.9 3 2.9 6.3 2.9 9.9h-8.6c0-3.9-1.2-7-3.7-9.3-2.5-2.2-6-3.4-10.5-3.4a15 15 0 0 0-9.8 2.8 9.1 9.1 0 0 0-3.5 7.7c0 2.6 1.1 4.9 3.4 6.7 2.2 1.8 6 3.5 11.4 5s9.6 3.2 12.6 5c3 1.8 5.3 3.9 6.8 6.4a16 16 0 0 1 2.2 8.6c0 5.2-2 9.4-6.1 12.6a26 26 0 0 1-16.4 4.7c-4.4 0-8.6-.9-12.4-2.6-3.9-1.7-6.8-4-8.9-7a17 17 0 0 1-3.1-10.1h8.6c0 3.9 1.4 7 4.3 9.3a18 18 0 0 0 11.6 3.4c4.5 0 8-.9 10.4-2.8a8.8 8.8 0 0 0 3.6-7.5 9 9 0 0 0-3.3-7.4 62 62 0 0 0-12.5-4.9zm44.8-30.9v11.6h9v6.4h-9v29.9c0 1.9.4 3.4 1.2 4.3.8 1 2.2 1.4 4.1 1.4.9 0 2.3-.2 3.9-.5v6.6a24 24 0 0 1-6.3.9c-3.7 0-6.4-1.1-8.3-3.3s-2.8-5.4-2.8-9.5v-29.8h-8.8v-6.4h8.8v-11.6h8.2zm15.5 35.2c0-4.7.9-8.9 2.8-12.7a20.5 20.5 0 0 1 19-11.8c6.5 0 11.8 2.3 15.9 6.8 4 4.5 6.1 10.6 6.1 18.1v.6c0 4.7-.9 8.9-2.7 12.6a21 21 0 0 1-7.7 8.7 21 21 0 0 1-11.5 3.1c-6.5 0-11.8-2.3-15.8-6.8s-6.1-10.5-6.1-18v-.6zm8.2 1c0 5.3 1.2 9.6 3.7 12.8a12 12 0 0 0 9.9 4.8c4.2 0 7.5-1.6 10-4.9 2.5-3.3 3.7-7.9 3.7-13.8 0-5.3-1.3-9.5-3.8-12.8a11.8 11.8 0 0 0-10-4.9c-4.1 0-7.3 1.6-9.8 4.8-2.4 3.4-3.7 8-3.7 14zm69.1-17.2a25 25 0 0 0-4-.3c-5.4 0-9 2.3-11 6.9V497H543v-48.1h8l.1 5.6c2.7-4.3 6.5-6.4 11.5-6.4 1.6 0 2.8.2 3.6.6v7.6zm35.5 40.7c-.5-.9-.9-2.6-1.2-5.1-3.8 4-8.4 6-13.7 6-4.7 0-8.6-1.3-11.7-4-3-2.7-4.6-6.1-4.6-10.2 0-5 1.9-8.9 5.7-11.7 3.8-2.8 9.2-4.2 16.1-4.2h8V464c0-2.9-.9-5.2-2.6-6.9-1.7-1.7-4.3-2.6-7.6-2.6a12 12 0 0 0-7.4 2.2c-2 1.5-3 3.3-3 5.4h-8.3c0-2.4.9-4.7 2.6-7 1.7-2.2 4-4 6.9-5.3 2.9-1.3 6.1-2 9.6-2 5.5 0 9.9 1.4 13 4.2 3.1 2.8 4.8 6.6 4.9 11.4v22.1c0 4.4.6 7.9 1.7 10.5v.7h-8.4zm-13.7-6.3c2.6 0 5-.7 7.3-2s4-3.1 5-5.2v-9.9h-6.4c-10.1 0-15.1 2.9-15.1 8.8 0 2.6.9 4.6 2.6 6a9.2 9.2 0 0 0 6.6 2.3zm31.5-18.1a28 28 0 0 1 5.2-17.9c3.5-4.4 8.1-6.6 13.8-6.6 5.9 0 10.4 2.1 13.7 6.2l.4-5.3h7.5v46.9c0 6.2-1.8 11.1-5.5 14.7a20.3 20.3 0 0 1-14.9 5.4c-3.5 0-6.9-.7-10.2-2.2a17.3 17.3 0 0 1-7.6-6.1l4.3-4.9c3.5 4.4 7.8 6.5 12.9 6.5 4 0 7.1-1.1 9.4-3.4 2.2-2.3 3.4-5.4 3.4-9.5v-4.1a17 17 0 0 1-13.5 5.7c-5.6 0-10.2-2.3-13.7-6.8a30.6 30.6 0 0 1-5.2-18.6zm8.3.9c0 5.4 1.1 9.7 3.3 12.8 2.2 3.1 5.3 4.6 9.3 4.6 5.2 0 9-2.4 11.4-7.1v-22a12.2 12.2 0 0 0-11.3-6.9 11 11 0 0 0-9.4 4.7 24.4 24.4 0 0 0-3.3 13.9zm64.7 24.4a21 21 0 0 1-15.9-6.4c-4.1-4.3-6.1-10-6.1-17.2v-1.5c0-4.8.9-9 2.7-12.8 1.8-3.7 4.4-6.7 7.6-8.8 3.3-2.1 6.8-3.2 10.6-3.2 6.3 0 11.1 2.1 14.6 6.2s5.2 10 5.2 17.7v3.4h-32.6c.1 4.7 1.5 8.6 4.2 11.5 2.7 2.9 6 4.4 10.1 4.4 2.9 0 5.4-.6 7.4-1.8 2-1.2 3.8-2.8 5.3-4.7l5 3.9c-4 6.2-10.1 9.3-18.1 9.3zm-1-43.1c-3.3 0-6.1 1.2-8.4 3.6a17.7 17.7 0 0 0-4.2 10.2H703v-.6c-.2-4.2-1.4-7.4-3.4-9.7a10 10 0 0 0-8.1-3.5z"/><path fill="#737574" d="M127 413.7H93.4c-6.2 0-11.2 5-11.2 11.2l-.1 67.3c0 6.2 5 11.2 11.2 11.2H183c6.2 0 11.2-5 11.2-11.2v-56.1c0-6.2-5-11.2-11.2-11.2h-44.8L127 413.7z"/><path fill="none" d="M151 413.7h134.5v134.5H151V413.7z"/></svg>